<svg width="289" height="43" viewBox="0 0 289 43" fill="none" xmlns="http://www.w3.org/2000/svg">
<path d="M45.8156 41.7257C35.5529 41.7257 27.2014 32.4944 27.2014 21.1449C27.2014 9.79542 35.5529 0.564148 45.8156 0.564148C56.0784 0.564148 64.4272 9.79542 64.4272 21.1449C64.4272 32.4944 56.0784 41.7257 45.8156 41.7257ZM45.8156 5.07467C37.8014 5.07467 31.2915 12.2835 31.2915 21.1449C31.2915 30.0063 37.8094 37.2151 45.8237 37.2151C53.8379 37.2151 60.3559 30.0063 60.3559 21.1449C60.3559 12.2835 53.8352 5.07467 45.8237 5.07467" fill="#3F3D56"/>
<path d="M96.8001 41.1615L95.2663 35.5227H73.9351L71.8954 41.1615H66.4642L81.9333 0H87.6964L102.199 41.1615H96.8001ZM75.1584 31.0122H94.4874L84.8269 4.29498L75.1584 31.0122Z" fill="#3F3D56"/>
<path d="M124.208 41.5979H123.704L108.789 41.1934V0.537516L123.34 0.143677H123.857C126.539 0.152965 129.19 0.720049 131.639 1.80849C134.088 2.89693 136.28 4.48264 138.076 6.46373C143.871 12.8317 143.47 20.147 143.467 20.2215V20.304C143.467 25.9109 141.861 30.7274 138.724 34.6179C136.988 36.7917 134.782 38.5486 132.269 39.7579C129.757 40.9673 127.002 41.598 124.21 41.6032L124.208 41.5979ZM123.857 4.64888C123.718 4.64888 123.589 4.64888 123.439 4.64888L112.869 4.93361V36.7867L123.806 37.0954C123.937 37.0954 124.074 37.0954 124.208 37.0954C126.413 37.0977 128.59 36.6052 130.578 35.6547C132.565 34.7042 134.311 33.3201 135.686 31.6056C138.178 28.524 139.39 24.8252 139.39 20.2987V20.1975L139.377 20.1257L139.401 19.9075V19.8489C139.401 18.9282 139.256 14.1063 135.206 9.65969C133.772 8.08402 132.021 6.82421 130.068 5.96124C128.114 5.09828 126 4.65124 123.862 4.64888" fill="#3F3D56"/>
<path d="M178.632 41.7257L149.142 0.564148H155.207L184.697 41.7257H178.632Z" fill="#3F3D56"/>
<path d="M149.142 41.7257L178.629 0.564148H184.697L155.207 41.7257H149.142Z" fill="#3F3D56"/>
<path d="M0 41.1668V0.569458H5.09925V36.6563H21.4169V41.1668H0Z" fill="#3F3D56"/>
<path d="M218.12 26.4931C218.12 37.3531 225.2 42.3331 233.84 42.3331C242.48 42.3331 249.62 37.3531 249.62 26.4931V0.0930786H244.16V26.5531C244.16 34.2331 240.08 37.5331 233.9 37.5331C227.72 37.5331 223.58 34.2331 223.58 26.5531V0.0930786H218.12V26.4931Z" fill="#3F3D56"/>
<path d="M281.408 41.9131H288.548L269.408 21.0331L288.368 0.0930786H281.468L264.188 19.4731V0.0930786H258.728V41.9131H264.188V22.8331L281.408 41.9131Z" fill="#3F3D56"/>
<path d="M188.62 17.913H206.62V23.913H188.62V17.913Z" fill="#3F3D56"/>
</svg>
