<svg width="186" height="40" viewBox="0 0 186 40" fill="none" xmlns="http://www.w3.org/2000/svg">
<path d="M56.3303 8.56955V31.1834H79.1013V8.56955H72.5953C72.5789 7.51571 72.7798 6.46972 73.1856 5.49606C73.5915 4.5224 74.1936 3.64173 74.9549 2.90836C75.6925 2.15301 76.578 1.55597 77.5567 1.15404C78.5354 0.752118 79.5865 0.553844 80.6453 0.571451H87.1513V31.1834C87.1529 33.3093 86.3062 35.349 84.797 36.8549C83.2878 38.3608 81.2393 39.2098 79.1013 39.2155H56.3303C54.1927 39.2081 52.1452 38.3586 50.6364 36.8531C49.1275 35.3476 48.2803 33.3088 48.2803 31.1834V8.56955C48.2639 7.51571 48.4648 6.46972 48.8707 5.49606C49.2765 4.5224 49.8786 3.64173 50.6399 2.90836C51.3775 2.15301 52.263 1.55597 53.2417 1.15404C54.2204 0.752118 55.2715 0.553844 56.3303 0.571451H72.8661C72.883 1.62462 72.6826 2.67006 72.2773 3.64321C71.872 4.61637 71.2704 5.4966 70.5096 6.22955C69.7725 6.9871 68.8869 7.58619 67.9076 7.98975C66.9282 8.39331 65.876 8.59275 64.8161 8.57574L56.3303 8.56955Z" fill="#3F3D56"/>
<path d="M104.624 8.56952V31.2143C104.622 33.3366 103.774 35.3716 102.264 36.8724C100.755 38.3731 98.7085 39.2169 96.574 39.2186V8.57571C96.5571 7.52207 96.7574 6.47616 97.1627 5.50249C97.568 4.52882 98.1696 3.64805 98.9305 2.91452C99.6682 2.15797 100.554 1.55974 101.533 1.15676C102.512 0.753766 103.564 0.554558 104.624 0.571422H135.442C135.458 1.62479 135.257 2.67031 134.851 3.64345C134.446 4.6166 133.843 5.49672 133.082 6.22952C132.346 6.98698 131.461 7.58605 130.482 7.98962C129.503 8.39318 128.451 8.59267 127.392 8.57571L104.624 8.56952Z" fill="#3F3D56"/>
<path d="M167.418 31.2143C167.418 32.2654 167.209 33.3063 166.805 34.2774C166.4 35.2485 165.807 36.1309 165.06 36.8741C164.312 37.6174 163.425 38.207 162.448 38.6093C161.472 39.0115 160.425 39.2186 159.368 39.2186V8.5757H141.422C141.405 7.52186 141.606 6.47587 142.012 5.50221C142.418 4.52855 143.02 3.64788 143.781 2.91451C144.523 2.15607 145.413 1.55685 146.396 1.15385C147.38 0.750842 148.436 0.552616 149.5 0.571412H159.368C160.427 0.554548 161.479 0.753756 162.458 1.15675C163.438 1.55973 164.324 2.15796 165.061 2.91451C165.822 3.64804 166.424 4.52881 166.829 5.50248C167.234 6.47615 167.435 7.52206 167.418 8.5757V31.2143Z" fill="#3F3D56"/>
<path d="M177.354 8.67164C178.414 8.68851 179.466 8.4893 180.445 8.08631C181.424 7.68332 182.31 7.0851 183.048 6.32855C183.81 5.59555 184.412 4.71502 184.819 3.74132C185.225 2.76763 185.427 1.72144 185.41 0.667358H169.058V8.67164H177.354Z" fill="#3F3D56"/>
<path d="M106.265 24.6462H114.262C115.319 24.6466 116.366 24.4398 117.343 24.0377C118.32 23.6356 119.207 23.046 119.955 22.3027C120.702 21.5593 121.295 20.6768 121.7 19.7055C122.104 18.7342 122.312 17.6932 122.312 16.6419H106.265V24.6462Z" fill="#3F3D56"/>
<path d="M8.82411 8.59741V15.9022H31.5671C32.6243 15.9018 33.6713 16.1085 34.6481 16.5106C35.625 16.9127 36.5126 17.5023 37.2602 18.2457C38.0078 18.989 38.6007 19.8716 39.0051 20.8429C39.4095 21.8142 39.6175 22.8552 39.6171 23.9065V31.2143C39.6171 32.2654 39.4088 33.3063 39.0043 34.2774C38.5997 35.2485 38.0068 36.1309 37.2593 36.8742C36.5118 37.6175 35.6243 38.2071 34.6477 38.6093C33.671 39.0116 32.6242 39.2186 31.5671 39.2186H0.749211C0.732837 38.1648 0.933755 37.1188 1.33958 36.1451C1.7454 35.1715 2.34752 34.2908 3.1088 33.5574C3.84994 32.7994 4.73945 32.2004 5.72243 31.7974C6.70541 31.3944 7.76101 31.1959 8.82411 31.2143H31.5671V23.9065H8.82411C7.76027 23.9249 6.70393 23.7261 5.72037 23.3226C4.73681 22.9191 3.84692 22.3193 3.10569 21.5603C2.34449 20.8275 1.7424 19.9473 1.33657 18.9742C0.93074 18.0011 0.729782 16.9555 0.746098 15.9022V8.59741C0.73059 7.54186 0.931853 6.49426 1.33757 5.51872C1.74329 4.54317 2.34494 3.66021 3.10569 2.92384C3.84571 2.16283 4.73524 1.5613 5.71898 1.15662C6.70273 0.751934 7.75967 0.552755 8.82411 0.571456H39.6171C39.636 1.62903 39.4366 2.67924 39.0313 3.6572C38.626 4.63516 38.0233 5.52012 37.2606 6.25741C36.523 7.01437 35.6373 7.61307 34.6581 8.01658C33.6789 8.4201 32.6269 8.61988 31.5671 8.6036L8.82411 8.59741Z" fill="#3F3D56"/>
</svg>
