<svg width="38" height="48" viewBox="0 0 38 48" fill="none" xmlns="http://www.w3.org/2000/svg">
<path d="M10.085 35.0945V40.515C10.085 40.515 19.1035 46.6887 19.352 46.7714C19.6004 46.8542 28.8674 41.0116 28.8674 41.0116V33.249C28.8674 33.249 23.6915 38.173 20.6025 38.2558C17.5135 38.3385 10.085 35.0945 10.085 35.0945Z" fill="white" stroke="#9D0191" stroke-width="2" stroke-miterlimit="10" stroke-linecap="round" stroke-linejoin="round"/>
<path d="M8.41957 21.7594C8.41957 21.7594 3.06604 18.1797 2.04427 16.1053C1.0304 14.0381 14.303 2.70175 16.2444 2.14607C18.1853 1.58289 21.0586 1.42859 22.6228 2.25497C24.187 3.08134 37.0818 13.0124 36.9378 14.5324C36.7941 16.06 30.6407 21.5442 30.6407 21.5442C30.6407 21.5442 26.9241 17.3424 20.1075 17.4827C13.291 17.623 8.41957 21.7594 8.41957 21.7594Z" stroke="#9D0191" stroke-width="2" stroke-miterlimit="10" stroke-linecap="round" stroke-linejoin="round"/>
<path d="M8.16623 21.635C8.16623 21.635 8.75224 32.8217 9.59369 34.5046C10.4351 36.1875 15.2284 40.9808 16.6558 42.0776C18.0833 43.1745 20.9457 42.9191 22.6286 42.1603C24.3115 41.4015 29.2701 36.4429 29.9462 33.2424C30.6224 30.0494 30.6224 21.2142 30.6224 21.2142C30.6224 21.2142 26.9185 17.1798 20.7804 17.5103C14.6424 17.8484 9.68384 19.5313 8.16623 21.635Z" fill="white" stroke="#9D0191" stroke-width="2" stroke-miterlimit="10" stroke-linecap="round" stroke-linejoin="round"/>
<path d="M7.89452 21.5091C7.89452 21.5091 10.1109 22.5713 11.7658 22.5652C13.4282 22.5587 18.0464 19.0304 20.4741 19.4041C22.9017 19.7778 26.038 22.5587 27.9391 22.3739C29.8402 22.189 30.5885 20.7118 30.5885 20.7118C30.5885 20.7118 27.8571 16.2238 21.8376 15.3734C15.8173 14.5079 9.54591 18.2153 7.89452 21.5091Z" fill="white" stroke="#9D0191" stroke-width="2" stroke-miterlimit="10" stroke-linecap="round" stroke-linejoin="round"/>
<path d="M16.5807 23.3103C16.5807 23.3103 14.0564 21.8829 11.7048 24.0692" stroke="#9D0191" stroke-width="2" stroke-miterlimit="10" stroke-linecap="round" stroke-linejoin="round"/>
<path d="M22.8841 23.2278C22.8841 23.2278 25.2356 22.1309 27.76 23.904" stroke="#9D0191" stroke-width="2" stroke-miterlimit="10" stroke-linecap="round" stroke-linejoin="round"/>
<path d="M15.3441 25.736C15.3441 26.5663 15.0119 27.2385 14.5928 27.2385C14.1816 27.2385 13.8415 26.5663 13.8415 25.736" fill="#9D0191"/>
<path d="M15.3441 25.736C15.3441 25.3208 15.0119 24.9847 14.5928 24.9847C14.1816 24.9847 13.8415 25.3208 13.8415 25.736" fill="#9D0191"/>
<path d="M25.8622 25.736C25.8622 26.5663 25.53 27.2385 25.1109 27.2385C24.6996 27.2385 24.3596 26.5663 24.3596 25.736" fill="#9D0191"/>
<path d="M25.8622 25.736C25.8622 25.3208 25.53 24.9847 25.1109 24.9847C24.6996 24.9847 24.3596 25.3208 24.3596 25.736" fill="#9D0191"/>
<path d="M21.3739 24.6626V31.2214" stroke="#9D0191" stroke-width="2" stroke-miterlimit="10" stroke-linecap="round" stroke-linejoin="round"/>
<path d="M19.1877 30.8833C19.1877 30.8833 17.8429 31.3867 16.8361 31.9802C15.8294 32.5662 14.5672 32.9869 14.2292 33.0771C13.8911 33.1597 13.1924 33.4753 17.1291 34.5496C21.0434 35.624 25.6714 33.911 25.8366 33.2424C25.8366 33.2424 25.5587 33.2874 23.6278 32.3408C21.2838 31.1913 20.3672 31.0561 20.3672 31.0561L19.1877 30.8833Z" fill="#9D0191"/>
<path d="M8.37659 24.1068C8.37659 24.1068 6.55846 22.1384 5.57426 24.0316C4.59007 25.9249 5.49913 27.1345 6.33307 28.2764C7.16701 29.4109 8.68462 30.0194 8.68462 30.0194L8.37659 24.1068Z" fill="white" stroke="#9D0191" stroke-width="2" stroke-miterlimit="10" stroke-linecap="round" stroke-linejoin="round"/>
<path d="M30.6316 24.3733C30.6316 24.3733 32.1757 22.419 33.0115 24.2987C33.8474 26.1785 33.0753 27.3794 32.3671 28.5132C31.6588 29.6396 30.3699 30.2438 30.3699 30.2438L30.6316 24.3733Z" fill="white" stroke="#9D0191" stroke-width="2" stroke-miterlimit="10" stroke-linecap="round" stroke-linejoin="round"/>
</svg>
