<svg width="30" height="30" viewBox="0 0 30 30" fill="none" xmlns="http://www.w3.org/2000/svg">
<g clip-path="url(#clip0_2_430)">
<path d="M23.75 25H6.25C4.59301 24.998 3.00445 24.3389 1.83277 23.1672C0.661102 21.9956 0.00198482 20.407 0 18.75L0 11.25C0.00198482 9.59301 0.661102 8.00445 1.83277 6.83277C3.00445 5.6611 4.59301 5.00198 6.25 5H23.75C25.407 5.00198 26.9956 5.6611 28.1672 6.83277C29.3389 8.00445 29.998 9.59301 30 11.25V18.75C29.998 20.407 29.3389 21.9956 28.1672 23.1672C26.9956 24.3389 25.407 24.998 23.75 25ZM6.25 7.5C5.25544 7.5 4.30161 7.89509 3.59835 8.59835C2.89509 9.30161 2.5 10.2554 2.5 11.25V18.75C2.5 19.7446 2.89509 20.6984 3.59835 21.4017C4.30161 22.1049 5.25544 22.5 6.25 22.5H23.75C24.7446 22.5 25.6984 22.1049 26.4016 21.4017C27.1049 20.6984 27.5 19.7446 27.5 18.75V11.25C27.5 10.2554 27.1049 9.30161 26.4016 8.59835C25.6984 7.89509 24.7446 7.5 23.75 7.5H6.25ZM15 20C14.0111 20 13.0444 19.7068 12.2221 19.1573C11.3999 18.6079 10.759 17.827 10.3806 16.9134C10.0022 15.9998 9.90315 14.9945 10.0961 14.0245C10.289 13.0546 10.7652 12.1637 11.4645 11.4645C12.1637 10.7652 13.0546 10.289 14.0245 10.0961C14.9945 9.90315 15.9998 10.0022 16.9134 10.3806C17.827 10.759 18.6079 11.3999 19.1573 12.2221C19.7068 13.0444 20 14.0111 20 15C20 16.3261 19.4732 17.5979 18.5355 18.5355C17.5979 19.4732 16.3261 20 15 20ZM15 12.5C14.5055 12.5 14.0222 12.6466 13.6111 12.9213C13.2 13.196 12.8795 13.5865 12.6903 14.0433C12.5011 14.5001 12.4516 15.0028 12.548 15.4877C12.6445 15.9727 12.8826 16.4181 13.2322 16.7678C13.5819 17.1174 14.0273 17.3555 14.5123 17.452C14.9972 17.5484 15.4999 17.4989 15.9567 17.3097C16.4135 17.1205 16.804 16.8 17.0787 16.3889C17.3534 15.9778 17.5 15.4945 17.5 15C17.5 14.337 17.2366 13.7011 16.7678 13.2322C16.2989 12.7634 15.663 12.5 15 12.5ZM6.25 10C6.00277 10 5.7611 10.0733 5.55554 10.2107C5.34998 10.348 5.18976 10.5432 5.09515 10.7716C5.00054 11.0001 4.97579 11.2514 5.02402 11.4939C5.07225 11.7363 5.1913 11.9591 5.36612 12.1339C5.54093 12.3087 5.76366 12.4278 6.00614 12.476C6.24861 12.5242 6.49995 12.4995 6.72835 12.4048C6.95676 12.3102 7.15198 12.15 7.28934 11.9445C7.42669 11.7389 7.5 11.4972 7.5 11.25C7.5 10.9185 7.3683 10.6005 7.13388 10.3661C6.89946 10.1317 6.58152 10 6.25 10ZM22.5 11.25C22.5 11.4972 22.5733 11.7389 22.7107 11.9445C22.848 12.15 23.0432 12.3102 23.2716 12.4048C23.5001 12.4995 23.7514 12.5242 23.9939 12.476C24.2363 12.4278 24.4591 12.3087 24.6339 12.1339C24.8087 11.9591 24.9277 11.7363 24.976 11.4939C25.0242 11.2514 24.9995 11.0001 24.9048 10.7716C24.8102 10.5432 24.65 10.348 24.4445 10.2107C24.2389 10.0733 23.9972 10 23.75 10C23.4185 10 23.1005 10.1317 22.8661 10.3661C22.6317 10.6005 22.5 10.9185 22.5 11.25ZM6.25 17.5C6.00277 17.5 5.7611 17.5733 5.55554 17.7107C5.34998 17.848 5.18976 18.0432 5.09515 18.2716C5.00054 18.5001 4.97579 18.7514 5.02402 18.9939C5.07225 19.2363 5.1913 19.4591 5.36612 19.6339C5.54093 19.8087 5.76366 19.9278 6.00614 19.976C6.24861 20.0242 6.49995 19.9995 6.72835 19.9049C6.95676 19.8102 7.15198 19.65 7.28934 19.4445C7.42669 19.2389 7.5 18.9972 7.5 18.75C7.5 18.4185 7.3683 18.1005 7.13388 17.8661C6.89946 17.6317 6.58152 17.5 6.25 17.5ZM22.5 18.75C22.5 18.9972 22.5733 19.2389 22.7107 19.4445C22.848 19.65 23.0432 19.8102 23.2716 19.9049C23.5001 19.9995 23.7514 20.0242 23.9939 19.976C24.2363 19.9278 24.4591 19.8087 24.6339 19.6339C24.8087 19.4591 24.9277 19.2363 24.976 18.9939C25.0242 18.7514 24.9995 18.5001 24.9048 18.2716C24.8102 18.0432 24.65 17.848 24.4445 17.7107C24.2389 17.5733 23.9972 17.5 23.75 17.5C23.4185 17.5 23.1005 17.6317 22.8661 17.8661C22.6317 18.1005 22.5 18.4185 22.5 18.75Z" fill="#9D0191"/>
</g>
<defs>
<clipPath id="clip0_2_430">
<rect width="30" height="30" fill="white"/>
</clipPath>
</defs>
</svg>
