<svg width="30" height="30" viewBox="0 0 30 30" fill="none" xmlns="http://www.w3.org/2000/svg">
<path d="M26.25 15.53V13.75C26.25 10.7663 25.0647 7.90483 22.955 5.79505C20.8452 3.68526 17.9837 2.5 15 2.5C12.0163 2.5 9.15483 3.68526 7.04505 5.79505C4.93526 7.90483 3.75 10.7663 3.75 13.75V15.53C2.43895 16.1073 1.366 17.1174 0.710776 18.3913C0.0555526 19.6652 -0.142175 21.1255 0.150696 22.5278C0.443567 23.9301 1.20926 25.1892 2.31959 26.0943C3.42992 26.9995 4.81748 27.4957 6.25 27.5C6.91304 27.5 7.54893 27.2366 8.01777 26.7678C8.48661 26.2989 8.75 25.663 8.75 25V17.5C8.75 16.837 8.48661 16.2011 8.01777 15.7322C7.54893 15.2634 6.91304 15 6.25 15V13.75C6.25 11.4294 7.17187 9.20376 8.81282 7.56281C10.4538 5.92187 12.6794 5 15 5C17.3206 5 19.5462 5.92187 21.1872 7.56281C22.8281 9.20376 23.75 11.4294 23.75 13.75V15C23.087 15 22.4511 15.2634 21.9822 15.7322C21.5134 16.2011 21.25 16.837 21.25 17.5V25H17.5C17.1685 25 16.8505 25.1317 16.6161 25.3661C16.3817 25.6005 16.25 25.9185 16.25 26.25C16.25 26.5815 16.3817 26.8995 16.6161 27.1339C16.8505 27.3683 17.1685 27.5 17.5 27.5H23.75C25.1825 27.4957 26.5701 26.9995 27.6804 26.0943C28.7907 25.1892 29.5564 23.9301 29.8493 22.5278C30.1422 21.1255 29.9444 19.6652 29.2892 18.3913C28.634 17.1174 27.5611 16.1073 26.25 15.53ZM6.25 25C5.25544 25 4.30161 24.6049 3.59835 23.9017C2.89509 23.1984 2.5 22.2446 2.5 21.25C2.5 20.2554 2.89509 19.3016 3.59835 18.5983C4.30161 17.8951 5.25544 17.5 6.25 17.5V25ZM23.75 25V17.5C24.7446 17.5 25.6984 17.8951 26.4017 18.5983C27.1049 19.3016 27.5 20.2554 27.5 21.25C27.5 22.2446 27.1049 23.1984 26.4017 23.9017C25.6984 24.6049 24.7446 25 23.75 25Z" fill="#9D0191"/>
</svg>
