<svg width="30" height="30" viewBox="0 0 30 30" fill="none" xmlns="http://www.w3.org/2000/svg">
<g clip-path="url(#clip0_2_440)">
<path d="M15 15C15.9889 15 16.9556 14.7068 17.7778 14.1573C18.6001 13.6079 19.2409 12.827 19.6194 11.9134C19.9978 10.9998 20.0968 9.99445 19.9039 9.02455C19.711 8.05464 19.2348 7.16373 18.5355 6.46447C17.8363 5.7652 16.9453 5.289 15.9754 5.09607C15.0055 4.90315 14.0002 5.00216 13.0866 5.3806C12.1729 5.75904 11.392 6.3999 10.8426 7.22215C10.2932 8.0444 9.99998 9.01109 9.99998 10C9.99998 11.3261 10.5268 12.5979 11.4645 13.5355C12.4021 14.4732 13.6739 15 15 15ZM15 7.5C15.4944 7.5 15.9778 7.64662 16.3889 7.92133C16.8 8.19603 17.1205 8.58648 17.3097 9.04329C17.4989 9.50011 17.5484 10.0028 17.452 10.4877C17.3555 10.9727 17.1174 11.4181 16.7678 11.7678C16.4181 12.1174 15.9727 12.3555 15.4877 12.452C15.0028 12.5484 14.5001 12.4989 14.0433 12.3097C13.5865 12.1205 13.196 11.8 12.9213 11.3889C12.6466 10.9778 12.5 10.4945 12.5 10C12.5 9.33696 12.7634 8.70107 13.2322 8.23223C13.7011 7.76339 14.3369 7.5 15 7.5ZM25.825 11.4463L24.9262 11.1475C25.088 9.74741 24.9519 8.32893 24.527 6.98511C24.1021 5.64128 23.3979 4.40245 22.4606 3.34986C21.5233 2.29727 20.3741 1.4547 19.0884 0.877392C17.8027 0.300084 16.4094 0.00108435 15 0C13.5722 0.000551212 12.1611 0.307118 10.8618 0.899044C9.56243 1.49097 8.40506 2.35451 7.46764 3.43147C6.53021 4.50843 5.83449 5.77381 5.42737 7.14234C5.02024 8.51087 4.91117 9.95076 5.10748 11.365C3.91127 11.588 2.80514 12.1524 1.92248 12.99C1.31145 13.5709 0.825691 14.2707 0.495076 15.0463C0.164462 15.8219 -0.00402327 16.6569 -2.19189e-05 17.5V22.5938C0.00260508 23.9454 0.442218 25.26 1.25322 26.3413C2.06422 27.4227 3.20312 28.2128 4.49998 28.5938L8.08748 29.7188C8.69006 29.9063 9.31765 30.0011 9.94874 30C10.5212 29.9993 11.091 29.9211 11.6425 29.7675L18.8675 27.63C19.5111 27.4543 20.1901 27.4543 20.8337 27.63L23.8175 28.63C24.5529 28.809 25.3193 28.8187 26.059 28.6584C26.7986 28.4981 27.4923 28.172 28.0876 27.7047C28.6829 27.2373 29.1643 26.6409 29.4956 25.9604C29.8269 25.2799 29.9993 24.5331 30 23.7763V17.34C29.9972 16.0468 29.5944 14.7861 28.847 13.7307C28.0995 12.6753 27.044 11.8769 25.825 11.445V11.4463ZM9.69748 4.7025C10.3928 4.00436 11.2191 3.4504 12.1291 3.07241C13.039 2.69443 14.0147 2.49985 15 2.49985C15.9853 2.49985 16.9609 2.69443 17.8709 3.07241C18.7808 3.4504 19.6072 4.00436 20.3025 4.7025C21.7052 6.11393 22.4936 8.02227 22.4962 10.0122C22.4988 12.0021 21.7153 13.9124 20.3162 15.3275L15.875 19.6463C15.6432 19.8735 15.3315 20.0008 15.0069 20.0008C14.6822 20.0008 14.3705 19.8735 14.1387 19.6463L9.69748 15.3463C8.29182 13.9317 7.50287 12.0186 7.50287 10.0244C7.50287 8.0302 8.29182 6.11701 9.69748 4.7025ZM27.5 23.7763C27.5008 24.1549 27.4151 24.5286 27.2496 24.8691C27.0842 25.2097 26.8432 25.5079 26.545 25.7413C26.2633 25.9678 25.9351 26.1294 25.5838 26.2148C25.2325 26.3001 24.8668 26.307 24.5125 26.235L21.5812 25.25C20.4725 24.9315 19.2974 24.9245 18.185 25.23L10.955 27.365C10.2603 27.5566 9.52518 27.544 8.83748 27.3288L5.21998 26.2038C4.43705 25.9773 3.74868 25.5031 3.25823 24.8521C2.76778 24.2012 2.50171 23.4088 2.49998 22.5938V17.5C2.49717 16.9947 2.59774 16.4942 2.79551 16.0293C2.99328 15.5643 3.28406 15.1447 3.64998 14.7963C4.2228 14.2503 4.9525 13.8979 5.73623 13.7888C6.24011 15.0377 6.99046 16.1724 7.94248 17.125L12.4012 21.4413C13.0981 22.1236 14.0346 22.5058 15.01 22.5058C15.9853 22.5058 16.9219 22.1236 17.6187 21.4413L22.0725 17.1125C23.0697 16.1113 23.8422 14.9092 24.3387 13.5863L25.01 13.8088C25.738 14.0696 26.3677 14.5487 26.8133 15.1807C27.259 15.8126 27.4988 16.5667 27.5 17.34V23.7763Z" fill="#9D0191"/>
</g>
<defs>
<clipPath id="clip0_2_440">
<rect width="30" height="30" fill="white"/>
</clipPath>
</defs>
</svg>
