<svg width="30" height="30" viewBox="0 0 30 30" fill="none" xmlns="http://www.w3.org/2000/svg">
<g clip-path="url(#clip0_2_445)">
<path d="M23.2262 2.675L15.395 0.0637458C15.1386 -0.0216555 14.8614 -0.0216555 14.605 0.0637458L6.77375 2.675C5.52863 3.0886 4.44552 3.88407 3.67831 4.94838C2.91109 6.0127 2.4988 7.29173 2.5 8.60375V15C2.5 24.4537 14 29.675 14.4925 29.8925C14.6523 29.9635 14.8252 30.0002 15 30.0002C15.1748 30.0002 15.3477 29.9635 15.5075 29.8925C16 29.675 27.5 24.4537 27.5 15V8.60375C27.5012 7.29173 27.0889 6.0127 26.3217 4.94838C25.5545 3.88407 24.4714 3.0886 23.2262 2.675ZM25 15C25 21.8187 17.1012 26.2912 15 27.3612C12.8962 26.295 5 21.8362 5 15V8.60375C5.00007 7.81659 5.24784 7.04942 5.70821 6.41092C6.16857 5.77243 6.81818 5.29499 7.565 5.04625L15 2.5675L22.435 5.04625C23.1818 5.29499 23.8314 5.77243 24.2918 6.41092C24.7521 7.04942 24.9999 7.81659 25 8.60375V15Z" fill="#9D0191"/>
<path d="M19.125 10.3751L13.89 15.6251L11.085 12.7001C10.9724 12.577 10.8364 12.4777 10.6848 12.408C10.5333 12.3383 10.3693 12.2997 10.2026 12.2944C10.0359 12.289 9.8698 12.3171 9.71412 12.3769C9.55843 12.4368 9.41629 12.5272 9.29607 12.6428C9.17586 12.7584 9.08 12.897 9.01415 13.0502C8.9483 13.2034 8.91378 13.3683 8.91263 13.5351C8.91148 13.7019 8.94372 13.8672 9.00745 14.0214C9.07119 14.1755 9.16513 14.3153 9.28374 14.4326L12.1662 17.4326C12.3812 17.6648 12.641 17.851 12.93 17.9799C13.219 18.1088 13.5311 18.1778 13.8475 18.1826H13.8887C14.1988 18.1836 14.506 18.1231 14.7925 18.0044C15.0789 17.8857 15.339 17.7113 15.5575 17.4914L20.8975 12.1513C21.0141 12.035 21.1067 11.8967 21.1699 11.7446C21.2331 11.5924 21.2657 11.4293 21.2659 11.2645C21.2661 11.0998 21.2338 10.9366 21.1709 10.7843C21.108 10.632 21.0157 10.4936 20.8994 10.377C20.783 10.2603 20.6448 10.1678 20.4926 10.1046C20.3404 10.0413 20.1773 10.0087 20.0126 10.0085C19.8478 10.0084 19.6846 10.0407 19.5323 10.1035C19.38 10.1664 19.2416 10.2587 19.125 10.3751Z" fill="#9D0191"/>
</g>
<defs>
<clipPath id="clip0_2_445">
<rect width="30" height="30" fill="white"/>
</clipPath>
</defs>
</svg>
