<?xml version="1.0" encoding="utf-8"?>
<!-- Generator: Adobe Illustrator 27.5.0, SVG Export Plug-In . SVG Version: 6.00 Build 0)  -->
<svg version="1.1" id="Layer_1" xmlns="http://www.w3.org/2000/svg" xmlns:xlink="http://www.w3.org/1999/xlink" x="0px" y="0px"
	 viewBox="0 0 3000 2000" style="enable-background:new 0 0 3000 2000;" xml:space="preserve">
<g>
	<rect style="fill:#FFFFFF;" width="3000" height="2000"/>
	<path style="fill:#EBF3FA;" d="M298.37,1567.641c0,0-363.623-295.304-151.144-628.696
		C284.341,723.802,698.997,706.403,919.13,837.755c93.759,55.944,323.077,239.045,512.531-179.562
		c221.444-489.291,1508.807-134.841,1264.445,391.067c-149.329,321.381,424.108,228.497,149.458,518.381H298.37z"/>
	<g>
		<g>
			<g>
				<g>
					<g>
						<path style="fill:#FCECDB;" d="M2293.939,1189.79v196.871c0,12.08,9.883,21.968,21.968,21.968h117.017
							c3.131,0,6.111-0.662,8.816-1.861c7.725-3.411,13.15-11.157,13.15-20.106V1189.79c0-12.085-9.887-21.968-21.967-21.968
							h-117.017C2303.822,1167.822,2293.939,1177.705,2293.939,1189.79z"/>
						<path style="fill:#F7E0CB;" d="M2345.775,1241.855c12.367-4.645,18.622-18.431,13.98-30.792
							c-4.642-12.362-18.424-18.625-30.792-13.981c-12.362,4.643-18.622,18.431-13.98,30.793
							C2319.625,1240.236,2333.413,1246.496,2345.775,1241.855z"/>
						<path style="fill:#EFCBAB;" d="M2314.983,1227.875l44.772-16.812c-4.642-12.362-18.424-18.625-30.792-13.981
							C2316.602,1201.725,2310.342,1215.513,2314.983,1227.875z"/>
						<path style="fill:#F7E0CB;" d="M2426.583,1237.992c10.234-8.354,11.753-23.417,3.402-33.646s-23.411-11.756-33.646-3.401
							c-10.229,8.35-11.752,23.416-3.402,33.646C2401.288,1244.819,2416.354,1246.343,2426.583,1237.992z"/>
						<path style="fill:#EFCBAB;" d="M2392.938,1234.591l37.048-30.244c-8.351-10.229-23.411-11.756-33.646-3.401
							C2386.111,1209.295,2384.588,1224.361,2392.938,1234.591z"/>
					</g>
				</g>
				<path style="opacity:0.5;fill:#EFCBAB;" d="M2293.939,1203.803v182.858c0,12.08,9.883,21.968,21.968,21.968h117.017
					c3.131,0,6.111-0.662,8.816-1.861v-177.651c0-7.266-3.103-13.842-8.05-18.468c-1.827-1.712-3.908-3.158-6.183-4.273
					c-3.352-1.646-7.111-2.572-11.081-2.572H2293.939z"/>
			</g>
			<g>
				<g>
					<path style="fill:#FCECDB;" d="M2286.377,1217.839h117.018c12.082,0,21.968,9.886,21.968,21.968v196.871
						c0,12.082-9.886,21.968-21.968,21.968h-117.018c-12.081,0-21.967-9.886-21.967-21.968v-196.871
						C2264.41,1227.725,2274.296,1217.839,2286.377,1217.839z"/>
					<path style="fill:#F7E0CB;" d="M2316.246,1291.873c12.367-4.644,18.621-18.43,13.98-30.792
						c-4.642-12.361-18.424-18.624-30.792-13.98c-12.362,4.642-18.622,18.431-13.98,30.792S2303.884,1296.515,2316.246,1291.873z"/>
					<path style="fill:#EFCBAB;" d="M2285.454,1277.893l44.772-16.812c-4.642-12.361-18.424-18.624-30.792-13.98
						C2287.072,1251.742,2280.813,1265.531,2285.454,1277.893z"/>
					<path style="fill:#F7E0CB;" d="M2397.055,1288.011c10.233-8.354,11.751-23.417,3.401-33.646
						c-8.351-10.229-23.411-11.757-33.646-3.402c-10.229,8.351-11.752,23.417-3.402,33.646
						C2371.759,1294.837,2386.825,1296.36,2397.055,1288.011z"/>
					<path style="fill:#EFCBAB;" d="M2363.408,1284.609l37.048-30.244c-8.351-10.229-23.411-11.757-33.646-3.402
						C2356.582,1259.313,2355.059,1274.38,2363.408,1284.609z"/>
				</g>
			</g>
			<g>
				<rect x="2282.522" y="1296.367" style="fill:#E58435;" width="183.786" height="274.279"/>
				<rect x="2256.922" y="1296.366" style="fill:#F1A34F;" width="183.786" height="274.28"/>
				<polygon style="fill:#CE732E;" points="2440.708,1312.283 2449.516,1325.98 2466.309,1325.98 2466.309,1296.367 
					2440.71,1296.367 				"/>
				<polygon style="fill:#F1A34F;" points="2466.309,1296.367 2482.007,1317.975 2456.408,1317.975 2440.71,1296.367 				"/>
				<polygon style="opacity:0.5;fill:#EFCBAB;" points="2440.708,1308.865 2440.708,1571.521 2345.918,1571.521 2345.918,1317.975 
									"/>
				<g>
					<polygon style="fill:#EB9342;" points="2256.922,1317.975 2271.834,1325.98 2431.849,1325.98 2440.708,1312.283 
						2440.708,1296.366 					"/>
					<polygon style="fill:#F1A34F;" points="2256.924,1296.367 2440.71,1296.367 2427.727,1317.975 2243.94,1317.975 					"/>
				</g>
			</g>
			<g>
				<g>
					<g>
						<path style="fill:#FCECDB;" d="M2326.926,1409.735h196.872c12.082,0,21.968,9.886,21.968,21.968v117.017
							c0,12.082-9.886,21.968-21.968,21.968h-196.872c-12.082,0-21.968-9.886-21.968-21.968v-117.017
							C2304.958,1419.621,2314.844,1409.735,2326.926,1409.735z"/>
						<path style="fill:#F7E0CB;" d="M2471.731,1461.571c4.644,12.368,18.431,18.622,30.792,13.98s18.625-18.424,13.98-30.792
							c-4.642-12.361-18.431-18.622-30.792-13.98S2467.09,1449.21,2471.731,1461.571z"/>
						<path style="fill:#EFCBAB;" d="M2485.712,1430.779l16.812,44.772c12.361-4.642,18.625-18.424,13.98-30.792
							C2511.862,1432.398,2498.073,1426.138,2485.712,1430.779z"/>
						<path style="fill:#F7E0CB;" d="M2475.594,1542.379c8.354,10.234,23.417,11.752,33.646,3.402
							c10.229-8.351,11.757-23.411,3.401-33.646c-8.35-10.229-23.416-11.752-33.645-3.401
							C2468.768,1517.084,2467.244,1532.15,2475.594,1542.379z"/>
						<path style="fill:#EFCBAB;" d="M2478.996,1508.734l30.243,37.047c10.229-8.351,11.757-23.411,3.401-33.646
							C2504.291,1501.907,2489.225,1500.384,2478.996,1508.734z"/>
						<path style="fill:#F7E0CB;" d="M2325.862,1461.571c4.644,12.368,18.431,18.622,30.792,13.98s18.625-18.424,13.98-30.792
							c-4.642-12.361-18.43-18.622-30.792-13.98C2327.481,1435.421,2321.221,1449.21,2325.862,1461.571z"/>
						<path style="fill:#EFCBAB;" d="M2339.837,1430.779l16.812,44.772c12.361-4.642,18.625-18.424,13.98-30.792
							C2365.987,1432.398,2352.199,1426.138,2339.837,1430.779z"/>
						<path style="fill:#F7E0CB;" d="M2329.727,1542.379c8.065,9.883,22.387,11.638,32.573,4.218
							c0.364-0.254,0.718-0.53,1.071-0.816c10.23-8.348,11.754-23.409,3.4-33.646c-8.348-10.229-23.414-11.754-33.645-3.4
							c-0.348,0.287-0.685,0.574-1.016,0.878C2322.803,1518.104,2321.66,1532.497,2329.727,1542.379z"/>
						<path style="fill:#EFCBAB;" d="M2332.111,1509.612l30.188,36.984c0.364-0.254,0.718-0.53,1.071-0.816
							c10.23-8.348,11.754-23.409,3.4-33.646c-8.348-10.229-23.414-11.754-33.645-3.4
							C2332.779,1509.021,2332.442,1509.309,2332.111,1509.612z"/>
						<g>
							<path style="fill:#F7E0CB;" d="M2396.859,1442.925c-5.658,11.938-0.564,26.194,11.367,31.849
								c11.933,5.655,26.191,0.571,31.85-11.367c5.655-11.932,0.564-26.194-11.367-31.849
								C2416.776,1425.902,2402.515,1430.992,2396.859,1442.925z"/>
							<path style="fill:#EFCBAB;" d="M2428.709,1431.558l-20.482,43.216c11.933,5.655,26.191,0.571,31.85-11.367
								C2445.731,1451.475,2440.641,1437.212,2428.709,1431.558z"/>
						</g>
						<path style="fill:#F7E0CB;" d="M2427.354,1549.457c12.265-4.908,18.221-18.826,13.314-31.085s-18.82-18.224-31.086-13.314
							c-12.259,4.906-18.221,18.826-13.314,31.086C2401.174,1548.402,2415.094,1554.364,2427.354,1549.457z"/>
						<path style="fill:#EFCBAB;" d="M2396.268,1536.144l44.4-17.771c-4.906-12.259-18.82-18.224-31.086-13.314
							C2397.323,1509.964,2391.361,1523.884,2396.268,1536.144z"/>
					</g>
				</g>
				<path style="fill:#B5453C;" d="M2567.565,1307.254c6.759-3.397,12.296-15.822,11.71-18.043c-0.068-0.259-0.386-0.957-0.889-1.98
					l-32.14-13.597c0,0,3.448-20.095,13.728-22.834c0.295-3.915,2.355-12.407,14.69-12.407c0,0-4.856,1.318-7.368,3.953
					c0,0,10.223-6.002,21.347,3.22s4.212,32.35,7.595,36.74c3.383,4.392,16.558,5.27,14.947,19.469
					c-1.61,14.198-41.811,31.981-39.229,43.729c0,0-14.758-21.694-5.492-32.671c-1.61,1.818-4.64,5.78-5.047,10.264
					C2561.418,1323.097,2559.928,1311.094,2567.565,1307.254z M2567.468,1311.776c0,0-0.099,0.093-0.266,0.264
					C2567.29,1311.952,2567.376,1311.862,2567.468,1311.776z"/>
				<path style="fill:#2B478B;" d="M2604.973,1562.909l7.97-1.171c0,0,26.792-21.292,30.782-61.021
					c0.407-4.043,0.492-8.147,0.19-12.284c-0.035-0.478,0.018-0.954,0.278-1.355c0-0.003,0.003-0.006,0.009-0.012
					c0.857-1.314,2.992-4.607,5.881-9.292c2.849-4.613,7.724-13.337,13.086-23.127c9.661-17.63,20.909-38.714,24.768-45.43
					c12.292-21.403,6.367-35.795,6.367-35.795s-34.294-3.39-43.69-11.61l-3.384,5.217c0,0-7.431,32.894-7.079,33.046
					c-0.366,1.118-0.738,2.257-1.115,3.417c-5.864,18.098-12.609,40.719-16.286,59.142c-2.067,10.366-3.161,19.397-2.573,25.552
					c0.202,2.11-0.044,5.354-0.605,9.358C2616.25,1521.15,2604.973,1562.909,2604.973,1562.909z"/>
				<path style="fill:#233862;" d="M2588.258,1572.99h33.245c0,0,0.797-5.066-0.939-8.91c-1.664-3.688-4.036-3.806-0.303-9.588
					c-2.112,2.175-8.903,3.075-13.71,2.429c-0.588,0.954-3.797,7.359-5.764,8.773
					C2598.615,1567.255,2588.928,1566.698,2588.258,1572.99z"/>
				<path style="fill:#233862;" d="M2639.035,1403.491c2.903,16.017,9.763,42.671,24.134,51.155
					c9.661-17.63,20.909-38.714,24.768-45.43c12.292-21.403,6.367-35.795,6.367-35.795s-34.294-3.39-43.69-11.61l-3.384,5.217
					c0,0-7.431,32.894-7.079,33.046C2639.784,1401.192,2639.412,1402.331,2639.035,1403.491z"/>
				<path style="fill:#2B478B;" d="M2662.351,1375.896l-0.112-6.218c12.388,1.563,42.715-14.804,42.715-14.804
					s12.961,8.62,14.734,33.237c0.866,12.016,6.345,62.831,6.951,78.005c0.221,5.499,0.294,9.424,0.319,10.992
					c-0.003,0.008-0.003,0.012-0.002,0.016c0.007,0.479,0.231,0.9,0.526,1.28c2.563,3.257,4.787,6.709,6.713,10.289
					c18.904,35.171,9.018,82.962,9.018,82.962l-4.39-1.116c0,0-15.983-49.543-26.431-70.973c-1.772-3.635-3.383-6.461-4.73-8.099
					c-3.928-4.771-8.07-12.872-12.152-22.623c-7.717-18.434-15.209-42.758-20.553-61.593
					C2674.58,1407.321,2662.351,1375.896,2662.351,1375.896z"/>
				<path style="fill:#ED985F;" d="M2490.331,1405.546c0.878-0.396,9.013,1.562,9.013,1.562s5.23-1.868,11.036-5.561
					c11.991-7.627,29.836-20.394,32.947-22.02c5.34-2.791,21.628-39.451,33.095-59.479c6.039-10.55,21.854-9.274,25.783,2.229
					c0.706,2.068,0.944,4.318,0.475,6.73c-2.604,13.36-40.196,58.979-44.682,62.757c-8.167,6.878-50.795,18.326-50.795,18.326
					c-0.979,0.291-1.357,1.749-1.876,2.281c-1.202,1.229-2.098,1.437-2.098,1.437l0,0c0,0-0.001,0.001-0.001,0.002
					c0,0-5.272,0.332-6.822,0.952l-1.621,0.583c0,0-0.619-1.101,0.902-1.834c0.367-0.177,1.032-0.516,1.691-1l-2.221-0.492
					c-0.195-0.043-0.386-0.103-0.568-0.184c-1.222-0.547-2.376-1.266-3.75-1.518c-1.396-0.258-2.874-0.115-3.938-0.195
					c-1.084-0.081-5.932-1.246-5.932-1.246C2480.752,1408.423,2488.766,1406.258,2490.331,1405.546z"/>
				<path style="fill:#FFB27D;" d="M2589.855,1334.396c20.252-4.647,7.313-33.105,6.14-32.604
					c-2.806-0.572-8.969-5.499-14.481-15.122l-0.745,0.646l-12.438,10.905c0,0,2.875,4.241,5.294,8.396
					c1.89,3.253,3.497,6.458,3.241,7.558C2575.864,1314.962,2584.453,1335.639,2589.855,1334.396z"/>
				<path style="fill:#91CECF;" d="M2577.725,1311.174c0,0-4.236,11.286-7.407,16.818c-3.171,5.531-12,23.403-12,23.403
					s7.151,13.043,20.607,15.355c0,0,9.642-9.62,9.36-20.3C2588.005,1335.772,2577.725,1311.174,2577.725,1311.174z"/>
				<path style="fill:#ED985F;" d="M2568.33,1298.225c0,0,2.877,4.236,5.294,8.396c7.733-4.768,7.742-14.342,7.146-19.302
					L2568.33,1298.225z"/>
				<path style="fill:#FFB27D;" d="M2567.985,1303.687c0,0,18.777-10.448,12.091-22.042c-6.688-11.594-8.767-20.75-21.038-14.568
					c-12.272,6.18-12.029,11.936-10.738,16.349C2549.59,1287.837,2562.929,1306.106,2567.985,1303.687z"/>
				<path style="fill:#B5453C;" d="M2545.127,1276.663c0.86-5.147,3.476-5.64,5.299-5.296c6.935-11.468,22.879-9.637,22.879-9.637
					c6.051,7.594,10.185,11.534,10.185,11.534s-2.179,4.055-11.156,6.564c-2.743,0.767-5.855,0.302-8.857-0.708
					c6.229,3.473,12.743,4.803,12.743,4.803c-11.832,1.083-23.088-9.733-24.256-10.891c-0.546,1.676-1.503,5.186-0.93,7.751
					c0.778,3.487,3.873,9.802,1.984,10.619C2553.018,1291.403,2543.838,1284.383,2545.127,1276.663z"/>
				<path style="fill:#233862;" d="M2716.776,1572.99h33.245c0,0,0.797-5.066-0.939-8.91c-1.664-3.688-4.271-5.365-3.646-9.828
					c-2.112,2.176-5.555,4.611-10.361,3.965c-0.589,0.954-3.802,6.063-5.769,7.478
					C2727.133,1567.255,2717.445,1566.698,2716.776,1572.99z"/>
				<path style="fill:#ABDDDA;" d="M2587.471,1356.958c4.279,1.491,10.281,2.313,16.422,2.978
					c8.742,0.955,17.769,1.605,22.496,3.494c0.924,0.366,3.612,1.491,6.307,3.442v0.005c0,0,0.066,0.041,0.186,0.139
					c0.893,0.651,1.785,1.404,2.605,2.251c1.254,1.29,2.349,2.797,3.051,4.526c1.734,4.283-0.563,16.157-2.033,22.65
					c-0.594,2.611,0.64,5.31,3.019,6.543c3.323,1.719,6.591,3.309,9.8,4.759c0.171,0.077,0.336,0.149,0.506,0.227
					c-0.03-0.66-0.041-1.315-0.041-1.955c-0.005-4.48,0.563-8.206,0.563-8.206c0.79,4.521,3.768,9.402,6.544,13.16
					c44.614,17.902,75.786,10.12,75.274,1.202c-1.76-30.965-22.641-57.3-22.641-57.3c-38.942-45.285-117.716-57.207-117.716-57.207
					s-3.772-0.454-8.324,5.017c-6.549,7.881-6.874,9.935-6.874,9.935S2574.885,1352.566,2587.471,1356.958z"/>
				<path style="fill:#91CECF;" d="M2603.896,1359.936c8.741,0.954,17.767,1.606,22.494,3.492
					c1.933-28.871-11.692-50.588-11.692-50.588S2605.811,1349.01,2603.896,1359.936z"/>
				<path style="fill:#91CECF;" d="M2636.504,1396.443c-0.594,2.611,0.64,5.31,3.019,6.543c3.323,1.719,6.591,3.309,9.8,4.759
					c0.171-0.548,0.326-1.12,0.465-1.729c0.506-2.261,0.738-4.965,0.563-8.206c-0.743-13.707-10.078-24.085-14.863-28.544
					c1.254,1.29,2.349,2.797,3.051,4.526C2640.271,1378.076,2637.975,1389.95,2636.504,1396.443z"/>
				<path style="fill:#91CECF;" d="M2591.812,1297.666c0,0-3.43-4.336-5.748-4.195c0,0-9.375,13.124-9.45,19.146
					C2576.613,1312.617,2588.306,1297.058,2591.812,1297.666z"/>
				<path style="fill:#FFB27D;" d="M2540.914,1456.713c0.412-1.164,2.917-9.285,5.613-10.181c2.697-0.896,6.061-4.393,6.061-4.393
					s21.416-43.778,24.934-47.994c5.521-6.618,5.443-82.151,12.451-87.65c0,0,22.012,0.438,24.88,14.492
					s-15.271,73.646-18.108,79.136c-5.165,9.995-37.43,45.402-37.43,45.402c-3.775,5.903-2.415,5.988-3.822,11.549
					c-1.407,5.563-10.154,8.431-11.641,8.716c-1.487,0.284-0.44-2.397,1.413-5.479c1.854-3.08,2.024-8.377,1.626-8.765
					c-0.397-0.389-1.192,0.429-2.291,2.444C2543.5,1456.006,2540.503,1457.878,2540.914,1456.713z"/>
				<path style="fill:#ABDDDA;" d="M2580.917,1334.489c0,0-5.125-36.415,23.58-29.773c28.704,6.643,1.306,72.129,1.306,72.129
					s-16.502,0.482-23.461-13.401L2580.917,1334.489z"/>
			</g>
			<g>
				<path style="fill:#2B478B;" d="M2269.094,1558.212c0,3.418,1.398,6.524,3.654,8.78c2.255,2.254,5.361,3.654,8.779,3.654h58.717
					c6.837,0,12.43-5.598,12.43-12.435c0-3.419-1.399-6.525-3.65-8.78c-2.254-2.251-5.361-3.65-8.779-3.65h-58.717
					C2274.691,1545.781,2269.094,1551.374,2269.094,1558.212z"/>
				<path style="fill:#699FF0;" d="M2299.383,1558.212c0,3.418,1.399,6.524,3.65,8.78c2.255,2.254,5.361,3.654,8.78,3.654h28.431
					c6.837,0,12.43-5.598,12.43-12.435c0-3.419-1.399-6.525-3.65-8.78c-2.254-2.251-5.361-3.65-8.779-3.65h-28.431
					C2304.977,1545.781,2299.383,1551.374,2299.383,1558.212z"/>
				<path style="opacity:0.4;fill:#E9F3FE;" d="M2280.533,1548.538h56.007c0.969,0,1.762,0.793,1.762,1.763v0.396
					c0,0.969-0.793,1.762-1.762,1.762h-56.007c-0.969,0-1.762-0.793-1.762-1.762v-0.396
					C2278.771,1549.331,2279.564,1548.538,2280.533,1548.538z"/>
			</g>
			<g>
				<path style="fill:#E58435;" d="M2319.197,1522.994c-1.623,3.24-1.772,6.85-0.706,10.058c1.066,3.209,3.346,6.011,6.586,7.635
					l55.652,27.889c6.48,3.247,14.44,0.599,17.688-5.882c1.623-3.24,1.772-6.849,0.71-10.056c-1.067-3.204-3.348-6.006-6.588-7.63
					l-55.653-27.889C2330.407,1513.871,2322.445,1516.515,2319.197,1522.994z"/>
				<path style="fill:#F1A34F;" d="M2347.906,1537.381c-1.623,3.24-1.772,6.85-0.71,10.056c1.066,3.209,3.346,6.011,6.586,7.635
					l26.947,13.504c6.48,3.247,14.44,0.599,17.688-5.882c1.623-3.24,1.772-6.849,0.71-10.056c-1.067-3.204-3.348-6.006-6.588-7.63
					l-26.948-13.504C2359.112,1528.256,2351.154,1530.901,2347.906,1537.381z"/>
				<path style="opacity:0.5;fill:#FFE2CC;" d="M2331.939,1520.469l0.188-0.376c0.461-0.919,1.589-1.294,2.507-0.833l53.085,26.602
					c0.919,0.461,1.294,1.588,0.833,2.507l-0.188,0.377c-0.461,0.919-1.589,1.293-2.507,0.833l-53.085-26.602
					C2331.854,1522.516,2331.479,1521.388,2331.939,1520.469z"/>
			</g>
		</g>
		<g>
			<polygon style="fill:#DB6161;" points="1704.651,838.339 965.243,838.339 965.243,1400.043 1705.139,1400.043 			"/>
			<polygon style="fill:#233862;" points="1677.412,857.568 847.745,857.568 847.745,1400.043 1677.533,1400.043 			"/>
			<g>
				<g>
					<g>
						<g>
							
								<rect x="1275.302" y="1296.386" transform="matrix(-1 -1.224647e-16 1.224647e-16 -1 2652.8418 2696.4287)" style="fill:#E69D43;" width="102.238" height="103.657"/>
							<polygon style="fill:#E78B37;" points="1275.302,1400.043 1377.54,1400.043 1377.54,1296.386 1354.645,1296.386 							"/>
							
								<rect x="1373.285" y="1296.386" transform="matrix(-1 -1.224647e-16 1.224647e-16 -1 2808.4453 2696.4287)" style="fill:#D57912;" width="61.876" height="103.657"/>
						</g>
					</g>
				</g>
			</g>
			<g>
				<g>
					<g>
						<g>
							
								<rect x="1269.874" y="1166.148" transform="matrix(-1 -1.224647e-16 1.224647e-16 -1 2709.2896 2463.9531)" style="fill:#E69D43;" width="169.542" height="131.656"/>
							<polygon style="fill:#E78B37;" points="1269.874,1297.805 1439.416,1297.805 1439.416,1166.148 1407.605,1166.148 							"/>
							
								<rect x="1435.161" y="1166.148" transform="matrix(-1 -1.224647e-16 1.224647e-16 -1 2917.1279 2463.9531)" style="fill:#D57912;" width="46.807" height="131.656"/>
						</g>
					</g>
				</g>
			</g>
			<path style="fill:#B65615;" d="M556.376,1439.252H338.059c-5.306,0-9.647-4.341-9.647-9.646v-86.1
				c0-5.306,4.341-9.646,9.647-9.646h218.317c5.306,0,9.646,4.341,9.646,9.646v86.1
				C566.023,1434.911,561.682,1439.252,556.376,1439.252z"/>
			
				<ellipse transform="matrix(0.1196 -0.9928 0.9928 0.1196 -363.9094 2537.749)" style="fill:#233862;" cx="1248.927" cy="1474.061" rx="95.248" ry="95.249"/>
			
				<ellipse transform="matrix(0.1803 -0.9836 0.9836 0.1803 -165.5486 2749.4729)" style="fill:#233862;" cx="1566.83" cy="1474.061" rx="95.248" ry="95.249"/>
			
				<ellipse transform="matrix(0.2325 -0.9726 0.9726 0.2325 -1120.7173 1527.9855)" style="fill:#233862;" cx="407.748" cy="1474.061" rx="95.248" ry="95.249"/>
			<path style="fill:#F59040;" d="M359.674,1474.061c0-26.551,21.523-48.073,48.074-48.073s48.074,21.522,48.074,48.073
				s-21.523,48.074-48.074,48.074S359.674,1500.611,359.674,1474.061z"/>
			<path style="fill:#D36E2A;" d="M439.748,1438.195c2.701,6.009,4.215,12.666,4.215,19.681c0,26.55-21.523,48.074-48.073,48.074
				c-12.292,0-23.5-4.62-32-12.209c7.521,16.733,24.323,28.394,43.858,28.394c26.55,0,48.074-21.523,48.074-48.074
				C455.821,1459.802,449.608,1446.999,439.748,1438.195z"/>
			<path style="fill:#B65615;" d="M392.845,1474.061c0-8.23,6.672-14.902,14.903-14.902c8.23,0,14.903,6.672,14.903,14.902
				s-6.672,14.903-14.903,14.903C399.517,1488.964,392.845,1482.291,392.845,1474.061z"/>
			<path style="fill:#B65615;" d="M376.62,1499.6c0-3.186,2.582-5.769,5.769-5.769c3.186,0,5.769,2.583,5.769,5.769
				c0,3.187-2.583,5.77-5.769,5.77C379.203,1505.369,376.62,1502.786,376.62,1499.6z"/>
			<path style="fill:#B65615;" d="M369.89,1456.754c0-3.186,2.583-5.769,5.769-5.769c3.186,0,5.769,2.583,5.769,5.769
				c0,3.187-2.582,5.77-5.769,5.77C372.472,1462.523,369.89,1459.94,369.89,1456.754z"/>
			<path style="fill:#B65615;" d="M433.347,1456.754c0-3.186,2.583-5.769,5.769-5.769c3.186,0,5.769,2.583,5.769,5.769
				c0,3.187-2.583,5.77-5.769,5.77C435.93,1462.523,433.347,1459.94,433.347,1456.754z"/>
			<path style="fill:#B65615;" d="M428.54,1499.6c0-3.186,2.583-5.769,5.769-5.769s5.768,2.583,5.768,5.769
				c0,3.187-2.582,5.77-5.768,5.77S428.54,1502.786,428.54,1499.6z"/>
			<path style="fill:#B65615;" d="M401.978,1437.329c0-3.186,2.583-5.769,5.769-5.769c3.186,0,5.769,2.583,5.769,5.769
				c0,3.187-2.583,5.77-5.769,5.77C404.561,1443.099,401.978,1440.516,401.978,1437.329z"/>
			<path style="fill:#D36E2A;" d="M1199.079,1474.061c0-26.551,21.523-48.073,48.074-48.073c26.551,0,48.074,21.522,48.074,48.073
				s-21.523,48.074-48.074,48.074C1220.602,1522.135,1199.079,1500.611,1199.079,1474.061z"/>
			<path style="fill:#B65615;" d="M1232.25,1474.061c0-8.23,6.672-14.902,14.903-14.902c8.231,0,14.903,6.672,14.903,14.902
				s-6.672,14.903-14.903,14.903C1238.922,1488.964,1232.25,1482.291,1232.25,1474.061z"/>
			<path style="fill:#B65615;" d="M1216.025,1499.6c0-3.186,2.583-5.769,5.769-5.769s5.769,2.583,5.769,5.769
				c0,3.187-2.583,5.77-5.769,5.77S1216.025,1502.786,1216.025,1499.6z"/>
			<path style="fill:#B65615;" d="M1213.864,1456.754c0-3.186,2.583-5.769,5.769-5.769s5.769,2.583,5.769,5.769
				c0,3.187-2.583,5.77-5.769,5.77S1213.864,1459.94,1213.864,1456.754z"/>
			<path style="fill:#B65615;" d="M1267.944,1499.6c0-3.186,2.583-5.769,5.769-5.769s5.769,2.583,5.769,5.769
				c0,3.187-2.583,5.77-5.769,5.77S1267.944,1502.786,1267.944,1499.6z"/>
			<path style="fill:#B65615;" d="M1211.829,1437.329c0-3.186,2.583-5.769,5.769-5.769s5.769,2.583,5.769,5.769
				c0,3.187-2.583,5.77-5.769,5.77S1211.829,1440.516,1211.829,1437.329z"/>
			
				<ellipse transform="matrix(0.1224 -0.9925 0.9925 0.1224 -825.2142 2014.8461)" style="fill:#233862;" cx="726.737" cy="1474.061" rx="95.248" ry="95.249"/>
			<path style="fill:#D57912;" d="M406.692,959.756c0,0,14.427-78.601,123.493-78.601l1.595,84.347L406.692,959.756z"/>
			<path style="fill:#E69D43;" d="M711.156,1315.91H297.501l34.429-279.412c5.596-45.417,44.175-79.534,89.935-79.534h289.29
				V1315.91z"/>
			<path style="fill:#D57912;" d="M470.701,1145.107H354.704l15.365-110.327c3.164-22.72,22.593-39.63,45.532-39.63h58.692
				L470.701,1145.107z"/>
			<path style="fill:#DCE7F9;" d="M462.124,1136.81h-76.372c-11.525,0-20.414-10.148-18.898-21.573l10.135-76.334
				c2.677-20.163,19.114-35.17,38.521-35.17h49.654L462.124,1136.81z"/>
			<rect x="526.516" y="838.339" style="fill:#D15050;" width="795.637" height="561.704"/>
			<polygon style="fill:#B64C41;" points="1291.012,1378.74 555.734,1378.74 555.734,859.646 1291.971,859.646 1291.971,1279.307 
							"/>
			<path style="fill:#D57912;" d="M549.904,1315.91H297.501c-22.227,1.479-24.375,12.468-24.375,12.468l-21.582,104.39
				c0,3.566,3.279,6.484,7.287,6.484h63.461c4.008,0,6.899-2.936,8.609-6.652c0,0,9.765-12.064,16.315-16.382
				c16.407-10.817,34.219-17.909,60.531-17.909c32.353,0,60.933,10.291,78.147,26.019h64.008c7.726,0,14.047-4.032,14.047-8.96
				v-90.497C563.951,1319.942,557.63,1315.91,549.904,1315.91z"/>
			<path style="fill:#D15050;" d="M1391.862,1520.833h-79.991c-1.841-9.69-5.316-18.231-10.022-25.757
				c-24.185-38.76-80.736-50.605-112.95-54.226c-14.118-1.59-23.565-1.599-23.565-1.599h137.504
				c35.967,4.877,58.051,24.491,71.217,43.27C1387.821,1502.135,1391.862,1520.833,1391.862,1520.833z"/>
			<path style="fill:#D15050;" d="M1708.497,1520.833h-79.991c-2.092-11.028-6.313-20.575-12.034-28.818
				c-36.533-52.69-134.504-52.763-134.504-52.763h137.513c30.076,4.077,50.436,18.465,64.005,34.047
				C1703.091,1495.821,1708.497,1520.833,1708.497,1520.833z"/>
			<path style="fill:#A03C37;" d="M1374.054,1482.521c0,0-52.646-11.109-72.206,12.555c-24.185-38.76-80.736-50.605-112.95-54.226
				c-0.656-0.539-1.302-1.068-1.94-1.599h115.878C1338.804,1444.129,1360.888,1463.743,1374.054,1482.521z"/>
			<path style="fill:#A03C37;" d="M1683.485,1473.299c0,0.008,0,0.008,0,0.008s-44.032-0.987-67.014,18.708
				c-36.533-52.69-134.504-52.763-134.504-52.763h137.513C1649.557,1443.329,1669.916,1457.717,1683.485,1473.299z"/>
			<path style="fill:#A03C37;" d="M544.546,1454.521h1173.005c5.89,0,10.708-4.818,10.708-10.708v-33.062
				c0-5.889-4.818-10.708-10.708-10.708H544.546c-5.89,0-10.709,4.819-10.709,10.708v33.062
				C533.837,1449.702,538.656,1454.521,544.546,1454.521z"/>
			<path style="fill:#A03C37;" d="M811.665,1534.392H594.697c-5.677,0-10.322-4.646-10.322-10.321v-100.019
				c0-5.677,4.645-10.321,10.322-10.321h216.967c5.677,0,10.322,4.645,10.322,10.321v100.019
				C821.987,1529.746,817.342,1534.392,811.665,1534.392z"/>
			<path style="fill:#C44943;" d="M1291.971,1378.74H556.693l-0.959-519.095h162.181
				c40.207,118.581,184.437,399.861,574.057,420.921V1378.74z"/>
			<g>
				<path style="fill:#B64C41;" d="M305.027,1091.034c0,0-10.341,55.57-9.828,64.631c0.514,9.062,9.068,13.481,15.57,13.481
					L305.027,1091.034z"/>
				<path style="fill:#D57912;" d="M336.423,1169.146h-25.131c-3.675,0-6.682-3.007-6.682-6.682v-69.386
					c0-3.675,3.007-6.682,6.682-6.682h25.131c3.675,0,6.682,3.007,6.682,6.682v69.386
					C343.105,1166.14,340.098,1169.146,336.423,1169.146z"/>
				<path style="fill:#DCE7F9;" d="M334.495,1165.124h-19.906c-3.136,0-5.702-2.565-5.702-5.702v-62.686
					c0-3.136,2.566-5.702,5.702-5.702h19.906c3.136,0,5.702,2.566,5.702,5.702v62.686
					C340.196,1162.559,337.63,1165.124,334.495,1165.124z"/>
				<g>
					<path style="fill:#B64C41;" d="M323.857,1087.907c-0.709,0-1.283-0.675-1.283-1.51v-23.356c0-0.063,0.003-0.126,0.01-0.188
						c0.015-0.134,1.601-13.43,15.593-13c12.797,0.396,18.31,0.005,18.365,0.002c0.708-0.053,1.316,0.58,1.36,1.413
						c0.044,0.833-0.493,1.549-1.201,1.601c-0.226,0.017-5.68,0.403-18.592,0.003c-11.27-0.345-12.832,9.199-12.969,10.273v23.253
						C325.14,1087.232,324.566,1087.907,323.857,1087.907z"/>
				</g>
			</g>
			<path style="fill:#D57912;" d="M459.952,1181.065h-23.405c-3.277,0-5.959-2.682-5.959-5.959l0,0c0-3.278,2.682-5.96,5.959-5.96
				h23.405c3.278,0,5.96,2.682,5.96,5.96l0,0C465.912,1178.384,463.23,1181.065,459.952,1181.065z"/>
			<g>
				<g>
					<g>
						<g>
							
								<rect x="1407.605" y="1297.096" transform="matrix(-1 -1.224647e-16 1.224647e-16 -1 2917.4492 2696.4297)" style="fill:#E69D43;" width="102.238" height="102.238"/>
							<polygon style="fill:#E78B37;" points="1407.605,1400.043 1509.844,1400.043 1509.844,1297.096 1488.105,1297.096 
								1407.605,1376.794 							"/>
							
								<rect x="1505.589" y="1297.096" transform="matrix(-1 -1.224647e-16 1.224647e-16 -1 3057.9844 2697.1387)" style="fill:#D57912;" width="46.807" height="102.947"/>
						</g>
					</g>
				</g>
			</g>
			<g>
				<path style="fill:#FFFFFF;" d="M734.484,1087.225c4.505,0,8.417,0.593,11.737,1.78c3.318,1.188,6.089,2.878,8.312,5.069
					c2.222,2.192,3.928,4.842,5.116,7.947c1.187,3.105,1.902,6.576,2.146,10.412c0.243,4.508,0.243,9.013,0,13.519
					c-0.244,3.837-0.959,7.308-2.146,10.413c-1.188,3.105-2.877,5.754-5.07,7.946c-2.192,2.192-4.918,3.882-8.175,5.069
					c-3.258,1.188-7.079,1.781-11.463,1.781h-23.018c-0.671,0-1.249-0.242-1.735-0.73c-0.488-0.486-0.731-1.064-0.731-1.735v-59.006
					c0-0.669,0.242-1.247,0.731-1.735c0.486-0.487,1.065-0.73,1.735-0.73H734.484z M749.463,1112.434
					c-0.123-1.947-0.502-3.759-1.142-5.435c-0.639-1.674-1.584-3.136-2.832-4.384c-1.249-1.248-2.817-2.223-4.704-2.924
					c-1.888-0.699-4.142-1.05-6.759-1.05h-12.24v41.103h12.696c2.496,0,4.658-0.35,6.485-1.05c1.827-0.699,3.349-1.658,4.567-2.877
					c1.217-1.218,2.146-2.679,2.786-4.385c0.64-1.704,1.019-3.53,1.142-5.48C749.706,1121.446,749.706,1116.941,749.463,1112.434z"
					/>
				<path style="fill:#FFFFFF;" d="M816.324,1139.744c0.669,0,1.247,0.244,1.735,0.731c0.487,0.488,0.731,1.065,0.731,1.735v6.485
					c0,0.671-0.244,1.249-0.731,1.735c-0.488,0.488-1.066,0.73-1.735,0.73h-40.098c-0.671,0-1.249-0.242-1.736-0.73
					c-0.488-0.486-0.73-1.064-0.73-1.735v-59.006c0-0.669,0.243-1.247,0.73-1.735c0.487-0.487,1.065-0.73,1.736-0.73h39.367
					c0.669,0,1.247,0.243,1.736,0.73c0.486,0.488,0.73,1.066,0.73,1.735v6.485c0,0.67-0.244,1.248-0.73,1.735
					c-0.488,0.488-1.066,0.73-1.736,0.73h-29.503v14.523h27.493c0.669,0,1.247,0.243,1.735,0.73
					c0.487,0.488,0.731,1.065,0.731,1.735v6.485c0,0.671-0.244,1.249-0.731,1.735c-0.488,0.488-1.066,0.73-1.735,0.73h-27.493
					v15.162H816.324z"/>
				<path style="fill:#FFFFFF;" d="M872.589,1139.744c0.669,0,1.247,0.244,1.735,0.731c0.487,0.488,0.731,1.065,0.731,1.735v6.485
					c0,0.671-0.244,1.249-0.731,1.735c-0.488,0.488-1.066,0.73-1.735,0.73h-40.007c-0.67,0-1.248-0.242-1.735-0.73
					c-0.488-0.486-0.731-1.064-0.731-1.735v-59.006c0-0.669,0.242-1.247,0.731-1.735c0.487-0.487,1.065-0.73,1.735-0.73h7.398
					c0.669,0,1.247,0.243,1.736,0.73c0.486,0.488,0.731,1.066,0.731,1.735v50.054H872.589z"/>
				<path style="fill:#FFFFFF;" d="M886.289,1151.162c-0.671,0-1.249-0.242-1.735-0.73c-0.488-0.486-0.73-1.064-0.73-1.735v-59.006
					c0-0.669,0.242-1.247,0.73-1.735c0.487-0.487,1.065-0.73,1.735-0.73h7.398c0.669,0,1.248,0.243,1.736,0.73
					c0.486,0.488,0.731,1.066,0.731,1.735v59.006c0,0.671-0.245,1.249-0.731,1.735c-0.488,0.488-1.066,0.73-1.736,0.73H886.289z"/>
				<path style="fill:#FFFFFF;" d="M933.602,1133.077l15.345-43.569c0.183-0.486,0.502-0.989,0.959-1.508
					c0.457-0.516,1.142-0.775,2.055-0.775h6.942c0.669,0,1.248,0.243,1.735,0.73c0.487,0.488,0.731,1.066,0.731,1.735
					c0,0.123,0,0.229,0,0.319c0,0.092-0.061,0.29-0.183,0.594l-20.46,57.453c-0.365,1.036-0.792,1.813-1.278,2.329
					c-0.489,0.519-1.219,0.776-2.192,0.776h-7.307c-0.975,0-1.706-0.258-2.192-0.776c-0.488-0.517-0.913-1.293-1.279-2.329
					l-20.46-57.453c-0.123-0.304-0.183-0.502-0.183-0.594c0-0.091,0-0.196,0-0.319c0-0.669,0.242-1.247,0.73-1.735
					c0.487-0.487,1.065-0.73,1.735-0.73h6.942c0.914,0,1.599,0.26,2.055,0.775c0.457,0.519,0.776,1.021,0.959,1.508
					L933.602,1133.077z"/>
				<path style="fill:#FFFFFF;" d="M1013.615,1139.744c0.669,0,1.248,0.244,1.735,0.731c0.487,0.488,0.731,1.065,0.731,1.735v6.485
					c0,0.671-0.244,1.249-0.731,1.735c-0.488,0.488-1.066,0.73-1.735,0.73h-40.098c-0.671,0-1.249-0.242-1.735-0.73
					c-0.488-0.486-0.731-1.064-0.731-1.735v-59.006c0-0.669,0.243-1.247,0.731-1.735c0.486-0.487,1.064-0.73,1.735-0.73h39.367
					c0.669,0,1.247,0.243,1.736,0.73c0.486,0.488,0.73,1.066,0.73,1.735v6.485c0,0.67-0.244,1.248-0.73,1.735
					c-0.488,0.488-1.066,0.73-1.736,0.73h-29.503v14.523h27.493c0.669,0,1.248,0.243,1.735,0.73
					c0.487,0.488,0.731,1.065,0.731,1.735v6.485c0,0.671-0.244,1.249-0.731,1.735c-0.488,0.488-1.066,0.73-1.735,0.73h-27.493
					v15.162H1013.615z"/>
				<path style="fill:#FFFFFF;" d="M1053.438,1087.225c7.611,0,13.396,1.767,17.354,5.297c3.958,3.532,5.937,8.436,5.937,14.706
					c0,4.445-1.02,8.236-3.06,11.372c-2.041,3.137-5.039,5.466-8.997,6.987l12.605,22.562c0.183,0.365,0.274,0.7,0.274,1.004
					c0,0.549-0.198,1.021-0.594,1.416c-0.396,0.396-0.868,0.594-1.416,0.594h-7.764c-1.219,0-2.117-0.288-2.694-0.867
					c-0.58-0.578-0.99-1.111-1.233-1.599l-11.965-21.282h-12.148v21.282c0,0.671-0.244,1.249-0.731,1.735
					c-0.488,0.488-1.066,0.73-1.736,0.73h-7.398c-0.671,0-1.249-0.242-1.735-0.73c-0.488-0.486-0.73-1.064-0.73-1.735v-59.006
					c0-0.669,0.242-1.247,0.73-1.735c0.487-0.487,1.064-0.73,1.735-0.73H1053.438z M1039.737,1115.996h13.244
					c3.471,0,6.241-0.607,8.312-1.826c2.07-1.218,3.106-3.531,3.106-6.942c0-3.409-1.036-5.693-3.106-6.851
					c-2.07-1.156-4.841-1.735-8.312-1.735h-13.244V1115.996z"/>
				<path style="fill:#FFFFFF;" d="M1134.823,1087.225c0.669,0,1.247,0.243,1.735,0.73c0.487,0.488,0.73,1.066,0.73,1.735
					c0,0.306-0.061,0.579-0.183,0.822l-21.647,38.089v20.095c0,0.671-0.244,1.249-0.731,1.735c-0.488,0.488-1.066,0.73-1.735,0.73
					h-7.308c-0.671,0-1.249-0.242-1.735-0.73c-0.488-0.486-0.731-1.064-0.731-1.735v-20.095l-21.647-38.089
					c-0.123-0.243-0.183-0.517-0.183-0.822c0-0.669,0.243-1.247,0.731-1.735c0.486-0.487,1.064-0.73,1.735-0.73h6.851
					c1.217,0,2.131,0.305,2.74,0.913c0.608,0.609,0.973,1.065,1.096,1.37l14.797,25.849l14.797-25.849
					c0.122-0.305,0.487-0.761,1.096-1.37c0.608-0.608,1.521-0.913,2.74-0.913H1134.823z"/>
			</g>
		</g>
		<g>
			<g>
				<path style="fill:#91CECF;" d="M1879.169,1320.793c1.99-4.306,0.917-6.613,0.917-6.613s-46.022-17.067-50.488-18.213
					c-3.043-0.779-37.553-15.143-54.83-25.191c-8.569-4.985-15.222,0.377-23.058,5.857l-6.453,4.513
					c-7.791,5.449-5.886,18.311,3.225,21.748c25.657,9.684,65.278,16.877,72.839,18.651c18.77,4.406,52.943,5.564,52.943,5.564
					S1877.461,1324.488,1879.169,1320.793z"/>
			</g>
			<g>
				<path style="fill:#FFB27D;" d="M2020.939,1320.188l-6.175,0.35c0,0-10.927-4.168-16.651,7.185c0,0-2.014,4.862,1.785,5.095
					c3.798,0.232,2.374-0.405,7.722,0.04c5.348,0.444,10.423-1.614,12.158-5.138l3.377-2.874L2020.939,1320.188z"/>
				<path style="fill:#91CECF;" d="M2016.406,1324.602c-1.322-4.249-1.009-4.925-1.009-4.925s37.727-20.283,41.183-22.341
					c3.455-2.058,42.49-43.401,42.49-43.401l39.857,11.073c0,0-61.831,46.867-70.688,51.908
					c-14.637,8.332-48.497,12.985-48.497,12.985S2017.444,1327.938,2016.406,1324.602z"/>
			</g>
			<g>
				<g>
					<path style="fill:#D57912;" d="M2059.809,1352.07l-156.162,33.241l-36.193-170.032l156.162-33.24L2059.809,1352.07z"/>
				</g>
			</g>
			<g>
				<g>
					<path style="fill:#E69D43;" d="M1993.278,1366.232l-114.271,24.323l-36.192-170.031l114.271-24.324L1993.278,1366.232z"/>
				</g>
			</g>
			<g>
				<g>
					<path style="fill:#E78B37;" d="M1993.278,1366.232l-114.271,24.323l-6.999-32.881l66.154-157.446l18.923-4.028
						L1993.278,1366.232z"/>
				</g>
			</g>
			<path style="fill:#233862;" d="M1912.195,1544.461c0,0,6.085,6.711,20.209,3.062c0,0,11.387-2.595,13.885,3.085
				c0,0-14.333,9.066-18.752,11.493c-3.331,1.828-6.807,4.715-9.264,6.946c-1.944,1.766-4.974,1.526-6.631-0.512
				c-0.77-0.945-1.647-2.069-2.611-3.375c-2.692-3.649-8.967-15.437-8.967-15.437L1912.195,1544.461z"/>
			<path style="fill:#2B478B;" d="M1917.606,1540.952c0,0-5.613,12.94-18.568,10.562c0,0-26.437-21.832-44.57-44.512
				c-5.89-7.366-10.904-14.821-13.851-21.645c-12.025-27.841-44.481-69.365-65.117-90.411l51.629-18.678
				c0,0,16.537,33.267,38.541,74.128C1881.526,1479.837,1900.217,1513.224,1917.606,1540.952z"/>
			<path style="fill:#233862;" d="M1865.67,1450.396l-11.202,56.605c-5.89-7.366-10.904-14.821-13.851-21.645
				c-12.025-27.841-44.481-69.365-65.117-90.411l51.629-18.678C1827.129,1376.269,1843.666,1409.535,1865.67,1450.396z"/>
			<path style="fill:#233862;" d="M1823.468,1551.971c0,0-0.563,10.326,11.956,11.704c0,0,7.555,0.153,7.574,6.726h-36.784
				c0,0-1.057-2.651-1.313-8.33c-0.197-4.36,4.227-15.76,4.227-15.76L1823.468,1551.971z"/>
			<path style="fill:#2B478B;" d="M1810.195,1376.269c0,0,23,25.273,37.601,70.805c7.943,24.773-14.561,87.059-18.947,108.699
				c0,0-15.097,1.281-25.418-2.71c0,0-0.784-44.697,5.253-79.146c3.378-19.28-30.284-41.234-44.993-76.071
				c-10.007-23.7,2.167-23.298,17.127-23.867L1810.195,1376.269z"/>
			<path style="fill:#FFB07B;" d="M1783.644,1263.515c-12.796,7.226-38.994,0.562-38.994,0.562s10.64-12.163,5.805-31.751
				l10.048,5.103l10.792,5.48c0,0,0.698,3.461,1.184,9.674c0.124,1.6,0.234,3.387,0.311,5.341
				C1779.358,1259.914,1783.644,1263.515,1783.644,1263.515z"/>
			<path style="fill:#ABDDDA;" d="M1830.567,1374.963c0,2.249-2.591,3.326-3.141,3.436c-5.162,0.943-19.573,6.549-32.556,7.835
				c-10.932,1.145-21.08,0.058-32.23-2.182c-1.477-0.297-4.942-1.23-5.188-2.646c-0.309-1.545-43.009-87.049-9.813-123.777
				c0.778-0.861,7.332,0.691,13.324,2.113c5.534,1.313,10.609,0.58,15.143-1.238l5.619,2.957
				c6.901,3.846,19.959,17.508,21.487,28.228c0.776,5.452,3.894,9.489,4.796,14.284c0.335,1.774,0.677,3.508,1.025,5.196
				c0.68,3.313,1.381,6.464,2.102,9.462c1.952,8.107,4.014,15.088,6.037,21.118c2.153,6.401,4.266,11.728,6.152,16.182
				c2.447,5.776,4.516,10.094,5.808,13.399C1830.045,1371.658,1830.567,1373.482,1830.567,1374.963z"/>
			<path style="fill:#91CECF;" d="M1829.132,1369.33c-60.276-28.398-81.151-82.93-81.151-82.93s48.545,15.955,60.625,20.659
				c0.681,3.312,1.809,8.573,2.529,11.571c1.952,8.107,4.014,15.088,6.037,21.118c2.153,6.401,4.266,11.728,6.152,16.182
				C1825.771,1361.707,1827.84,1366.024,1829.132,1369.33z"/>
			<path style="fill:#FFB07B;" d="M1850.701,1230.881l1.151-5.427c0,0-8.781-9.278,2.172-17.41c0,0,4.853-3.068,6.507,0.451
				c1.654,3.519,0.402,2.332,2.867,7.259c2.465,4.926,1.953,10.201-1.462,12.686l-2.068,3.873L1850.701,1230.881z"/>
			<path style="fill:#EA8E50;" d="M1772.478,1252.582c-12.584,0.706-20.768-9.684-20.768-9.684s5.689-3.151,8.792-5.471l10.792,5.48
				C1771.294,1242.908,1771.992,1246.369,1772.478,1252.582z"/>
			<path style="fill:#FFB07B;" d="M1777.839,1239.662c0,0-19.067,13.683-27.405,1.678s-16.415-18.324-4.594-27.568
				c11.821-9.243,17.394-6.323,21.151-2.993S1782.584,1235.793,1777.839,1239.662z"/>
			<path style="fill:#2B478B;" d="M1769.006,1199.937c-0.685-4.615-2.222-7.862-2.222-7.862s-1.196,4.957-10.255,4.272
				c-9.059-0.683-23.415,0.892-28.2,11.214c-0.306,0.656-0.576,1.333-0.817,2.024c-0.866-2.288-1.075-5.718-1.075-5.718
				c-1.722,4.444,0,10.002,0,10.002h0.001c-0.026,0.162-0.047,0.325-0.07,0.487c-2,1.69-3.679,6.944-3.679,6.944
				c0.604-1.466,2.075-2.422,3.386-3.011c-0.04,8.031,3.217,15.884,8.935,18.222c8.36,3.418,8.293,0.811,16.701,6.387
				c0,0,2.256-2.798,0.717-4.678c-1.538-1.88-7.349-4.615-4.102-7.35s4.444,0.342,5.641-1.538s-4.786-7.35,2.905-12.477
				C1764.562,1211.729,1769.689,1204.551,1769.006,1199.937z"/>
			<g>
				<path style="fill:#2C3A64;" d="M2216.829,1540.225c0,0,6.415,5.945,5.163,10.171c-1.252,4.225-7.041,7.041-7.824,12.204
					c-0.781,5.164-3.911,7.98-6.729,7.98c-2.816,0-13.428,0-13.428,0s-2.072-3.633,2.935-4.729s6.895-7.163,6.582-12.797
					c-0.313-5.633,0.47-13.144,0.47-13.144l10.64-2.504L2216.829,1540.225z"/>
				<path style="fill:#2C3A64;" d="M2136.869,1570.361c-0.157,0.081-0.414,0.152-0.756,0.22h-35.602
					c0.287-1.248,1.398-3.748,5.688-4.443c5.608-0.908,15.331-4.167,17.499-11.345c0.069-0.229,0.131-0.465,0.184-0.705
					c1.722-7.667,14.238,2.35,14.238,2.35s0.037,0.305,0.09,0.823C2138.503,1560.07,2139.249,1569.172,2136.869,1570.361z"/>
				<path style="fill:#2B478B;" d="M2107.689,1365.284c0,0,1.901,23.721,4.136,52.233c3.037,38.732,6.689,86.309,7.051,95.322
					c0.624,15.649,3.131,40.685,3.131,40.685s5.943,5.947,17.839,3.44c0,0,10.6-35.737,13.627-73.549
					c0.047-0.62,0.094-1.244,0.141-1.869c2.816-38.493,7.196-119.548,7.196-119.548L2107.689,1365.284z"/>
				<path style="fill:#233862;" d="M2107.689,1365.284c0,0,1.901,23.721,4.136,52.233l41.647,65.898
					c0.047-0.62,0.094-1.244,0.141-1.869c2.816-38.493,7.196-119.548,7.196-119.548L2107.689,1365.284z"/>
				<path style="fill:#2B478B;" d="M2116.371,1368.102c0,0,34.269,85.904,56.801,126.275c22.532,40.37,29.574,51.637,29.574,51.637
					s12.909-5.163,14.083-8.685c0,0-8.617-77.938-23.707-96.937c-8.526-10.735-18.542-42.952-19.011-54.219
					c-0.47-11.266-3.052-33.563-3.052-33.563L2116.371,1368.102z"/>
			</g>
			<path style="fill:#FFB27D;" d="M2119.907,1229.563c0,0-17.094,22.55-31.063,23.937c0,0,1.65-8.116,5.691-13.283
				c-1.14-1.772-2.131-3.394-2.985-4.84c-2.831-4.822-4.098-7.712-4.098-7.712l6.237-11.752l4.231-7.973
				c1.139,2.92,2.484,5.459,3.944,7.671C2109.391,1226.996,2119.907,1229.563,2119.907,1229.563z"/>
			<path style="fill:#ED975D;" d="M2101.865,1215.61c0,0,0.033,12.44-10.315,19.766c-2.831-4.822-4.098-7.712-4.098-7.712
				l6.237-11.752C2098.818,1215.063,2101.865,1215.61,2101.865,1215.61z"/>
			<path style="fill:#FFB27D;" d="M2083.561,1228.981c0,0,21.78-5.327,18.254-18.84c-3.527-13.513-3.091-23.3-17.146-20.47
				s-15.4,8.688-15.32,13.485C2069.429,1207.953,2077.805,1230.02,2083.561,1228.981z"/>
			<path style="fill:#ABDDDA;" d="M2174.502,1364.147c-9.949,10.903-74.537,18.67-72.694,10.454
				c0.706-3.144,1.83-8.703,2.167-16.399c0.079-1.802,0.109-3.719,0.086-5.753c-0.139-11.135-2.045-25.681-8.296-43.055
				c-0.469-1.303-0.962-2.616-1.479-3.95c-2.626-6.755-4.692-13.801-6.081-20.605c-2.67-13.081-2.826-25.277,0.395-32.811
				c0.014-0.037,4.211-12.074,4.229-12.11c13.856-4.307,17.84-15.044,17.84-15.044s43.486,13.903,60.564,76.587
				C2171.232,1301.461,2183.156,1354.657,2174.502,1364.147z"/>
			<path style="fill:#91CECF;" d="M2103.975,1358.202c0.079-1.802,0.109-3.719,0.086-5.753c-0.139-11.135-2.045-25.681-8.296-43.055
				c2.603-8.559,5.56-15.571,8.182-18.556c10.65-12.137,16.101-13.532,16.101-13.532S2125.92,1335.259,2103.975,1358.202z"/>
			<path style="fill:#233862;" d="M2107.944,1186.723c0.183-0.268,0.646-0.518,1.716-0.695c0,0-0.921-0.452-2.075-0.354
				c-0.393-1.495-1.485-4.099-4.135-4.47c0,0,1.468,0.598,1.827,2.194c-3.328-2.784-9.973-4.346-27.524-0.976
				c-23.132,4.441-13.769,18.77-10.548,20.245c3.221,1.477,10.279-4.321,15.959-4.487c5.679-0.166,7.659,7.977,9.693,8.9
				c2.035,0.923,1.063-0.998,3.517-2.47c2.453-1.471,3.178,2.851,2.743,5.76c-0.436,2.909,3.525,6.248,3.525,6.248s0,0,3.155-4.319
				s4.706-21.313,2.685-24.676C2108.304,1187.326,2108.127,1187.025,2107.944,1186.723z"/>
			<g>
				<path style="fill:#FFB27D;" d="M2044.13,1345.168c0,0-7.841,0.43-9.522,1.021c-1.681,0.59-6.98,4.748-6.926,5.255
					c0.054,0.508,0.446,0.825,1.501,0.609c1.054-0.216,4.342-1.594,4.239-1.121s-9.386,5.109-8.949,7.114s6.826,4.194,11.438,3.187
					c4.611-1.006,13.963-8.105,14.571-8.622C2051.09,1352.093,2044.13,1345.168,2044.13,1345.168z"/>
				<path style="fill:#ABDDDA;" d="M2044.624,1349.172c-2.905-3.734-1.314-5.75-1.314-5.75s34.979-33.983,37.649-37.324
					s11.383-52.914,11.383-52.914s4.978-11.929,15.921-15.271c9.511-2.904,14.446-6.863,19.44-1.702
					c5.95,6.151,7.455,15.353,3.896,23.136c-7.99,17.471-24.164,52.184-29.31,58.369c-9.936,11.942-41.676,31.105-49.916,35.976
					c-1.207,0.714-2.731,0.558-3.776-0.378C2047.403,1352.244,2045.841,1350.736,2044.624,1349.172z"/>
			</g>
			<path style="fill:#ABDDDA;" d="M1863.238,1229.228c0,0-1.732-2.699-5.854-3.636c-5.248-1.192-7.625-1.74-7.625-1.74
				s-26.171,43.512-28.326,47.872c-0.474,0.96-1.304,2.498-2.497,4.612c-0.911,1.613-2.798,2.413-4.588,1.932
				c-10.117-2.716-21.241-6.177-29.529-10.008c-9.305-4.301-20.221-3.123-28.396,3.062l-6.732,5.094
				c-8.129,6.15-5.671,18.954,4.16,21.649c23.756,6.517,58.414,10.318,72.905,11.994c6.565,0.761,14.544-15.525,18.501-24.715
				c-0.014-0.004-0.025-0.006-0.039-0.01C1853.689,1266.257,1863.238,1229.228,1863.238,1229.228z"/>
		</g>
	</g>
	<g>
		<path style="fill:#86D1CD;" d="M2812.707,1562.108c-5.494,0.128-10.912-0.443-16.104-1.29c6.127-4.511,19.02-13.849,29.519-20.418
			c14.312-8.934,22.427-23.983,2.236-26.544c-17.196-2.187-30.72,35.35-34.354,46.509c-2.354-0.434-4.658-0.906-6.886-1.389
			c2.769-7.938,8.825-24.762,14.567-36.492c7.752-15.838,35.172-42.589,7.752-45.632c-24.387-2.719-30.857,64.937-31.99,79.986
			c-4.896-1.034-9.18-1.743-12.568-1.487c-7.801,0.571-15.266,9.071-10.854,12.814h82.34
			C2833.697,1565.93,2826.813,1561.773,2812.707,1562.108z"/>
		<path style="fill:#86D1CD;" d="M360.086,1554.111C360.086,1554.111,360.086,1554.112,360.086,1554.111
			c-12.479-30.105-39.369-87.764-59.819-80.947c-20.211,6.737,25.23,56.676,50.813,82.747c-5.084,1.069-9.675,2.12-13.913,3.093
			c-19.72-17.955-52.282-47.373-55.251-35.271c-2.603,10.61,25.337,26.645,46.71,37.2c-13.307,2.901-23.377,4.28-35.866,1.44
			c-20.576-4.68-31.088,9.287-31.088,9.287H418.72C418.72,1571.66,392.846,1547.935,360.086,1554.111z"/>
		<path style="fill:#2E3552;" d="M2932.646,1574.754H67.354c-1.789,0-3.253-1.465-3.253-3.254v-1.109
			c0-1.791,1.464-3.254,3.253-3.254h2865.293c1.789,0,3.254,1.463,3.254,3.254v1.109
			C2935.9,1573.289,2934.436,1574.754,2932.646,1574.754z"/>
	</g>
</g>
</svg>
