<svg id="visual" viewBox="0 0 900 600" width="900" height="600" xmlns="http://www.w3.org/2000/svg" xmlns:xlink="http://www.w3.org/1999/xlink" version="1.1"><rect x="0" y="0" width="900" height="600" fill="#FFFFFF"></rect><g transform="translate(402.6763105283037 289.59366048831885)"><path d="M159.4 -176.9C208.6 -148.6 252 -100.4 253.4 -50.9C254.7 -1.4 214 49.3 174.6 85.2C135.3 121.2 97.4 142.3 52 171.1C6.6 199.8 -46.3 236.2 -84.8 225.4C-123.3 214.7 -147.4 156.8 -155.5 107.1C-163.6 57.3 -155.6 15.6 -143.6 -20.5C-131.5 -56.7 -115.2 -87.3 -90.6 -120C-66 -152.6 -33 -187.3 11 -200.5C55.1 -213.6 110.1 -205.2 159.4 -176.9" fill="#0066FF"></path></g></svg>