<?xml version="1.0" encoding="utf-8"?>
<!-- Generator: Adobe Illustrator 27.5.0, SVG Export Plug-In . SVG Version: 6.00 Build 0)  -->
<svg version="1.1" id="Ñëîé_1" xmlns="http://www.w3.org/2000/svg" xmlns:xlink="http://www.w3.org/1999/xlink" x="0px" y="0px"
	 viewBox="0 0 3100 2000" style="enable-background:new 0 0 3100 2000;" xml:space="preserve">
<rect id="_x31_2" style="fill:#FFFFFF;" width="3100" height="2000"/>
<g>
	<g id="_x31_1_4_">
		<path style="fill:#DCE6FF;" d="M488.926,1378.714c-5.062-10.959-10.071-22.315-14.886-33.751l11.868-2.494
			c4.784,11.362,9.759,22.644,14.788,33.53L488.926,1378.714z M2611.968,1364.562l-12.288-1.072
			c2.04-11.666,3.978-23.415,5.759-34.92l12.307,0.952C2615.959,1341.067,2614.015,1352.856,2611.968,1364.562z M460.372,1310.968
			c-4.334-11.302-8.536-22.815-12.491-34.217l12.025-2.082c3.932,11.334,8.109,22.777,12.417,34.012L460.372,1310.968z
			 M2622.815,1294.423l-12.325-0.823c1.566-11.713,3.017-23.495,4.312-35.018l12.341,0.691
			C2625.845,1270.841,2624.388,1282.667,2622.815,1294.423z M436.568,1242.332c-3.576-11.515-6.978-23.158-10.113-34.606
			l12.156-1.661c3.115,11.377,6.497,22.949,10.05,34.392L436.568,1242.332z M2630.697,1224.076l-12.356-0.552
			c1.048-11.705,1.968-23.511,2.731-35.091l12.367,0.407C2632.672,1200.468,2631.75,1212.323,2630.697,1224.076z M417.582,1172.947
			c-2.753-11.656-5.302-23.409-7.576-34.935l12.262-1.207c2.259,11.448,4.791,23.123,7.526,34.702L417.582,1172.947z
			 M2635.329,1153.572l-12.376-0.254c0.483-11.756,0.816-23.576,0.99-35.129l12.381,0.092
			C2636.149,1129.889,2635.815,1141.762,2635.329,1153.572z M403.793,1102.937c-1.846-11.773-3.452-23.614-4.775-35.193
			l12.341-0.704c1.314,11.494,2.908,23.247,4.74,34.934L403.793,1102.937z M2623.994,1083.057
			c-0.146-11.766-0.462-23.581-0.941-35.118l12.376-0.256c0.48,11.597,0.799,23.473,0.945,35.297L2623.994,1083.057z
			 M395.771,1032.459c-0.821-11.843-1.366-23.732-1.619-35.339l12.38-0.135c0.25,11.51,0.791,23.301,1.605,35.046L395.771,1032.459z
			 M2621.063,1012.852c-0.85-11.75-1.896-23.539-3.106-35.041l12.346-0.649c1.219,11.569,2.269,23.427,3.124,35.243
			L2621.063,1012.852z M406.649,961.926l-12.379-0.18c0.345-11.874,1.01-23.767,1.977-35.348l12.36,0.515
			C407.649,938.383,406.99,950.163,406.649,961.926z M2613.663,942.84c-1.654-11.747-3.527-23.481-5.566-34.875l12.283-1.097
			c2.053,11.47,3.938,23.281,5.604,35.106L2613.663,942.84z M412.533,891.993l-12.319-0.874c1.682-11.829,3.732-23.652,6.094-35.141
			l12.253,1.258C416.224,868.597,414.196,880.292,412.533,891.993z M2601.165,873.224c-2.576-11.674-5.404-23.303-8.405-34.565
			l12.166-1.619c3.026,11.352,5.876,23.073,8.472,34.837L2601.165,873.224z M1136.889,871.99
			c-17.204-1.917-29.648-7.449-46.885-17.004l7.826-6.778c15.101,8.349,26.007,13.357,40.379,15.085L1136.889,871.99z
			 M1179.844,851.178l-11.026-3.978c5.668-7.841,10.678-18.722,14.892-32.341l12.095,1.868
			C1191.302,831.28,1186.081,842.549,1179.844,851.178z M1053.667,829.897c-9.863-7.76-20.403-16.691-32.223-27.303l9.729-5.41
			c11.653,10.462,22.024,19.251,31.706,26.869L1053.667,829.897z M426.831,822.723l-12.155-1.667
			c3.207-11.675,6.836-23.317,10.787-34.602l12.019,2.1C433.581,799.697,429.998,811.193,426.831,822.723z M2582.753,804.321
			c-3.666-11.553-7.621-23.007-11.755-34.042l11.97-2.238c4.174,11.142,8.165,22.706,11.865,34.367L2582.753,804.321z
			 M1204.136,781.522l-12.279-1.116c1.901-10.441,3.606-21.875,5.21-34.955l12.335,0.755
			C1207.782,759.407,1206.06,770.959,1204.136,781.522z M991.12,774.412c-10.064-9.603-20.503-19.753-29.497-28.513l10.022-5.136
			c8.977,8.743,19.394,18.873,29.425,28.444L991.12,774.412z M1897.562,773.692c-9.642,0-19.103-2.035-28.118-6.049l6.601-7.401
			c13.543,6.04,26.866,6.054,41.251,1.236l5.327,7.896C1914.118,772.24,1905.687,773.692,1897.562,773.692z M450.651,754.845
			l-11.84-2.558c4.919-11.366,10.316-22.669,16.042-33.598l11.611,3.036C460.821,732.497,455.501,743.64,450.651,754.845z
			 M1963.11,746.506l-9.097-5.934c9.387-7.183,19.45-16.044,30.765-27.089l10.03,5.129
			C1983.202,729.941,1972.834,739.065,1963.11,746.506z M1834.24,740.491c-8.012-8.733-15.953-19.018-24.274-31.44l11.19-3.742
			c8.085,12.069,15.762,22.02,23.474,30.424L1834.24,740.491z M2557.319,736.618c-4.987-11.334-10.309-22.491-15.818-33.161
			l11.632-2.997c5.577,10.802,10.963,22.094,16.01,33.562L2557.319,736.618z M932.281,717.38
			c-11.328-10.937-20.768-19.917-29.709-28.258l9.871-5.281c8.983,8.381,18.461,17.397,29.83,28.374L932.281,717.38z
			 M1213.126,710.879l-12.355-0.565c0.938-10.249,1.894-21.767,2.919-35.215l12.363,0.471
			C1215.025,689.049,1214.067,700.599,1213.126,710.879z M485.022,689.346l-11.327-3.532c6.797-10.875,14.04-21.555,21.736-31.998
			l10.979,4.044C498.836,668.135,491.711,678.643,485.022,689.346z M2023.172,689.344l-10.345-4.806
			c8.798-9.45,17.887-19.464,27.086-29.579l10.416,4.729C2041.107,669.829,2032.009,679.85,2023.172,689.344z M1790.036,676.407
			c-5.608-9.938-11.403-20.781-17.716-33.148l11.646-2.968c6.268,12.275,12.015,23.029,17.571,32.877L1790.036,676.407z
			 M2523.287,670.952c-6.656-10.955-13.698-21.596-20.928-31.628l11.034-3.969c7.352,10.201,14.509,21.017,21.271,32.146
			L2523.287,670.952z M872.003,661.405c-11.234-9.852-21.691-18.621-31.969-26.808l9.262-5.804
			c10.408,8.291,20.99,17.163,32.348,27.125L872.003,661.405z M1218.629,640.284l-12.366-0.44
			c0.834-11.686,1.663-23.379,2.547-35.276l12.364,0.459C1220.29,616.917,1219.461,628.604,1218.629,640.284z M2077.472,630.144
			l-10.329-4.823c10.344-11.058,19.596-20.625,28.286-29.244l10.084,5.074C2096.909,609.686,2087.736,619.17,2077.472,630.144z
			 M530.963,627.675l-10.435-4.708c9.729-10.765,19.761-20.488,29.816-28.898l9.458,5.645
			C550.1,607.828,540.398,617.235,530.963,627.675z M1755.788,609.879c-5.678-11.756-11.249-23.518-15.949-33.473l11.745-2.768
			c4.694,9.941,10.256,21.685,15.922,33.416L1755.788,609.879z M805.992,609.266c-12.654-8.705-25.097-16.394-36.982-22.855
			l7.55-6.932c12.264,6.667,25.072,14.58,38.069,23.52L805.992,609.266z M2478.321,608.893
			c-8.871-10.228-18.173-19.902-27.647-28.752l9.874-5.277c9.717,9.077,19.249,18.988,28.329,29.458L2478.321,608.893z
			 M594.529,575.915l-7.509-6.955c14.785-7.969,30.173-13.715,45.737-17.08l3.623,8.365
			C622.224,563.305,608.144,568.577,594.529,575.915z M2135.375,573.24l-9.618-5.508c11.611-10.122,22.613-18.832,33.636-26.627
			l8.758,6.182C2157.436,554.866,2146.714,563.355,2135.375,573.24z M1223.948,569.8l-12.359-0.52
			c1.072-12.715,2.136-24.261,3.254-35.3l12.349,0.624C1226.078,545.608,1225.017,557.121,1223.948,569.8z M728.077,567.969
			c-15.45-5.432-30.646-8.899-45.166-10.304l1.681-8.667c15.857,1.535,32.344,5.283,49.001,11.14L728.077,567.969z
			 M2418.823,553.829c-11.919-8.628-24.261-16.244-36.681-22.635l7.29-7.071c12.979,6.679,25.849,14.618,38.252,23.596
			L2418.823,553.829z M1724.047,542.933c-6.159-13.015-11.235-23.627-15.974-33.397l11.711-2.836
			c4.75,9.791,9.835,20.423,16.004,33.459L1724.047,542.933z M2205.205,524.958l-7.096-7.167
			c15.227-7.526,30.606-13.1,45.712-16.566l3.824,8.319C2233.707,512.742,2219.428,517.929,2205.205,524.958z M2340.297,514.242
			c-15.334-4.57-30.856-7.398-46.134-8.406l1.151-8.71c16.54,1.092,33.292,4.138,49.794,9.056L2340.297,514.242z M1231.153,499.486
			l-12.333-0.774c1.543-12.273,3.221-24.126,4.989-35.23l12.304,0.978C1234.357,475.496,1232.688,487.28,1231.153,499.486z
			 M1691.6,476.266c-5.983-11.798-11.62-22.583-17.236-32.97l11.566-3.121c5.646,10.444,11.313,21.284,17.325,33.14L1691.6,476.266z
			 M1242.417,429.58l-12.254-1.251c2.504-12.247,5.257-24.025,8.182-35.006l12.167,1.617
			C1247.62,405.8,1244.896,417.454,1242.417,429.58z M1655.971,410.636c-6.653-11.306-13.358-22.123-19.932-32.151l11.235-3.676
			c6.642,10.132,13.415,21.056,20.131,32.469L1655.971,410.636z M1261.026,360.71l-12.012-2.12
			c4.319-12.215,9.079-23.72,14.15-34.198l11.715,2.83C1269.921,337.466,1265.26,348.733,1261.026,360.71z M1614.051,347.092
			c-8.143-10.835-16.461-21.007-24.724-30.233l10.462-4.677c8.429,9.413,16.906,19.777,25.198,30.808L1614.051,347.092z
			 M1293.472,295.174l-11.103-3.872c8.13-11.638,17.145-21.928,26.796-30.585l9.726,5.413
			C1309.773,274.31,1301.221,284.081,1293.472,295.174z M1560.95,288.488c-10.818-9.582-21.984-18.07-33.188-25.227l8.305-6.488
			c11.698,7.474,23.327,16.31,34.561,26.261L1560.95,288.488z M1353.433,243.458l-6.675-7.367
			c14.667-6.632,30.826-10.945,48.029-12.817l1.885,8.645C1381.186,233.605,1366.638,237.487,1353.433,243.458z M1488.699,243.453
			c-14.422-5.493-29.446-9.249-44.653-11.162l2.171-8.612c16.505,2.077,32.775,6.139,48.357,12.074L1488.699,243.453z"/>
		<path style="fill:#D4E8FF;" d="M562.866,1432.207c0,0-191.402-576.851,35.798-705.301
			c151.862-85.857,312.828,103.41,504.951,3.284c171.044-89.14,116.669-360.343,389.46-397.829
			c306.706-42.146,374.238,463.683,625.938,394.545c305.421-83.895,591.729,79.618,412.155,706.403L562.866,1432.207z"/>
		<path style="fill:#EEF7FF;" d="M2721.018,1228.386c-105.416-12.156-88.214,97.672-238.478,97.672
			c-137.385,0-181.338-418.247-281.298-298.688c-512.453,612.93-214.881-260.659-622.426-271.761
			c-184.28-5.02-307.076,147.855-352.359,418.527c-65.64,244.697-217.866-186.634-374.525-146.53
			c-99.564,25.488-88.162,298.452-225.547,298.452c-150.264,0-133.061-109.828-238.478-97.672
			c-113.498,13.089-147.398,207.482-147.398,207.482h2627.907C2868.416,1435.869,2834.515,1241.475,2721.018,1228.386z"/>
		<path style="fill:#DCE6FF;" d="M2627.665,1347.271c-96.98-5.191-81.155,41.707-219.394,41.707
			c-126.391,0-122.918-105.105-207.498-127.443c-155.758-41.136-284.167,167.059-344.554,62.57
			c-114.691-277.254-449.194-416.294-603.513,0c-60.387,104.489-201.601-81.956-344.554-62.57
			c-87.993,11.933-81.107,127.443-207.498,127.443c-138.239,0-122.413-46.898-219.394-41.707
			c-104.415,5.589-135.603,88.598-135.603,88.598h2417.611C2763.268,1435.869,2732.08,1352.86,2627.665,1347.271z"/>
		<path style="fill:#CFDDF9;" d="M240.509,1435.869c0,0-58.482,93.812,67.914,149.464c117.944,51.931,709.702,47.74,560.724,101.833
			c-84.099,30.536,42.932,72,452.554,87.268c409.622,15.268,1118.78-48.188,876.061-117.414
			c-267.884-76.404,751.525,24.525,670.654-221.151H240.509z"/>
	</g>
	<path id="_x31_0" style="fill:#9358E0;" d="M2115.731,938.122c8.394-13.427,16.306-26.686,23.758-39.711
		c2.805,9.129,45.201,32.18,50.092,23.64c4.523-8.717-37.668-31.762-46.907-29.266c3.218-5.696,6.364-11.352,9.406-16.948
		c2.559,8.907,49.913,26.807,53.514,17.444c3.31-9.307-42.254-26.452-50.836-22.415c2.87-5.339,5.682-10.639,8.396-15.872
		c4.664,8.525,48.843,24.998,52.486,15.979c3.15-9.01-39.442-25.335-49.04-22.696c2.497-4.89,4.939-9.738,7.301-14.521
		c4.134,8.414,52.166,20.82,54.782,11.216c2.197-9.428-43.029-21.25-51.891-17.131c2.537-5.211,5-10.358,7.378-15.425
		c5.457,8.007,51.318,19.696,53.972,10.319c2.154-9.194-41.175-20.747-50.678-17.388c2.309-5.006,4.524-9.915,6.678-14.76
		c6.243,7.72,50.684,18.9,53.312,9.689c2.149-9.024-40.01-20.432-49.856-17.53c1.759-4.032,3.46-7.997,5.111-11.901
		c6.003,7.364,54.412,11.786,55.509,1.973c0.661-9.353-43.479-13.841-52.494-9.167c2.3-5.552,4.462-10.815,6.583-16.209
		c5.379,7.666,54.858,12.24,55.9,2.333c0.648-9.526-44.771-13.973-53.316-8.876c1.936-4.963,3.786-9.826,5.581-14.622
		c6.204,7.265,54.243,11.627,55.35,1.85c0.658-9.389-43.736-13.868-52.661-9.108c1.689-4.605,3.321-9.135,4.881-13.564
		c7.586,5.983,54.995,2.883,54.607-6.874c-0.632-8.977-42.56-7.13-51.606-1.761c1.67-4.869,3.268-9.627,4.783-14.246
		c8.374,4.876,54.796-4.31,53.155-13.916c-1.565-8.524-41.159-1.944-50.016,4.167c1.584-4.996,3.075-9.819,4.474-14.465
		c8.592,4.313,54.485-9.144,51.955-18.609c-2.229-8.239-40.44,1.59-48.918,8.346c1.467-5.064,2.805-9.849,4.042-14.388
		c8.397,4.257,54.338-13.552,50.894-22.863c-2.971-8.05-40.395,5.171-48.181,12.676c1.381-5.318,2.584-10.153,3.622-14.48
		c8.528,3.497,51.26-24.785,45.704-33.188c-4.163-6.984-36.26,12.355-42.933,21.161c2.266-13.83,7.933-16.684,9.236-35.422
		c1.452-15.859-0.966-29.044-5.399-29.45c-9.532-0.646-13.978,44.812-8.866,53.344c-0.401,2.06-1.041,5.22-1.965,9.446
		c-3.741-10.35-29.339-38.48-35.459-32.943c-7.377,6.449,23.318,43.173,32.847,44.349c-1.107,4.648-2.42,9.939-3.946,15.8
		c-2.823-10.318-29.763-40.881-36.488-35.223c-7.6,6.493,24.668,44.88,33.976,44.649c-1.046,3.841-2.174,7.88-3.387,12.107
		c-4.187-10.095-31.996-37.119-37.91-31.146c-6.789,6.821,25.042,40.363,34.787,41.814c-1.384,4.626-2.865,9.446-4.437,14.436
		c-51.711-51.082-59.251-12.423-3.456,10.764c-1.662,5.083-3.417,10.321-5.271,15.712c-3.521-9.499-39.639-35.636-45.405-28.196
		c-5.737,8.059,33.574,37.06,42.892,35.414c-1.76,5.003-3.605,10.128-5.531,15.36c-3.13-9.501-39.822-36.182-45.664-28.667
		c-5.787,8.077,33.97,37.373,43.158,35.409c-1.594,4.246-3.232,8.547-4.937,12.926c-5.377-8.547-46.425-26.449-50.479-17.925
		c-3.679,8.78,37.665,27.576,47.455,25.603c-2.259,5.731-4.563,11.334-7.029,17.264c-4.538-8.718-47.026-27.471-51.184-18.762
		c-3.743,8.932,38.912,28.154,48.325,25.554c-1.762,4.154-3.57,8.362-5.454,12.66c-5.488-7.997-51.295-19.667-53.949-10.295
		c-2.156,9.221,41.375,20.8,50.815,17.363c-2.484,5.565-5.072,11.24-7.76,17.017c-5.015-8.148-51.645-20.106-54.302-10.643
		c-2.163,9.295,41.924,20.947,51.187,17.296c-2.271,4.801-4.628,9.68-7.042,14.609c-2.99-8.709-52.738-21.632-55.264-11.871
		c-2.273,9.587,44.591,21.683,52.81,16.873c-2.522,5.088-5.14,10.253-7.816,15.46c-6.102-7.314-54.335-11.709-55.438-1.913
		c-0.705,9.145,42.069,13.703,51.527,9.461c-2.714,5.191-5.504,10.433-8.372,15.724c-5.014-7.83-55.11-12.491-56.117-2.533
		c-0.662,9.352,43.472,13.841,52.49,9.168c-2.299,4.178-4.649,8.385-7.046,12.617c-6.145-6.974-56.387-3.869-55.848,6.127
		c0.594,8.901,42.066,7.158,51.259,1.913c-6.907,11.979-14.206,24.152-21.912,36.465L2115.731,938.122z"/>
	<path id="_x39_" style="fill:#8A9EDD;" d="M1986.759,962.669c-1.603-9.445-93.23-4.702-104.939,1.517
		c5.627-10.792,11.191-24.066,15.56-39.875c8.853,5.217,106.892-16.051,105.083-25.66c-3.177-9.088-93.891,11.97-103.65,20.21
		c3.111-12.482,5.445-26.445,6.502-41.923c6.501,6.047,104.83-34.984,100.387-43.754c-4.287-8.777-95.419,30.65-100.17,40.137
		c0.593-10.879,0.566-22.471-0.276-34.815c10.833,1.852,98.093-43.049,94.118-51.947c-5.443-7.901-86.871,35.492-94.584,46.05
		c-0.874-10.384-2.5-21.813-4.507-32.879c11.296-0.216,90.015-57.295,84.828-65.523c-6.577-6.875-79.071,47.215-85.927,59.089
		c-1.953-11.627-3.634-22.64-5.071-33.052c11.857-0.968,89.192-57.06,84.164-65.34c-6.521-6.764-77.364,45.967-85.137,58.121
		c-1.639-12.527-2.915-24.139-3.898-34.904c11.551-0.557,89.656-57.194,84.544-65.451c-6.525-6.768-77.445,46.026-85.178,58.169
		c-0.983-12.003-1.585-22.858-1.903-32.649c9.873,1.641,91.793-57.795,86.167-65.806c-6.584-6.948-80.037,47.918-86.337,59.613
		c-0.284-13.316-0.025-24.465,0.5-33.659c9.869,0.755,85.065-67.554,78.551-74.865c-7.181-5.976-71.26,53.602-77.978,66.668
		c1.462-29.249,11.868-32.254,21.32-66.785c21.449-68.163,6.735-72.778-14.409-4.496c-10.969,35.087-9.661,42.961-12.746,66.819
		c-2.128-16.039-34.26-91.71-42.733-89.056c-9.319,3.13,32.944,101.465,41.776,101.297c-0.508,8.789-0.763,19.325-0.54,31.784
		c-4.091-14.636-51.806-85.888-59.981-81.691c-8.489,4.951,51.471,92.912,60.24,91.442c0.338,9.486,0.945,19.959,1.898,31.47
		c-7.487-13.764-67.359-72.853-74.386-67.143c-6.43,7.347,64.586,76.202,75.279,77.16c0.979,10.252,2.224,21.266,3.782,33.078
		c-7.653-12.173-78.161-65.453-84.652-58.691c-5.653,7.992,75.817,68.034,85.708,66.448c1.457,10.444,3.154,21.486,5.121,33.146
		c-10.501-10.974-86.206-51.308-91.435-43.749c-3.677,8.971,80.932,52.935,92.886,52.192c1.968,10.987,3.359,21.805,4.16,31.903
		c-5.248-10.111-90.607-56.113-95.79-47.888c-5.044,8.427,88.76,57.378,96.116,52.24c0.77,11.701,0.8,22.706,0.25,33.042
		c-6.35-10.324-89.906-55.329-95.215-47.247c-4.306,8.789,85.241,55.337,94.892,52.358c-1.115,15.232-3.491,28.935-6.625,41.136
		c-4.597-10.549-85.715-63.075-91.564-55.318c-4.989,8.42,80.473,61.965,90.361,59.803c-4.289,15.316-9.722,28.126-15.185,38.516
		c-6.266-11.729-79.24-67.066-85.804-60.132c-4.852,8.321,70.199,63.653,82.771,65.668c-17.287,30.27-36.863,44.273-37.102,44.441
		l3.49,4.986c0.882-0.617,21.287-15.132,39.407-47.303C1886.882,976.192,1986.817,972.443,1986.759,962.669z"/>
	<path id="_x38_" style="fill:#CE4ABF;" d="M2332.375,810.25c5.844,16.68,9.684,31.655,10.523,39.997
		c4.556-9.191,8.954-17.66,13.175-25.457c-7.172-5.751-24.898-89.174-16.764-91.28c7.779-0.636,22.168,70.186,20.933,83.693
		c4.844-8.684,9.438-16.461,13.75-23.403c-6.973-3.143-7.605-94.823,0.84-94.268c3.588-0.005,6.527,21.212,6.564,47.389
		c0.024,16.679-1.137,31.336-2.911,39.786c5.821-9.012,11.061-16.42,15.643-22.458c-6.395-4.11,10.605-94.7,18.767-92.448
		c7.318,2.238-6.021,71.601-12.208,84.159c13.616-15.535,16.532-21.857,41.183-41.638c47.871-38.64,56.199-28.301,8.139,10.132
		c-23.356,20.161-32.177,17.267-47.292,37.496c10.988-6.106,85.543-17.944,87.729-10.216c1.1,8.357-85.333,21.067-92.074,15.799
		c-4.789,6.318-10.325,14.162-16.513,23.815c10.032-5.334,89.024-9.289,90.318-1.161c0.126,8.426-86.846,11.577-93.169,5.669
		c-4.472,7.15-9.253,15.198-14.311,24.248c11.269-4.967,87.459-8.657,88.796-0.686c-0.379,8.358-83.24,11.334-91.838,6.195
		c-4.464,8.165-9.126,17.077-13.968,26.816c11.304-4.956,87.409-8.637,88.745-0.671c-0.452,8.334-82.497,11.29-91.514,6.297
		c-3.971,8.132-8.055,16.809-12.24,26.056c10.514-5.195,88.45-9.056,89.772-0.984c-0.309,8.374-83.827,11.372-92.076,6.11
		c-3.847,8.792-8.064,17.555-12.555,25.661c10.503-3.853,89.674,4.241,89.695,12.492c-1.494,8.26-85.27-1.523-92.196-8.051
		c-5.109,8.875-10.588,17.217-16.424,24.988c8.042-4.434,91.93,11.1,90.762,19.422c-1.115,8.384-90.723-9.435-92.706-16.863
		c-7.534,9.746-15.69,18.656-24.707,26.795c10.936-1.172,85.821,27.313,83.674,35.301c-3.393,7.702-83.373-24.045-87.372-32.054
		c-9.544,8.177-19.683,15.198-30.312,20.98c11.281,1.122,79.184,41.813,75.733,49.288c-4.697,6.983-77.822-38.243-80.397-46.84
		c-28.392,14.294-49.942,14.874-50.869,14.891l-0.103-5.239c0.215-0.004,20.941-0.605,47.85-13.953
		c-7.992-7.394-35.118-83.115-27.633-86.662c8.046-1.731,33.578,72.692,32.458,84.162c8.891-4.803,18.923-11.351,29.34-20.239
		c-8.084-3.15-43.501-82.537-35.873-86.114c7.93-2.674,40.632,73.674,38.885,83.486c8.096-7.216,16.372-15.869,24.48-26.22
		c-8.303-2.454-50.006-78.798-42.685-82.969c7.708-3.163,45.747,68.978,45.369,79.471c5.354-7.123,10.615-15.003,15.681-23.735
		c-7.715,0.159-51.28-79.89-43.616-83.472c7.683-3.332,46.539,70.399,45.472,80.206c4.274-7.601,8.474-16.002,12.341-24.798
		c-8.865-5.134-48.299-77.304-41.332-81.888c7.403-2.825,42.068,62.205,44.347,75.158c4.191-9.278,8.278-17.984,12.25-26.148
		c-7.81-3.556-37.255-85.682-29.359-88.63C2313.957,766.479,2323.719,785.545,2332.375,810.25z"/>
	<path id="_x37_" style="fill:#9358E0;" d="M866.536,883.352c-25.88-14.554-50.148-29.525-72.741-44.501
		c10.567,0.593,48.462-16.347,45.023-24.578c-3.976-9.187-50.328,10.447-52.717,19.429c-4.033-2.719-8.013-5.435-11.934-8.149
		c10.155,0.159,47.652-23.545,42.888-31.62c-5.343-8.463-48.1,18.055-49.094,27.3c-4.928-3.456-9.763-6.903-14.508-10.338
		c10.357-0.423,46.607-23.583,41.896-31.453c-5.357-8.275-46.565,17.174-48.763,26.442c-4.718-3.467-9.365-6.922-13.891-10.35
		c9.502,0.639,46.049-31.092,39.738-38.659c-6.615-7.609-45.374,26.149-44.165,35.277c-4.359-3.334-8.645-6.649-12.819-9.934
		c9.919-0.864,44.179-30.959,38.096-38.313c-6.599-7.284-42.998,24.219-43.852,33.748c-4.983-3.971-9.831-7.896-14.536-11.768
		c9.982-1.135,43.776-30.917,37.734-38.208c-6.556-7.204-42.347,23.675-43.691,33.28c-3.604-3.006-7.099-5.966-10.529-8.898
		c9.584-1.872,39.185-38.103,31.851-44.428c-7.607-5.94-37.268,29.797-37.44,39.625c-4.853-4.207-9.414-8.194-13.992-12.316
		c9.641-2.601,38.259-37.866,31.05-44.083c-7.431-5.821-36.183,28.512-37.182,38.56c-3.479-3.159-6.864-6.277-10.185-9.367
		c9.099-2.34,31.613-46.295,22.831-50.942c-8.581-4.12-29.518,36.127-28.081,46.027c-4.058-3.824-7.995-7.587-11.802-11.28
		c9.074-2.683,31.32-46.174,22.591-50.828c-8.479-4.087-29.145,35.417-28.059,45.489c-4.064-3.998-7.971-7.903-11.726-11.711
		c39.593-45.642,15.599-76.877-7.895-8.092c-3.633-3.764-7.108-7.417-10.41-10.94c8.074-5.646,21.6-49.865,12.481-52.941
		c-7.958-2.708-20.791,33.884-20.035,44.787c-2.971-3.242-5.782-6.354-8.432-9.325c8.433-3.945,20.189-52.695,10.491-55.116
		c-8.542-2.064-19.02,37.307-16.943,47.801c-3.981-4.565-7.516-8.715-10.58-12.381c8.005-5.302,19.094-51.863,9.615-54.344
		c-7.947-2.226-18.308,34.369-17.04,45.301c-2.712-3.37-4.694-5.913-5.972-7.577c0.768-9.916-23.488-48.617-31.731-43.787
		c-3.787,2.341-0.069,15.221,8.305,28.767c9.525,16.189,15.869,16.216,24.067,27.582c-9.901-4.905-47.254-7.895-47.864,0.212
		c-1.224,9.998,49.636,16.249,55.709,9.315c2.858,3.41,6.092,7.201,9.701,11.344c-10.316-3.243-49.708,1.618-48.776,10.148
		c1.071,9.87,50.133,5.315,55.749-2.241c3.132,3.511,6.465,7.196,10.036,11.074c-10.602-2.265-49.185,5.983-47.504,14.352
		c1.958,9.6,49.034,1.172,54.8-6.521c3.324,3.533,6.81,7.186,10.456,10.95c-10.653-1.518-49.024,10.254-46.623,18.582
		c2.817,9.329,48.462-3.157,53.781-11.257c3.416,3.459,6.969,7.005,10.635,10.617c-10.491-0.769-48.841,16.28-45.402,24.597
		c4.005,8.906,47.818-9.468,51.939-18.207c3.372,3.268,6.853,6.594,10.419,9.962c-10.111-0.279-47.845,23.533-43.068,31.643
		c5.352,8.256,46.401-17.077,48.712-26.346c3.746,3.491,7.571,7.019,11.517,10.597c-9.922-0.75-48.588,23.491-43.758,31.727
		c5.351,8.401,47.594-17.764,48.989-27.024c4.305,3.881,8.587,7.628,13.122,11.57c-10.154-0.162-47.657,23.545-42.893,31.621
		c5.358,8.294,46.712-17.259,48.8-26.527c3.219,2.757,6.511,5.547,9.883,8.371c-10.107,1.795-42.75,30.811-36.801,37.929
		c6.46,7.071,41.248-22.759,43.392-32.453c4.09,3.375,8.261,6.78,12.561,10.23c-10.003,1.233-43.628,30.901-37.6,38.169
		c6.558,7.209,42.39-23.711,43.702-33.311c4.389,3.474,8.889,6.981,13.484,10.514c-9.768,0.267-44.971,31.022-38.8,38.48
		c6.626,7.429,44.08-25.102,44.027-34.476c4.247,3.228,8.596,6.477,13.012,9.74c-9.767,1.919-40.604,35.529-33.766,42.188
		c7.284,6.447,39.476-28.003,39.847-37.714c4.763,3.473,9.644,6.962,14.594,10.46c-9.482,0.216-42.614,35.885-35.499,42.738
		c7.4,6.774,41.797-30.37,40.113-39.484c5.219,3.651,10.558,7.31,15.978,10.972c-9.383,1.888-36.863,41.334-28.927,47.117
		c8.186,5.461,35.847-34.081,34.286-43.503c22.779,15.211,47.279,30.436,73.435,45.25
		C903.438,912.634,909.023,907.245,866.536,883.352z"/>
	<path id="_x36_" style="fill:#F4D4BE;" d="M942.272,858.027c-9.968-15.68-19.15-31.136-27.598-46.217
		c7.535,4.424,41.759,6.29,42.34-1.053c0.548-8.247-40.902-11.326-46.046-5.631c-1.935-3.519-3.833-7.016-5.688-10.489
		c7.397,3.95,43.882,0.698,43.431-7.031c-0.729-8.232-42.138-4.898-46.358,1.516c-2.314-4.398-4.564-8.755-6.751-13.068
		c7.764,3.598,43.128,0.276,42.639-7.283c-0.81-8.1-40.678-4.966-45.79,1.01c-2.156-4.327-4.264-8.618-6.294-12.845
		c6.737,4.056,45.553-5.45,43.774-13.388c-1.985-8.085-43.191,2.075-45.749,9.234c-1.942-4.093-3.838-8.146-5.664-12.133
		c7.609,3.109,44.129-6.058,42.439-13.754c-2.096-7.841-40.718,1.554-44.942,8.229c-2.161-4.797-4.239-9.509-6.232-14.129
		c7.758,2.934,43.818-6.178,42.132-13.814c-2.095-7.765-40.034,1.401-44.647,7.946c-1.512-3.568-2.961-7.061-4.373-10.508
		c7.746,2.243,43.159-13.189,40.16-20.602c-3.343-7.233-38.615,7.813-42.451,14.965c-1.978-4.921-3.815-9.574-5.63-14.326
		c8.06,1.732,42.394-13.364,39.447-20.651c-3.26-7.08-37.336,7.28-41.862,14.282c-1.361-3.63-2.677-7.205-3.948-10.725
		c7.562,1.723,40.698-22.063,36.002-28.791c-4.747-6.265-35.324,15.394-38,23.206c-1.538-4.344-3.006-8.593-4.409-12.745
		c7.674,1.459,40.434-22.085,35.78-28.798c-4.684-6.203-34.776,15.009-37.778,22.815c-1.475-4.47-2.871-8.814-4.191-13.028
		c8.528-1.032,36.866-22.086,32.544-28.263c-3.833-5.711-30.273,11.802-35.287,19.342c-1.248-4.138-2.418-8.13-3.514-11.966
		c8.061-1.097,34.687-28.465,29.151-34.166c-4.823-4.993-28.064,17.04-31.622,25.331c-0.958-3.505-1.847-6.851-2.672-10.035
		c7.681,0.29,34.721-31.076,28.512-36.515c-5.494-4.741-28.053,20.22-30.488,28.709c-1.201-4.86-2.228-9.236-3.095-13.089
		c7.879-0.872,33.6-30.877,27.575-36.278c-4.995-4.635-26.418,18.327-29.614,26.834c-0.716-3.482-1.215-6.111-1.526-7.818
		c4.307-6.991,1.104-44.568-6.772-44.133c-3.665,0.29-5.797,11.151-4.76,24.26c0.883,15.484,5.532,17.898,7.261,29.339
		c-5.419-7.339-31.721-23.635-35.229-17.912c-4.673,6.881,30.312,30.666,37.391,27.87c0.812,3.58,1.756,7.59,2.841,11.989
		c-6.352-6.275-37.111-17.572-39.646-10.957c-2.938,7.652,34.802,22.824,41.781,19.399c0.973,3.753,2.036,7.733,3.193,11.919
		c-6.93-5.665-38.377-14.172-40.301-7.392c-2.185,7.788,35.558,19.367,42.699,15.898c1.107,3.846,2.288,7.846,3.544,11.983
		c-7.252-5.134-39.867-10.971-41.246-3.951c-1.453,7.914,36.778,15.975,43.742,12.035c1.203,3.831,2.47,7.771,3.799,11.809
		c-7.414-4.524-42.008-6.479-42.621,0.926c-0.421,8.051,38.685,11.097,45.011,6.237c1.243,3.675,2.536,7.422,3.884,11.244
		c-7.324-4.017-44.009-0.774-43.562,6.982c0.814,8.082,40.51,4.976,45.712-0.956c1.432,3.973,2.916,8.013,4.461,12.126
		c-7.004-4.295-44.547-1.09-44.109,6.781c0.759,8.188,41.645,4.922,46.172-1.349c1.705,4.471,3.428,8.84,5.272,13.446
		c-7.395-3.951-43.884-0.699-43.433,7.03c0.804,8.113,40.817,4.959,45.849-1.059c1.323,3.24,2.687,6.531,4.097,9.877
		c-8.099-2.497-43.023,6.489-41.341,13.961c2.075,7.631,38.88-1.142,44.115-7.452c1.729,4.022,3.507,8.097,5.362,12.254
		c-7.811-2.87-43.703,6.223-42.019,13.836c2.095,7.769,40.079-1.41,44.666-7.965c1.911,4.208,3.892,8.482,5.933,12.81
		c-7.275-3.491-44.735,5.806-43.018,13.611c2.061,7.957,41.845-1.794,45.344-8.698c1.901,3.973,3.867,8.001,5.878,12.064
		c-7.896-2.277-43.229,10.763-40.721,18.234c2.915,7.484,39.56-5.663,43.497-12.653c2.187,4.348,4.454,8.753,6.769,13.19
		c-7.044-3.421-44.839,10.266-42.201,17.984c2.876,7.768,42.157-6.525,44.361-13.852c2.455,4.651,4.994,9.353,7.592,14.089
		c-7.602-2.155-42.673,16.438-39.028,23.681c3.95,7.101,39.19-11.496,41.599-19.004c8.738,15.724,18.273,31.865,28.66,48.255
		L942.272,858.027z"/>
	<g id="_x35_">
		<path style="fill:#CE3932;" d="M1144.55,1205.296v-138.349c0-4.417-3.58-7.997-7.997-7.997H912.635V954.988h263.103
			c4.417,0,7.997-3.58,7.997-7.997V799.045c0-4.417-3.58-7.997-7.997-7.997H719.906c-4.417,0-7.997,3.58-7.997,7.997v686.948
			c0,4.416,3.58,7.997,7.997,7.997h184.732c4.417,0,7.997-3.581,7.997-7.997v-272.7h223.918
			C1140.969,1213.293,1144.55,1209.713,1144.55,1205.296z"/>
		<path style="fill:#CE3932;" d="M1569.649,796.57c-1.072-3.293-4.142-5.522-7.604-5.522h-202.351c-3.464,0-6.534,2.23-7.605,5.524
			l-223.405,686.947c-0.792,2.435-0.37,5.101,1.135,7.173c1.505,2.071,3.91,3.297,6.47,3.297h188.393
			c3.651,0,6.839-2.473,7.746-6.01l27.597-107.549h196.788l28.248,107.592c0.922,3.516,4.1,5.967,7.735,5.967h192.854
			c2.561,0,4.966-1.226,6.471-3.298c1.504-2.072,1.926-4.74,1.133-7.174L1569.649,796.57z M1404.25,1215.692l54.761-207.545
			l55.339,207.545H1404.25z"/>
		<path style="fill:#CE3932;" d="M2311.507,1418.36c21.232-22.816,38.89-49.558,52.789-80.019
			c23.839-52.237,35.923-119.86,35.923-200.982c0-55.883-6.901-106.329-20.512-149.929c-13.699-43.896-34.579-82.074-62.049-113.494
			c-27.574-31.524-61.457-55.508-100.707-71.27c-39.034-15.666-84.393-23.615-134.83-23.615c-49.254,0-93.798,8.093-132.375,24.055
			c-38.762,16.042-72.517,40.433-100.339,72.493c-27.734,31.956-48.814,70.75-62.649,115.31
			c-13.739,44.256-20.704,95.421-20.704,152.088c0,81.266,14.123,150.025,41.977,204.357
			c28.014,54.644,65.168,95.205,110.439,120.564c45.079,25.263,102.61,38.066,170.977,38.066c31.772,0,61.281-3.303,88.351-9.853
			l87.883,87.883l-16.924,17.935h39.985c3.168,0,6.337-1.208,8.756-3.623l88.231-88.24c4.838-4.83,4.838-12.675,0-17.506
			L2311.507,1418.36z M2174.501,1281.354c-1.695,2.935-3.479,5.678-5.342,8.221c-20.361,27.774-48.438,41.273-85.824,41.273
			c-36.307,0-64.192-13.819-85.241-42.248c-0.064-0.088-0.128-0.176-0.192-0.264c-21.184-28.781-31.924-77.411-31.924-144.539
			c0-67.935,10.868-116.973,32.3-145.746c21.2-28.438,48.486-42.265,83.433-42.265c36.618,0,64.784,13.619,86.112,41.633
			c21.544,28.294,32.468,74.381,32.468,136.99C2200.292,1202.455,2191.623,1251.797,2174.501,1281.354z"/>
		<path style="fill:#EB5648;" d="M1104.564,1205.296v-138.349c0-4.417-3.58-7.997-7.997-7.997H872.65V954.988h263.103
			c4.417,0,7.997-3.58,7.997-7.997V799.045c0-4.417-3.58-7.997-7.997-7.997H679.921c-4.417,0-7.997,3.58-7.997,7.997v686.948
			c0,4.416,3.58,7.997,7.997,7.997h184.732c4.417,0,7.997-3.581,7.997-7.997v-272.7h223.918
			C1100.984,1213.293,1104.564,1209.713,1104.564,1205.296z"/>
		<path style="fill:#EB5648;" d="M1529.664,796.57c-1.072-3.293-4.141-5.522-7.604-5.522h-202.351c-3.464,0-6.534,2.23-7.605,5.524
			l-223.405,686.947c-0.792,2.435-0.37,5.101,1.135,7.173c1.504,2.071,3.91,3.297,6.47,3.297h188.393
			c3.651,0,6.839-2.473,7.746-6.01l27.597-107.549h196.788l28.248,107.592c0.922,3.516,4.1,5.967,7.735,5.967h192.854
			c2.561,0,4.966-1.226,6.471-3.298c1.504-2.072,1.926-4.74,1.133-7.174L1529.664,796.57z M1474.365,1215.692h-110.1l54.761-207.545
			L1474.365,1215.692z"/>
		<path style="fill:#EB5648;" d="M2271.521,1418.36c21.232-22.816,38.89-49.558,52.789-80.019
			c23.839-52.237,35.923-119.86,35.923-200.982c0-55.883-6.901-106.329-20.512-149.929c-13.699-43.896-34.579-82.074-62.049-113.494
			c-27.574-31.524-61.457-55.508-100.707-71.27c-39.033-15.666-84.393-23.615-134.83-23.615c-49.254,0-93.798,8.093-132.375,24.055
			c-38.762,16.042-72.517,40.433-100.339,72.493c-27.734,31.956-48.814,70.75-62.649,115.31
			c-13.739,44.256-20.704,95.421-20.704,152.088c0,81.266,14.123,150.025,41.977,204.357
			c28.014,54.644,65.168,95.205,110.439,120.564c45.079,25.263,102.61,38.066,170.977,38.066c31.772,0,61.281-3.303,88.352-9.853
			l102.194,102.195c4.83,4.83,12.667,4.83,17.506,0l88.231-88.24c4.838-4.83,4.838-12.675,0-17.506L2271.521,1418.36z
			 M1958.293,998.051c21.2-28.438,48.486-42.265,83.433-42.265c36.618,0,64.784,13.619,86.112,41.633
			c21.544,28.294,32.468,74.381,32.468,136.99c0,68.047-8.669,117.389-25.79,146.946c-1.696,2.935-3.479,5.678-5.342,8.221
			c-20.36,27.774-48.438,41.273-85.824,41.273c-36.307,0-64.192-13.819-85.241-42.248c-0.064-0.088-0.128-0.176-0.192-0.264
			c-21.184-28.781-31.924-77.411-31.924-144.539C1925.993,1075.862,1936.86,1026.824,1958.293,998.051z"/>
	</g>
	<g id="_x34_">
		<path style="fill:#F99370;" d="M749.367,1399.999c-4.472,67.678-12.881,135.206-22.139,202.391
			c-2.156,15.913-21.131,18.95-22.889,1.585c-1.58-17.255-1.092-33.443-2.465-50.783c-3.162-50.569-7.655-101.221-13.257-151.585
			C684.768,1357.911,750.896,1356.072,749.367,1399.999z"/>
		<path style="fill:#F99370;" d="M700.563,1406.061l-55.392,200.685c-1.784,6.707-6.225,9.125-12.914,7.336
			c-5.971-1.597-9.825-1.996-9.305-7.963l17.752-210.575C645.706,1352.145,710.551,1363.483,700.563,1406.061z"/>
		<path style="fill:#1D3F70;" d="M727.228,1602.39c25.808,1.239,33.324,10.045,35.438,15.947c0.011,0.031,0.022,0.062,0.033,0.092
			c0.914,2.58-1.054,5.281-3.784,5.29l-56.156,0.183c-0.949-1.649-1.474-3.479-1.707-5.365c-0.956-7.642,2.891-16.072,2.891-16.072
			S715.576,1607.564,727.228,1602.39z"/>
		<path style="fill:#395B96;" d="M762.667,1618.337l-61.614,0.2c0.233,1.885,0.758,3.715,1.707,5.365l56.156-0.183
			c2.73-0.009,4.698-2.71,3.784-5.29L762.667,1618.337z"/>
		<path style="fill:#1D3F70;" d="M650.515,1617.941v5.042h-32.608v-5.042c0-9.032,7.301-16.353,16.3-16.353
			C643.214,1601.588,650.515,1608.908,650.515,1617.941z"/>
		<rect x="617.907" y="1617.941" style="fill:#395B96;" width="32.608" height="5.042"/>
		
			<ellipse transform="matrix(0.5 -0.866 0.866 0.5 -645.0908 1127.244)" style="fill:#662948;" cx="653.68" cy="1122.289" rx="22.515" ry="19.502"/>
		<path style="fill:#662948;" d="M662.729,1123.804c0,0-21.975-8.655-24.064-40.087c-2.193-32.985,30.091-39.615,43.095-30.238
			L662.729,1123.804z"/>
		<path style="fill:#7640CC;" d="M701.923,1148.339c0,0,54.439,11.706,75.194,86.968l-52.594,11.974L701.923,1148.339z"/>
		<path style="fill:#662948;" d="M675.605,1050.669c31.806-8.956,52.961,37.263,37.7,61.344L675.605,1050.669z"/>
		<path style="fill:#F99370;" d="M640.755,1314.205h99.285c0.512-39.26-4.019-78.949-13.241-117.074
			c-5.503-22.25-8.668-40.042-29.871-51.931c1.511-13.176-0.55-32.178-2.388-40.005c-0.966-4.227-3.991-7.425-7.391-8.486
			c-8.697-3.02-18.994,4.39-16.318,14.193c0.789-0.496,3.313,27.455,1.571,35.215c-43.094,13.753-21.127,62.713-24.072,95.561
			C648.103,1265.813,645.775,1290.611,640.755,1314.205z"/>
		<path style="fill:#E57D61;" d="M670.597,1109.63c0.06,0.425,0.135,0.856,0.234,1.272c0.569-0.377,2.161,15.046,2.175,26.239
			c10.518,4.783,22.204,2.832,24.35,2.391c0.532-16.016,1.227-38.652-10.207-42.823
			C678.939,1093.198,669.152,1100.681,670.597,1109.63z"/>
		<path style="fill:#F99370;" d="M654.069,1099.322c1.766,10.958,5.466,23.311,14.122,30.56h0.014
			c3.496,2.905,7.758,4.754,12.274,5.643c25.571,7.152,55.561-22.575,35.577-44.228c-7.262-6.71-8.802-18.598-14.591-25.272
			c-8.417-12.215-26.89-11.583-36.864-1.62C655.587,1073.413,652.505,1085.826,654.069,1099.322z"/>
		<path style="fill:#C16256;" d="M695.892,1092.563c1.003-1.905-2.011-3.436-2.958-1.503
			C691.931,1092.965,694.946,1094.496,695.892,1092.563z"/>
		<path style="fill:#C16256;" d="M709.839,1090.219c1.003-1.905-2.011-3.436-2.958-1.503
			C705.878,1090.62,708.892,1092.152,709.839,1090.219z"/>
		<path style="fill:#C16256;" d="M704.565,1104.646c3.037-0.036,7.759-2.083,3.919-4.782c-3.132-1.696-5.438-8.194-5.46-8.259
			c-3.241-2.446,1.372,7.671,4.862,9.363c2.458,1.506-2.661,2.965-4.779,2.22c-0.332-0.106-0.684,0.076-0.789,0.406
			C702.138,1104.72,703.779,1104.562,704.565,1104.646z"/>
		<path style="fill:#9358E0;" d="M767.058,1521.935c0,0-74.021,40.826-158.112,0.343c0,0,0.564-8.034,1.563-21.25
			c4.375-58.608,16.955-219.149,24.324-233.756c11.391,2.964,23.084,4.98,34.737,6.31c25.564,2.974,56.259,2.802,80.382,0.091
			c3.256,16.885,15.796,174.412,17.006,239.089C767.028,1516.078,767.058,1519.143,767.058,1521.935z"/>
		<path style="fill:#9358E0;" d="M635.894,1263.57c0,0,48.708,43.17,114.063,10.101c-0.051-0.067-20.317-23.637-10.436-56.432
			c6.855-22.754-18.999-58.057-37.597-68.901c0,0-5.485,19.068-35.292,0C629.859,1160.411,649.488,1217.435,635.894,1263.57z"/>
		<path style="fill:#7640CC;" d="M749.959,1273.67c0,0-58.681,23.81-114.065-10.099l-6.035,14.937c0,0,45.229,38.555,121.964,12.896
			L749.959,1273.67z"/>
		<path style="fill:#E57D61;" d="M654.069,1099.322c1.766,10.958,5.466,23.311,14.122,30.56h0.014
			c-4.797-5.956-7.789-19.281-7.789-19.281l2.267-5.927c38.051-12.281,34.744-43.003,34.744-43.003
			c-5.677-4.96-13.295-5.802-20.587-3.989C658.976,1062.301,651.822,1081.594,654.069,1099.322z"/>
		<path style="fill:#662948;" d="M693.499,1058.786c0,0,2.991,30.463-31.062,42.833l-12.222-6.746
			C638.296,1071.489,659.946,1036.817,693.499,1058.786z"/>
		<path style="fill:#F99370;" d="M654.619,1155.379c-27.024,19.987-52.751,57.196-55.414,90.218
			c-2.795,62.646,55.52,67.644,99.953,43.502c9.367-4.76,1.58-19.155-8.471-16.49c-7.322,1.881-12.497,3.527-19.715,3.728
			c-64.067,1.792-31.755-49.722-6.913-72.941C664.06,1203.396,672.689,1142.704,654.619,1155.379z"/>
		<path style="fill:#7640CC;" d="M609.535,1292.16c6.211,3.659,13.877,6.422,23.179,8.053c0,0,0.112-20.477,14.109-27.175
			c0,0-11.86-22.092,4.856-42.373c10.423-12.649,16.433-21.012,18.52-38.463c1.26-10.531-4.945-43.202-4.945-43.202
			c-10.901,2.855-38.724,12.772-58.073,42.933C584.798,1226.828,576.1,1272.467,609.535,1292.16z"/>
		<polygon style="fill:#1D3F70;" points="704.863,1312.897 776.702,1307.376 798.785,1184.401 726.946,1189.922 		"/>
		<path style="fill:#F99370;" d="M782.017,1264.371c3.15,0.615,9.41-2.873,4.625-5.694c-1.82-0.979-3.524-0.106-5,0.487l0.151,0.008
			C776.933,1258.951,777.724,1264.142,782.017,1264.371z"/>
		<path style="fill:#F99370;" d="M783.755,1259.615c2.146-0.246,4.544-1.044,5.563-3.102c1.37-3.31-5.452-5.187-6.658-2.26
			c0.016-0.064,0.078-0.067-0.061,0.005c-0.136,0.068-0.399,0.141-0.577,0.167c-0.005,0.002-0.09,0.011,0.027,0
			C777.148,1255.121,779.928,1260.147,783.755,1259.615z"/>
		<path style="fill:#F99370;" d="M785.762,1254.693l2.975-1.103c4.275-2-0.756-6.162-3.748-4.742c0,0-2.975,1.102-2.975,1.102
			C777.739,1251.951,782.77,1256.113,785.762,1254.693z"/>
		<path style="fill:#F99370;" d="M786.718,1250.14l2.975-1.103c4.275-2-0.756-6.162-3.748-4.742c0,0-2.975,1.102-2.975,1.102
			C778.695,1247.398,783.726,1251.56,786.718,1250.14z"/>
		<path style="fill:#F99370;" d="M689.966,1280.557c0.015-0.704,0.231-1.355,0.587-1.907c-3.318-4.146,0.678-6.984,4.03-9.072
			c6.336-4.117,13.506-6.983,20.991-8.049c2.976-0.425,5.989-0.53,8.965-0.352c2.897,0.108,2.948,4.658,0.007,4.782
			c-3.183,0.197-6.309,0.755-9.333,1.708c3.815-0.409,7.755-0.582,11.594-0.463c2.83-0.026,3.174,4.384,0.331,4.763
			c-5.391,0.768-10.732,2.156-15.871,3.945c5.068-0.602,10.097-1.493,15.078-2.614c2.891-0.689,4.08,3.822,1.196,4.631
			c-5.442,1.67-10.971,3.053-16.566,4.119c2.834-0.169,5.75-0.479,8.565-0.835c2.843-0.407,3.729,4.01,0.896,4.695
			c-1.036,0.275-2.071,0.562-3.112,0.828c-7.365,1.822-14.896,3.215-22.512,3.322c-3.633,0.404-6.175-4.013-3.797-6.856
			C690.348,1282.523,689.944,1281.586,689.966,1280.557z"/>
		<path style="fill:#F99370;" d="M647.109,1104.859c2.696,12.455,17.904,9.239,15.328-3.24
			C659.741,1089.164,644.533,1092.379,647.109,1104.859z"/>
		<path style="fill:#C16256;" d="M651.062,1107.432c0.413,0.005,0.728-0.416,0.6-0.811c-2.373-6.625,0.563-9.41,5.031-7.57
			c0.75,0.309,1.221-0.885,0.457-1.169c-5.23-2.137-9.523,1.174-6.688,9.107C650.544,1107.258,650.793,1107.432,651.062,1107.432z"
			/>
		<path style="fill:#C16256;" d="M656.922,1106.555c1.95-0.155-1.766-6.171-6.528-6.493c-0.337-0.022-0.645,0.239-0.668,0.585
			c-0.023,0.346,0.239,0.645,0.585,0.668C655.182,1101.818,655.77,1106.393,656.922,1106.555z"/>
		<path style="fill:#F4D4BE;" d="M653.971,1110.604c-0.027,1.828,2.845,1.828,2.818,0
			C656.816,1108.775,653.944,1108.775,653.971,1110.604z"/>
		<path style="fill:#C16256;" d="M686.919,1089.484c0.186,0,0.368-0.095,0.473-0.266c3.597-5.929,8.688-6.357,8.739-6.36
			c0.303-0.022,0.533-0.285,0.512-0.589c-0.021-0.303-0.281-0.531-0.586-0.513c-0.231,0.015-5.7,0.445-9.61,6.889
			c-0.158,0.261-0.075,0.6,0.186,0.758C686.723,1089.458,686.822,1089.484,686.919,1089.484z"/>
		<path style="fill:#C16256;" d="M709.26,1083.917c0.184,0,0.364-0.092,0.469-0.26c0.161-0.259,0.082-0.599-0.177-0.76
			c-0.16-0.1-3.976-2.434-8.235-1.48c-0.298,0.067-0.485,0.362-0.418,0.659c0.067,0.297,0.362,0.485,0.66,0.418
			c3.823-0.857,7.375,1.318,7.41,1.34C709.06,1083.89,709.161,1083.917,709.26,1083.917z"/>
		<path style="fill:#1D3F70;" d="M687.959,1273.36c0,0-1.779,10.244,5.848,18.546c0,0-0.65,2.012-4.254,1.931
			c0,0-6.391-8.646-5.686-19.418C683.867,1274.419,685.496,1272.407,687.959,1273.36z"/>
		<path style="fill:#7640CC;" d="M767.058,1521.935c0,0-74.021,40.826-158.112,0.343c0,0,0.564-8.034,1.563-21.25
			c7.409,1.28,16.482,5.01,27.056,13.296c31.925,25.01,51.562,3.861,72.358,0c18.941-3.518,25.221,13.448,57.035-1.562
			C767.028,1516.078,767.058,1519.143,767.058,1521.935z"/>
		<path style="fill:#C16256;" d="M704.075,1112.789c0.625,0,1.266-0.029,1.919-0.093c0.399-0.039,0.69-0.394,0.65-0.792
			c-0.039-0.397-0.392-0.692-0.791-0.65c-6.563,0.643-11.92-2.605-11.973-2.638c-0.341-0.211-0.787-0.104-0.997,0.235
			c-0.21,0.34-0.105,0.786,0.234,0.997C693.329,1109.98,697.94,1112.789,704.075,1112.789z"/>
	</g>
	<g id="_x33__5_">
		<path style="fill:#F99370;" d="M1811.118,1435.238c-0.384-0.215-0.923-0.543-1.269-0.774c-0.009-0.005-0.017-0.012-0.025-0.019
			c14.386,14.147,23.412,32.357,33.207,50.242c6.641,11.611,18.563,32.499-0.505,38.199c-10.224-0.017-10.279,15.609-0.039,15.657
			c1.967,0.157,4.05,0.34,6.012,0.221c36.468-2.209,37.13-43.924,27.112-70.424c-9.28-24.517-21.684-49.076-43.31-65.806
			C1808.109,1386.088,1785.952,1420.24,1811.118,1435.238z"/>
		<path style="fill:#F99370;" d="M1775.306,1435.238c0.384-0.215,0.923-0.543,1.269-0.774c0.009-0.005,0.017-0.012,0.025-0.019
			c-14.386,14.147-23.412,32.357-33.207,50.242c-6.641,11.611-18.562,32.499,0.505,38.199c10.223-0.017,10.279,15.609,0.039,15.657
			c-1.967,0.157-4.05,0.34-6.012,0.221c-36.469-2.209-37.13-43.924-27.112-70.424c9.28-24.517,19.629-48.537,41.255-65.268
			C1776.26,1386.626,1800.472,1420.24,1775.306,1435.238z"/>
		<path style="fill:#3A72AA;" d="M1771.711,1393.329c0,0-30.807,5.319-50.337,28.86c-18.313,22.074-54.501,96.104,3.713,113.344
			l28.866-31.763c0,0-8.616-7.269-4.039-31.771C1754.49,1447.498,1779.097,1410.266,1771.711,1393.329z"/>
		<path style="fill:#3A72AA;" d="M1817.176,1393.7c0,0,29.385,4.949,49.292,28.489c18.52,21.901,54.5,96.104-3.713,113.344
			l-28.866-31.763c0,0,8.616-7.269,4.039-31.771C1833.35,1447.498,1809.789,1410.637,1817.176,1393.7z"/>
		<path style="fill:#3A72AA;" d="M1862.468,1535.149c-43.127,19.316-94.188,19.593-137.382,0.385
			c-1.893-21.849,5.611-28.89,9.236-53.236c7.87-52.86,28.632-86.25,28.632-86.25c16.843-6.694,45.292-7.467,61.601,0.43
			c0,0,23.666,35.097,26.723,83.216C1852.773,1503.231,1862.468,1513.977,1862.468,1535.149z"/>
		<path style="fill:#23659B;" d="M1777.274,1392.201c0,0,2.293,14.587,16.651,14.149c14.358-0.438,16.081-14.284,16.081-14.284
			S1795.449,1387.462,1777.274,1392.201z"/>
		<path style="fill:#F99370;" d="M1793.777,1400.82L1793.777,1400.82c-5.724,0-10.365-4.641-10.365-10.365v-14.115h20.731v14.115
			C1804.143,1396.179,1799.502,1400.82,1793.777,1400.82z"/>
		<path style="fill:#F99370;" d="M1829.832,1347.702c-2.616,12.086-17.373,8.966-14.874-3.144
			C1817.575,1332.473,1832.331,1335.593,1829.832,1347.702z"/>
		<path style="fill:#F99370;" d="M1757.723,1347.702c2.616,12.086,17.373,8.966,14.873-3.144
			C1769.98,1332.473,1755.223,1335.593,1757.723,1347.702z"/>
		<path style="fill:#F99370;" d="M1824.11,1360.758c-1.683,40.468-66.584,34.536-60.18-6.104c0.885-8.06,3.771-13.419,5.125-26.267
			c3.132-29.737,45.39-31.32,49.189-0.222C1819.736,1340.433,1824.206,1349.477,1824.11,1360.758z"/>
		<path style="fill:#C16256;" d="M1792.365,1355.197c-2.947-0.035-7.528-2.022-3.803-4.641c3.044-1.648,5.276-7.951,5.299-8.014
			c0.246-0.746,1.423-0.343,1.15,0.402c-0.097,0.277-2.415,6.813-5.867,8.683c-2.386,1.462,2.587,2.877,4.637,2.154
			c0.323-0.103,0.664,0.074,0.766,0.394C1794.72,1355.269,1793.127,1355.115,1792.365,1355.197z"/>
		<path style="fill:#E57D61;" d="M1773.901,1326.502c14.6,6.78,31.349-15.297,40.291-5.174l1.095-6.184l-17.025-7.987l-27.17,9.458
			L1773.901,1326.502z"/>
		<path style="fill:#8C4225;" d="M1820.031,1337.534c0,0-5.091-9.763-5.839-16.206c-0.748-6.443-9.401-7.567-16.509-2.522
			c-7.108,5.044-15.978,7.337-25.3,3.898c-9.322-3.439-15.354-17.573-5.871-25.91c9.389-8.255,19.155-1.822,27.602,1.376
			C1805.014,1302.297,1832.4,1293.971,1820.031,1337.534z"/>
		<path style="fill:#8C4225;" d="M1767.82,1337.07c0,0,7.622-8.634,8.08-20.099l-8.162-3.21
			C1767.739,1313.761,1764.413,1324.915,1767.82,1337.07z"/>
		<path style="fill:#C16256;" d="M1826.743,1350.113c-0.392,0.005-0.69-0.394-0.569-0.769c2.083-5.937-0.078-8.973-4.768-7.175
			c-0.711,0.296-1.159-0.839-0.434-1.108c4.956-2.027,9.025,1.113,6.339,8.631
			C1827.233,1349.948,1826.998,1350.113,1826.743,1350.113z"/>
		<path style="fill:#C16256;" d="M1821.873,1348.67c-1.848-0.147,0.99-5.238,5.503-5.543c0.325-0.017,0.345,0.246,0.367,0.574
			c0.022,0.328,0.04,0.592-0.288,0.613C1822.838,1344.792,1822.965,1348.517,1821.873,1348.67z"/>
		<path style="fill:#23659B;" d="M1748.536,1427.114c0,0-12.713,18.679-18.098,46.322h5.353
			C1735.791,1473.435,1740.041,1453.332,1748.536,1427.114z"/>
		<path style="fill:#23659B;" d="M1839.619,1427.114c0,0,12.611,18.141,18.951,46.322h-7.811
			C1850.759,1473.435,1850.431,1460.063,1839.619,1427.114z"/>
		<path style="fill:#C16256;" d="M1761.187,1350.113c-0.255,0-0.491-0.165-0.569-0.422c-2.69-7.52,1.394-10.657,6.34-8.63
			c0.719,0.273,0.282,1.397-0.434,1.108c-4.244-1.742-7.014,0.898-4.768,7.176
			C1761.877,1349.718,1761.578,1350.119,1761.187,1350.113z"/>
		<path style="fill:#C16256;" d="M1766.741,1349.281c-1.079-0.142-1.675-4.498-6.266-4.966c-0.328-0.022-0.253-0.285-0.231-0.613
			c0.022-0.328-0.011-0.594,0.31-0.574C1765.066,1343.435,1768.587,1349.127,1766.741,1349.281z"/>
		<path style="fill:#8C4225;" d="M1824.113,1355.048c-1.993-12.248-3.952-17.342-6.708-24.985
			c1.044,8.871,11.581,40.323-7.148,30.349c-11.575-6.153-23.99-3.399-34.356,1.513c-4.88,1.828-9.898,1.492-9.258-5.791
			c0.489-5.564,1.03-14.206,3.073-24.049c-2.451,3.826-3.485,14.204-5.786,22.571c0,0,0-0.001,0-0.001
			C1757.061,1400.102,1829.172,1401.088,1824.113,1355.048z M1803.352,1379.119c-5.988,0.175-5.019-8.023-9.536-7.908
			c-3.632,0.092-3.053,12.38-14.402,7.564c-5.447-2.261-6.026-9.755-1.136-13.053c4.231-2.859,9.929-5.063,15.609-5.288
			c5.374-0.213,10.724,1.156,15.024,3.452C1817.326,1368.964,1811.032,1378.854,1803.352,1379.119z"/>
		<path style="fill:#C16256;" d="M1792.479,1366.165c-1.703,0-2.915-0.242-3.027-0.265c-0.301-0.062-0.495-0.357-0.432-0.658
			c0.062-0.301,0.358-0.496,0.658-0.433c0.058,0.012,5.856,1.161,9.922-1.783c0.249-0.179,0.597-0.124,0.778,0.125
			c0.18,0.249,0.124,0.597-0.125,0.778C1797.728,1365.756,1794.691,1366.165,1792.479,1366.165z"/>
		<path style="fill:#C16256;" d="M1810.052,1335.954c-0.064,0-0.128-0.011-0.192-0.034c-4.952-1.815-10.299-1.506-10.354-1.503
			c-0.304,0.023-0.571-0.214-0.59-0.521c-0.019-0.307,0.214-0.572,0.521-0.591c0.228-0.014,5.637-0.327,10.806,1.569
			c0.289,0.106,0.437,0.426,0.331,0.714C1810.492,1335.814,1810.279,1335.954,1810.052,1335.954z"/>
		<path style="fill:#C16256;" d="M1777.816,1335.954c-0.227,0-0.44-0.14-0.523-0.365c-0.106-0.289,0.042-0.609,0.331-0.714
			c5.169-1.896,10.578-1.583,10.806-1.569c0.307,0.019,0.54,0.283,0.521,0.591c-0.019,0.307-0.286,0.541-0.591,0.521
			c-0.054-0.004-5.41-0.31-10.353,1.503C1777.945,1335.943,1777.88,1335.954,1777.816,1335.954z"/>
		<path style="fill:#F99370;" d="M1737.19,1616.171c0,0-11.324,12.097-18.2,15.117c-9.22,4.05-31.5,10.766-36.059,12.163
			c-12.449,3.817-11.344,15.688,5.143,14.006c20.915-1.081,50.741-2.241,64.74-15.892
			C1771.619,1631.443,1754.754,1603.974,1737.19,1616.171z"/>
		<path style="fill:#F99370;" d="M1849.045,1616.171c0,0,11.324,12.097,18.2,15.117c9.22,4.05,31.5,10.766,36.058,12.163
			c12.45,3.817,11.344,15.688-5.143,14.006c-20.915-1.081-50.741-2.241-64.74-15.892
			C1814.616,1631.443,1831.481,1603.974,1849.045,1616.171z"/>
		<path style="fill:#D1A68F;" d="M1675.692,1530.922c0,0,24.77-1.305,47.798,4.189c32.874,7.843,70.309,12.707,141.183-1.223
			c22.645-4.451,49.401-2.671,49.401-2.671c-13.019,9.196-25.496,17.446-37.6,24.553
			C1807.918,1596.027,1751.313,1599.633,1675.692,1530.922z"/>
		<path style="fill:#163260;" d="M1723.49,1554.524h141.421v-82.138c0-2.177-1.765-3.942-3.942-3.942h-133.537
			c-2.177,0-3.942,1.765-3.942,3.942V1554.524z"/>
		<path style="fill:#E8C0A6;" d="M1840.718,1650.054c-317.191-56.33-214.93-214.818,15.971-37.537
			C1860.296,1635.832,1840.718,1650.054,1840.718,1650.054z"/>
		<path style="fill:#D1A68F;" d="M1840.718,1650.054c-0.352,0.011-3.88-0.611-9.764-1.818c0,0,21.29-14.312,18.665-40.612
			c4.531,3.086,7.07,4.893,7.07,4.893C1860.296,1635.832,1840.718,1650.054,1840.718,1650.054z"/>
		<path style="fill:#D1A68F;" d="M1853.729,1615.567l-7.818,14.344l-42.423,12.659c0,0-7.182-1.561-10.811-2.491L1853.729,1615.567z
			"/>
		<path style="fill:#E8C0A6;" d="M1755.306,1648.456c-5.236,1.064-8.358,1.609-8.689,1.599c0,0-19.578-14.222-15.971-37.537
			C1958.847,1436.735,2060.768,1591.751,1755.306,1648.456z"/>
		<path style="fill:#D1A68F;" d="M1755.306,1648.456c-5.236,1.064-8.358,1.609-8.689,1.599c0,0-19.578-14.222-15.971-37.537
			c0,0,2.521-2.177,7.221-4.997C1737.868,1607.52,1736.404,1631.999,1755.306,1648.456z"/>
		<path style="fill:#D1A68F;" d="M1734.424,1612.766c-0.304,0-0.607-0.129-0.819-0.38c-0.382-0.452-0.325-1.128,0.127-1.51
			c0.349-0.296,35.278-29.72,63.638-45.347c0.518-0.285,1.17-0.098,1.456,0.421c0.286,0.519,0.097,1.17-0.421,1.456
			c-28.176,15.526-62.942,44.813-63.289,45.107C1734.914,1612.683,1734.669,1612.766,1734.424,1612.766z"/>
		<path style="fill:#C16256;" d="M1801.757,1343.787c-0.397-0.782-0.085-1.739,0.697-2.136c0.782-0.397,1.739-0.085,2.136,0.697
			c0.397,0.782,0.085,1.739-0.697,2.136C1803.111,1344.881,1802.154,1344.569,1801.757,1343.787z"/>
		<path style="fill:#C16256;" d="M1782.71,1343.823c-0.397-0.782-0.085-1.739,0.697-2.136c0.782-0.397,1.739-0.085,2.136,0.697
			c0.397,0.783,0.085,1.739-0.697,2.136C1784.064,1344.918,1783.108,1344.606,1782.71,1343.823z"/>
		<path style="fill:#1D3F70;" d="M1672.854,1654.971L1672.854,1654.971c-2.369-8.439,2.551-17.201,10.99-19.57l42.7-9.193
			c0,0,0.613,13.211,11.12,24.235l-45.24,15.518C1683.985,1668.33,1675.224,1663.41,1672.854,1654.971z"/>
		<path style="fill:#E8C0A6;" d="M1693.711,1660.493c-0.064-0.004-0.128-0.013-0.192-0.026c-0.815-0.162-1.345-0.955-1.182-1.77
			c1.891-9.503-5.072-15.744-5.37-16.005c-0.624-0.548-0.688-1.497-0.142-2.123c0.545-0.625,1.494-0.691,2.12-0.147
			c0.352,0.306,8.582,7.614,6.344,18.862C1695.139,1660.036,1694.455,1660.544,1693.711,1660.493z"/>
		<path style="fill:#E8C0A6;" d="M1704.63,1656.087c-0.064-0.005-0.128-0.013-0.192-0.026c-0.815-0.162-1.345-0.955-1.182-1.77
			c1.866-9.377-4.338-13.962-4.603-14.153c-0.673-0.484-0.831-1.422-0.35-2.097c0.481-0.675,1.416-0.837,2.091-0.358
			c0.331,0.233,8.073,5.847,5.814,17.195C1706.058,1655.63,1705.374,1656.138,1704.63,1656.087z"/>
		<path style="fill:#E8C0A6;" d="M1716.09,1651.735c-0.047-0.003-0.094-0.009-0.142-0.017c-0.82-0.134-1.376-0.909-1.241-1.729
			c1.509-9.188-3.717-12.489-3.941-12.625c-0.706-0.43-0.938-1.352-0.513-2.061c0.425-0.709,1.334-0.947,2.048-0.528
			c0.296,0.174,7.234,4.392,5.376,15.702C1717.55,1651.249,1716.855,1651.787,1716.09,1651.735z"/>
		<path style="fill:#1D3F70;" d="M1911.705,1655.611L1911.705,1655.611c2.526-8.393-2.23-17.245-10.623-19.771l-42.266-10.365
			c0,0,0.542,14.168-10.168,24.995l43.287,15.764C1900.328,1668.761,1909.179,1664.005,1911.705,1655.611z"/>
		<path style="fill:#E8C0A6;" d="M1890.75,1660.744c0.064-0.003,0.128-0.011,0.193-0.023c0.818-0.147,1.362-0.93,1.215-1.748
			c-1.713-9.536,5.365-15.647,5.667-15.902c0.634-0.536,0.716-1.484,0.182-2.12c-0.534-0.635-1.48-0.719-2.117-0.187
			c-0.357,0.299-8.723,7.452-6.694,18.741C1889.33,1660.26,1890.005,1660.781,1890.75,1660.744z"/>
		<path style="fill:#E8C0A6;" d="M1879.915,1656.135c0.064-0.003,0.128-0.011,0.193-0.023c0.818-0.147,1.362-0.93,1.215-1.748
			c-1.691-9.41,4.598-13.878,4.866-14.064c0.682-0.471,0.857-1.407,0.389-2.09c-0.469-0.684-1.4-0.863-2.084-0.397
			c-0.335,0.227-8.18,5.695-6.134,17.084C1878.495,1655.651,1879.17,1656.172,1879.915,1656.135z"/>
		<path style="fill:#E8C0A6;" d="M1868.538,1651.57c0.048-0.002,0.095-0.008,0.143-0.015c0.823-0.119,1.393-0.883,1.273-1.705
			c-1.337-9.215,3.949-12.418,4.175-12.55c0.714-0.417,0.963-1.334,0.552-2.052c-0.412-0.717-1.317-0.972-2.038-0.566
			c-0.299,0.168-7.314,4.256-5.668,15.599C1867.087,1651.057,1867.771,1651.608,1868.538,1651.57z"/>
	</g>
	<g id="_x32__2_">
		<path style="fill:#163260;" d="M1409.835,466.614c0,0,9.785-18.97,39.702-13.417c29.917,5.552,37.032,43.494,47.208,60.754
			c21.557,36.562,28.056,75.436,16.913,94.132c-12.376,20.764-39.786,12.692-79.802,9.031
			c-42.703-3.907-60.644-40.938-34.159-91.932L1409.835,466.614z"/>
		<path style="fill:#3A72AA;" d="M1422.375,554.704c-11.671,17.166-19.018,100.795-19.252,107.293
			c-13.76-0.996-46.821-3.391-60.916-4.412c-4.026-30.604,36.467-93.438,73.475-100.929c0-0.01,0-0.01,0-0.01
			C1419.848,555.224,1422.375,554.704,1422.375,554.704z"/>
		<path style="fill:#F99370;" d="M1249.607,1015.947l59.47-0.741c-0.167-9.506-2.727-28.693-0.856-39.542
			c-0.002,0-25.667,3.35-25.667,3.35c0.719,5.21,2.317,16.507-6.327,19.224c-11.199,3.52-23.399,2.46-30.379,11.092
			C1244.036,1012.229,1246.189,1015.989,1249.607,1015.947z"/>
		<path style="fill:#1D3F70;" d="M1310.747,1009.458c-0.218,2.014-0.749,3.974-1.735,5.749l-60.049,0.747
			c-2.92,0.036-5.069-2.811-4.135-5.578c2.2-6.465,9.586-15.879,37.247-17.671c0,0,10.136,1.598,25.583-1.398
			C1307.658,991.308,1311.641,1001.293,1310.747,1009.458z"/>
		<path style="fill:#E8C0A6;" d="M1262.545,1008.036c-0.475,0.001-0.928-0.28-1.123-0.746c-2.268-5.401-6.258-7.013-6.427-7.079
			c-3.193-4.84,5.9-1.481,8.669,6.137C1264.012,1007.126,1263.39,1008.051,1262.545,1008.036z"/>
		<path style="fill:#E8C0A6;" d="M1271.985,1006.778c-0.515,0.001-0.993-0.328-1.159-0.843c-2.024-6.263-7.536-9.1-7.591-9.128
			c-2.914-5.638,7.669,0.303,9.906,8.38C1273.403,1005.954,1272.792,1006.788,1271.985,1006.778z"/>
		<path style="fill:#E8C0A6;" d="M1282.725,1005.321c-0.498,0.001-0.966-0.308-1.146-0.803c-2.352-6.501-7.643-9.991-7.696-10.025
			c-2.263-5.918,7.369,1.172,9.984,9.197C1284.165,1004.462,1283.548,1005.334,1282.725,1005.321z"/>
		<path style="fill:#395B96;" d="M1244.928,1010.278l65.885-0.82c-0.218,2.014-0.749,3.974-1.735,5.749l-60.049,0.747
			C1246.069,1015.995,1243.911,1013.058,1244.928,1010.278z"/>
		<path style="fill:#CE4ABF;" d="M1437.679,788.621c-29.273-1.187-80.289-17.233-102.228,20.038
			c-24.02,40.706-17.998,126.978-15.502,168.67c-32.118,10.394-49.409,0.073-49.409,0.073
			c-13.815-85.334-59.185-279.686,91.613-252.932c-0.003-0.006,101.102-0.154,101.102-0.154
			C1480.217,758.761,1465.139,788.004,1437.679,788.621z"/>
		<path style="fill:#F99370;" d="M1320.923,1015.838l59.47-0.74c-0.167-9.506-2.727-28.693-0.856-39.542
			c-0.002,0-25.666,3.353-25.666,3.353c0.719,5.21,2.518,16.507-6.328,19.22c-11.223,3.443-23.399,2.46-30.379,11.092
			C1315.352,1012.12,1317.504,1015.881,1320.923,1015.838z"/>
		<path style="fill:#1D3F70;" d="M1382.129,1009.35c-0.217,2.014-0.749,3.975-1.735,5.749l-60.049,0.747
			c-2.92,0.036-5.069-2.811-4.135-5.577c2.2-6.466,9.676-16.041,37.336-17.833c0,0,9.989,1.998,25.436-0.997
			C1378.982,991.438,1383.023,1001.185,1382.129,1009.35z"/>
		<path style="fill:#E8C0A6;" d="M1333.86,1007.928c-0.475,0.001-0.928-0.28-1.124-0.746c-2.268-5.401-6.258-7.013-6.426-7.079
			c-3.193-4.84,5.899-1.48,8.669,6.137C1335.328,1007.018,1334.705,1007.943,1333.86,1007.928z"/>
		<path style="fill:#E8C0A6;" d="M1343.3,1006.669c-0.515,0.001-0.993-0.328-1.159-0.843c-2.024-6.263-7.536-9.1-7.591-9.128
			c-2.914-5.638,7.669,0.303,9.906,8.38C1344.719,1005.846,1344.107,1006.68,1343.3,1006.669z"/>
		<path style="fill:#E8C0A6;" d="M1354.041,1005.213c-0.499,0.001-0.966-0.308-1.146-0.803c-2.352-6.501-7.643-9.991-7.697-10.025
			c-2.263-5.918,7.369,1.172,9.984,9.197C1355.48,1004.354,1354.863,1005.226,1354.041,1005.213z"/>
		<path style="fill:#395B96;" d="M1316.244,1010.17l65.885-0.82c-0.217,2.014-0.749,3.975-1.735,5.749l-60.049,0.747
			C1317.384,1015.887,1315.226,1012.95,1316.244,1010.17z"/>
		<path style="fill:#A523A2;" d="M1370.384,724.452l-8.555,63.046c-37.781,14.944-40.443,54.724-43.827,99.505
			C1300.394,817.851,1301.81,747.921,1370.384,724.452z"/>
		<path style="fill:#CE4ABF;" d="M1484.928,794.511c-32.132,16.173-70.38-4.653-91.86,38.871
			c-17.331,38.105-7.474,110.86-2.651,143.843c-32.119,10.394-49.41,0.073-49.41,0.073
			c-19.161-73.601-62.989-244.647,60.136-252.888c33.716-1.123,78.023-0.893,107.822-2.732
			C1508.966,721.677,1524.661,774.513,1484.928,794.511z"/>
		<path style="fill:#23659B;" d="M1370.911,636.373c-0.588,0.004-1.063-0.509-1.01-1.096c1.988-16.711,19.656-38.394,21.985-37.241
			c1.589,2.039-18.797,20.009-19.968,37.411C1371.872,635.975,1371.431,636.373,1370.911,636.373z"/>
		<path style="fill:#3A72AA;" d="M1509.537,704.26c2.639,18.645,1.346,26.529,1.346,26.529
			c-49.649,6.246-80.959,6.581-141.436-1.776c38.019-114.438-47.831-40.767,52.929-174.31c0.242,0.02,24.773,2.204,24.996,2.219
			C1475.787,578.229,1494.114,606.507,1509.537,704.26z"/>
		<polygon style="fill:#163260;" points="1265.23,731.149 1399.042,730.952 1372.256,632.906 1239.252,633.102 		"/>
		
			<rect x="1265.234" y="730.565" transform="matrix(1 -0.0015 0.0015 1 -1.0784 1.9608)" style="fill:#234270;" width="133.813" height="6.661"/>
		<polygon style="fill:#0B274F;" points="1370.245,632.909 1375.033,632.902 1401.271,730.463 1464.774,730.37 1464.783,737.03 
			1396.823,737.13 1396.814,731.173 		"/>
		<path style="fill:#F99370;" d="M1491.399,575.854c30.88,23.074,47.417,64.657,39.325,102.504
			c-3.09,21.258-16.471,41.491-37.439,47.538c-10.351,4.157-58.653,10.89-56.428-6.263c0.76-4.115,4.406-5.636,7.939-6.74
			c5.822-2.062,11.821-4.34,17.371-6.873c9.938-5.177,22.717-10.032,24.866-21.202c4.572-26.08-6.149-51.556-25.657-68.548
			c0.035,0.02-0.092-0.078,0.196,0.131C1435.141,596.772,1464.809,556.473,1491.399,575.854z"/>
		<path style="fill:#3A72AA;" d="M1510.101,721.212c-15.696,7.035-30.567,9.21-42.001,9.64c0,0,2.615-17.067-9.725-24.078
			c69.383-52.891-29.858-74.962-10.918-152.557C1521.936,555.437,1599.001,668.214,1510.101,721.212z"/>
		<path style="fill:#F99370;" d="M1407.399,730.454c0,0,5.93-20.846,41.51-18.498l7.478,18.426L1407.399,730.454z"/>
		<path style="fill:#23659B;" d="M1476.352,730.264c-5.086,0.574-8.252,0.589-8.252,0.589s2.615-17.067-9.725-24.078
			c0,0,3.031-1.977,6.991-5.482C1465.365,701.292,1478.893,711.194,1476.352,730.264z"/>
		<path style="fill:#23659B;" d="M1464.735,704.208c-0.898,0.022-1.38-1.192-0.664-1.777c30.804-27.53,15.653-56.601-2.722-75.419
			c-0.902-0.923,0.601-2.369,1.483-1.378C1482.371,645.11,1497.22,677.317,1464.735,704.208z"/>
		<path style="fill:#23659B;" d="M1475.688,730.371c-5.772-3.351,16.197-1.708,32.892-9.629c0.517-0.212,1.108,0.033,1.322,0.549
			c0.213,0.516-0.033,1.109-0.55,1.321C1492.098,729.717,1475.912,730.366,1475.688,730.371z"/>
		<path style="fill:#F4D4BE;" d="M1454.385,585.421c-0.704,5.333-5.8,7.003-7.075,6.721c-17.927-7.629-5.147,16.53-12.513,19.002
			c-6.195,2.08-6.944-6.003-12.348-6.438c-7.846-0.631-9.435,3.643-12.193,1.051c-3.84-3.61,5.437-9.936,4.237-16.405
			c-0.843-4.541-9.868,0.038-9.763-9.313c0.128-9.185,10.619-22.959,10.953-23.384c0-0.01,0-0.01,0-0.01
			c9.952-5.294,31.774-2.429,31.774-2.429s2.881-0.64,5.659,0.408C1454.492,562.09,1455.794,577.413,1454.385,585.421z"/>
		<path style="fill:#F99370;" d="M1422.965,545.817l-0.591,8.887c0,0-0.818,8.548-0.795,24.438
			c0.033,22.338,5.547,19.729,13.177,4.113c4.192-8.581,12.701-29.037,12.701-29.037l1.156-15.63L1422.965,545.817z"/>
		<path style="fill:#E57D61;" d="M1452.696,520.337c-0.101,0.422-0.219,0.85-0.359,1.259c-0.536-0.434-3.245,13.963-4.335,25.238
			c-10.678,6.276-23.366,5.856-25.486,5.206c0.546-16.68,1.912-41.64,14.747-46.309
			C1445.872,502.983,1455.012,511.462,1452.696,520.337z"/>
		<path style="fill:#163260;" d="M1420.232,465.44c-32.278-3.824-37.323,47.127-15.363,65.838L1420.232,465.44z"/>
		<path style="fill:#F99370;" d="M1458.331,501.28c1.573,11.122,1.694,24.17-4.504,33.768l-0.014,0.004
			c-16.939,27.795-73.149,9.975-57.804-22.977c2.256-4.206,3.522-9.317,3.685-13.651
			C1400.136,452.949,1453.779,462.413,1458.331,501.28z"/>
		<path style="fill:#C16256;" d="M1415.88,507.265c-1.54-1.541,0.916-3.923,2.41-2.338
			C1419.829,506.468,1417.374,508.851,1415.88,507.265z"/>
		<path style="fill:#C16256;" d="M1401.697,509.173c-1.539-1.541,0.916-3.923,2.41-2.338
			C1405.646,508.376,1403.191,510.759,1401.697,509.173z"/>
		<path style="fill:#C16256;" d="M1410.167,521.773c-2.837,0.456-6.952-0.274-4.272-3.682c2.52-2.577,2.803-9.548,2.805-9.617
			c0.017-0.816,1.313-0.783,1.271,0.046c-0.011,0.306-0.304,7.532-3.168,10.46c-0.324,0.333-0.661,0.789-0.422,1.071
			c0.677,0.798,3.872,0.926,5.707-0.355c0.281-0.201,0.683-0.131,0.884,0.157C1413.448,521.178,1411.154,521.468,1410.167,521.773z"
			/>
		<path style="fill:#E57D61;" d="M1458.331,501.28c1.573,11.122,1.694,24.169-4.504,33.768l-0.014,0.004
			c2.855-7.193,1.759-20.97,1.759-20.97l-3.966-5.051c-40.458-0.482-46.451-30.999-46.451-30.999
			C1422.336,453.611,1456.183,475.642,1458.331,501.28z"/>
		<path style="fill:#163260;" d="M1408.251,474.194c0,0,6.06,30.046,42.679,31.811l9.795-10.179
			C1465.248,469.656,1434.11,442.915,1408.251,474.194z"/>
		<path style="fill:#F99370;" d="M1466.717,504.549c1.318,12.723-14.756,14.205-15.786,1.455
			C1449.613,493.283,1465.686,491.8,1466.717,504.549z"/>
		<path style="fill:#C16256;" d="M1462.926,501.262c0,0,0-0.001-0.001-0.001c-1.644-5.041-11.344,0.36-7.213,0.544
			c0.016-0.223,4.313-2.806,5.657-0.572c-4.235,2.006-5.636,9.909-3.187,7.352c0.004-0.048,0.509-4.548,3.84-6.253
			C1463.695,513.822,1465.188,505.846,1462.926,501.262z"/>
		<path style="fill:#F4D4BE;" d="M1461.803,512.157c0.573,1.759-2.203,2.619-2.724,0.844
			C1458.506,511.241,1461.282,510.381,1461.803,512.157z"/>
		<path style="fill:#23659B;" d="M1421.635,617.009c0.06,3.685-5.73,3.694-5.681,0.008
			C1415.894,613.332,1421.684,613.323,1421.635,617.009z"/>
		<path style="fill:#23659B;" d="M1416.086,637.022c0.059,3.686-5.73,3.694-5.681,0.008
			C1410.345,633.344,1416.134,633.336,1416.086,637.022z"/>
		<path style="fill:#23659B;" d="M1416.112,655.023c0.059,3.686-5.73,3.694-5.681,0.008
			C1410.371,651.346,1416.161,651.338,1416.112,655.023z"/>
		<path style="fill:#A523A2;" d="M1319.096,963.008c0.539,8.93,0.854,14.321,0.854,14.321c-32.118,10.394-49.409,0.073-49.409,0.073
			s-0.641-4.436-2.037-12.162C1268.887,965.431,1289.013,975.291,1319.096,963.008z"/>
		<path style="fill:#A523A2;" d="M1390.418,977.225c-32.119,10.394-49.41,0.073-49.41,0.073s-1.085-4.135-2.916-11.274
			c0,0,17.731,9.189,50.63-0.074C1389.703,973.008,1390.418,977.225,1390.418,977.225z"/>
		<path style="fill:#E57D61;" d="M1409.341,730.241c-6.322,0.204,16.669-15.619,23.54-11.768c0.057,0.557-0.346,1.054-0.902,1.111
			C1419.03,720.956,1410.432,730.2,1409.341,730.241z"/>
		<path style="fill:#E57D61;" d="M1419.09,730.584c-4.801-2.041,10.098-5.572,17.473-7.58c0.543-0.116,1.083,0.237,1.197,0.784
			c0.114,0.547-0.237,1.082-0.784,1.196C1429.119,726.615,1419.882,730.497,1419.09,730.584z"/>
		<path style="fill:#C16256;" d="M1421.143,502.102c-0.155,0-0.312-0.049-0.443-0.152c-4.044-3.155-7.716-2.122-7.869-2.076
			c-0.381,0.113-0.781-0.103-0.894-0.484c-0.114-0.38,0.099-0.779,0.479-0.894c0.18-0.056,4.513-1.315,9.17,2.318
			c0.313,0.245,0.37,0.697,0.125,1.01C1421.568,502.007,1421.357,502.102,1421.143,502.102z"/>
		<path style="fill:#C16256;" d="M1411.293,526.817c0.099-0.119,0.237-0.208,0.4-0.243c5.013-1.082,6.574-4.563,6.637-4.711
			c0.158-0.365,0.58-0.533,0.944-0.376c0.364,0.156,0.535,0.575,0.38,0.941c-0.072,0.174-1.882,4.307-7.656,5.553
			c-0.389,0.084-0.772-0.163-0.855-0.551C1411.094,527.204,1411.156,526.981,1411.293,526.817z"/>
		<path style="fill:#C16256;" d="M1400.012,503.87c-0.139,0-0.279-0.039-0.402-0.122c-0.33-0.222-0.417-0.669-0.195-0.999
			c0.094-0.14,2.332-3.414,6.072-3.275c0.397,0.015,0.707,0.349,0.692,0.746c-0.015,0.397-0.346,0.715-0.746,0.692
			c-2.939-0.09-4.804,2.614-4.823,2.641C1400.47,503.758,1400.243,503.869,1400.012,503.87z"/>
	</g>
	<g id="_x31_">
		<path style="fill:#F99370;" d="M2282.122,1094.457c0,0,1.805,5.615,6.867,7.958s4.148-7.354,4.148-7.354L2282.122,1094.457z"/>
		<path style="fill:#9358E0;" d="M2460.399,1137.084c-31.629,27.644-78.984,36.591-114.303,10.009l0-0.038
			c-10.508-7.605-21.148-20.02-28.566-32.867l8.563-13.899c68.8,41.943,95.571-30.389,151.312-36.302l-11.078,16.355
			C2466.327,1080.342,2461.365,1135.951,2460.399,1137.084z"/>
		<path style="fill:#F99370;" d="M2526.067,1618.745l1.044-0.552c0.004,0.732,0.923,3.272,1.656,3.268l30.948,0.476
			c0.732-0.004,1.176-1.385,1.172-2.118l2.635-0.769c-0.024-4.634-0.414-6.312-2.48-9.887c-7.575-9.96,1.173-54.726,0.852-66.408
			c1.839-3.204-32.59-0.518-33.075-1.27c-0.774,0.005-1.38,0.668-1.314,1.439l4.32,51.077
			C2533.693,1603.694,2526.278,1609.598,2526.067,1618.745z"/>
		<path style="fill:#F99370;" d="M2391.951,1623.897l61.638-0.321c5.379-0.245,5.31-5.732,4.296-9.982
			c-3.474-15.321,2.342-50.574,3.371-66.355c0.281-2.89-1.999-5.389-4.903-5.374l-27.203,0.142
			c-2.948,0.015-5.216,2.612-4.833,5.535l5.153,39.422c2.777,17.124-17.647,20.497-29.293,22.453
			C2392.507,1610.011,2379.729,1620.551,2391.951,1623.897z"/>
		<path style="fill:#103663;" d="M2460.25,1617.147c-0.15,3.023-1.631,6.479-5.132,6.422c0,0-63.936,0.333-63.936,0.333
			c-15.109-5.515,6.644-25.902,36.164-25.937c13.549,3.642,29.47,0.112,29.47,0.112
			C2459.583,1600.041,2460.448,1606.595,2460.25,1617.147z"/>
		<path style="fill:#103663;" d="M2558.639,1623.029l-27.326,0.143c-13.327-1.749-3.952-25.327,13.526-25.593
			C2562.407,1597.31,2571.937,1621.165,2558.639,1623.029z"/>
		<path style="fill:#E8C0A6;" d="M2406.379,1615.17c0.938,0.011,1.628-1.009,1.249-1.875c-2.953-7.178-8.411-9.365-8.642-9.455
			c-1.629-0.659-2.637,1.912-0.987,2.531c0.213,0.087,4.635,1.926,7.116,7.957
			C2405.332,1614.854,2405.842,1615.172,2406.379,1615.17z"/>
		<path style="fill:#E8C0A6;" d="M2416.929,1613.841c0.895,0.008,1.575-0.914,1.289-1.767c-2.433-9.034-14.193-15.755-10.996-9.439
			c0.108,0.056,6.216,3.312,8.405,10.255C2415.81,1613.472,2416.349,1613.844,2416.929,1613.841z"/>
		<path style="fill:#E8C0A6;" d="M2428.935,1612.301c0.913,0.009,1.597-0.951,1.273-1.812c-2.856-8.983-13.552-16.978-11.075-10.351
			c0.059,0.038,5.939,3.979,8.514,11.257C2427.846,1611.955,2428.373,1612.304,2428.935,1612.301z"/>
		<path style="fill:#E8C0A6;" d="M2554.683,1605.651c1.326,0.043,1.876-1.896,0.674-2.536c-9.193-5.315-20.607-0.176-21.088,0.045
			c-1.604,0.712-0.461,3.23,1.134,2.469C2535.511,1605.289,2547.021,1601.092,2554.683,1605.651z"/>
		<path style="fill:#0F2E54;" d="M2386.675,1617.53l73.575-0.384c-0.19,1.646-0.567,3.257-1.194,4.778
			c-0.406,0.984-1.361,1.631-2.426,1.636l-65.448,0.341C2387.878,1623.924,2385.518,1620.624,2386.675,1617.53z"/>
		<path style="fill:#0F2E54;" d="M2558.639,1623.029l-27.326,0.143c-3.477,0.022-6.29-2.893-6.094-6.363l39.447-0.206
			C2564.895,1620.07,2562.116,1623.015,2558.639,1623.029z"/>
		<path style="fill:#662948;" d="M2463.334,997.084c0,0-3.568-19.66,13.674-26.096l10.938,8.151L2463.334,997.084z"/>
		<path style="fill:#1D3F70;" d="M2566.441,1588.116c0,0-29.108,7.231-44.162-0.297c-8.071-48.967-30.477-185.314-38.52-278.785
			c-0.261,5.454-14.989,225.44-17.73,279.079c-10.348,3.523-31.171,7.816-42.88-0.525c-5.534-56.422-23.329-242.186,1.225-394.106
			c0,0,69.495,7.364,123.649-9.309C2563.205,1232.242,2568.714,1530.324,2566.441,1588.116z"/>
		<path style="fill:#163356;" d="M2434.337,1582.842c-7.968-162.196,7.646-301.81,5.186-303.461
			C2435.24,1279.748,2419.545,1420.609,2434.337,1582.842z"/>
		<path style="fill:#163356;" d="M2543.478,1582.273c-3.698-166.692-29.294-324.465-33.038-325.046
			C2507.649,1259.34,2532.812,1415.297,2543.478,1582.273z"/>
		<path style="fill:#F99370;" d="M2476.895,1063.437c-1.585-13.209,0.385-32.289,2.186-40.143
			c3.242-15.491,27.812-9.631,23.813,5.601c-0.793-0.493-3.18,27.56-1.391,35.334
			C2524.567,1071.017,2455.428,1094.094,2476.895,1063.437z"/>
		<path style="fill:#E57D61;" d="M2503.123,1027.617c-0.058,0.427-0.132,0.86-0.229,1.277c-0.572-0.375-2.088,15.104-2.044,26.333
			c-10.526,4.853-22.265,2.815-24.421,2.384c-0.615-14.298,0.899-27.198,2.946-35.346
			C2483.58,1008.473,2505.232,1013.378,2503.123,1027.617z"/>
		<path style="fill:#F99370;" d="M2518.1,1016.766c-1.728,11-5.39,23.406-14.045,30.712l-0.014,0
			c-3.519,2.943-7.752,4.794-12.29,5.71c-25.067,7.684-56.073-23.056-35.865-44.226c3.356-3.336,6.037-7.816,7.445-11.877
			C2477.356,954.064,2524.633,978.222,2518.1,1016.766z"/>
		<path style="fill:#F9F8F3;" d="M2465.265,1029.707l14.386-7.421C2481.15,1030.872,2471.686,1036.692,2465.265,1029.707z"/>
		<path style="fill:#7640CC;" d="M2432.108,1119.573l-10.492,39.302c-22.873,7.16-50.255,5.609-69.117-7.424
			c23.757,13.256,56.466,5.545,61.559-2.338C2419.421,1140.76,2431.375,1120.782,2432.108,1119.573z"/>
		<path style="fill:#C16256;" d="M2476.121,1010.152c-1.013-1.907,2.004-3.455,2.961-1.519
			C2480.096,1010.54,2477.078,1012.088,2476.121,1010.152z"/>
		<path style="fill:#C16256;" d="M2462.121,1007.856c-1.014-1.906,2.004-3.455,2.961-1.519
			C2466.096,1008.243,2463.078,1009.791,2462.121,1007.856z"/>
		<path style="fill:#E57D61;" d="M2518.1,1016.766c-1.728,11-5.39,23.406-14.045,30.712l-0.014,0
			c-0.718,0.602-1.471,1.161-2.253,1.67c6.583-6.585,10.356-20.667,10.356-20.667l-1.602-11.907
			c-10.708-10.766-6.165-22.94-6.165-22.94c-17.818,5.076-23.872-5.908-23.872-5.908c-5.636,0.75-11.579-2.072-11.579-2.072
			C2489.783,956.493,2524.406,987.536,2518.1,1016.766z"/>
		<path style="fill:#C16256;" d="M2465.368,1030.328c0.277-0.445,15.821-7.264,14.844-8.331c0.062-1.567-14.89,7.318-15.235,7.15
			C2464.344,1029.45,2464.689,1030.464,2465.368,1030.328z"/>
		<path style="fill:#C16256;" d="M2468.546,1022.221c1.123,0.156,1.788-1.487,0.38-1.383c-2.116,0.771-7.26-0.691-4.803-2.207
			c3.564-1.911,8.031-11.526,4.841-9.411c-0.023,0.066-2.31,6.592-5.445,8.307
			C2459.332,1020.538,2465.391,1022.747,2468.546,1022.221z"/>
		<path style="fill:#9358E0;" d="M2414.612,1258.782c5.144,2.721,36.839,12.677,63.875,12.265
			c20.723-0.318,46.695-6.651,63.324-11.784c9.752-3.003,16.295-5.597,16.7-6.323c8.966-16.04-11.881-73.451-28.563-118.705
			c-9.465-25.673-17.589-47.428-18.173-55.501c0.561-4.862-8.79-13.891-10.27-14.507c-29.255,18.926-24.794-0.053-24.626-0.778
			c0,0-26.451,11.813-38.065,31.04C2421.418,1123.27,2398.309,1250.15,2414.612,1258.782z"/>
		<path style="fill:#662948;" d="M2457.133,969.25c0,0,8.106-3.738,17.372-1.754c0.453-3.465,1.985-6.846,4.891-9.802
			c2.08,3.778,4.732,7.296,7.621,10.507c-0.457-7.672,3.185-14.555,3.185-14.555c2.434,7.021,13.277,10.572,19.276,17.617
			c0,0,28.14,4.743,12.981,31.26l-0.001-0.001c0.643,8.783-2.138,18.233-2.138,18.233c-16.084-10.465-15.601-26.306-9.906-31.344
			c-10.728,5.918-21.666,2.802-28.643-3.815C2473.066,985.587,2461.946,982.682,2457.133,969.25z"/>
		<path style="fill:#F99370;" d="M2525.106,1022.292c-2.433,12.445-18.102,9.197-15.389-3.19
			C2512.151,1006.659,2527.82,1009.906,2525.106,1022.292z"/>
		<path style="fill:#C16256;" d="M2521.251,1024.883c2.228-3.263,1.446-7.998,0.002-9.111c-2.616-1.929-6.813-0.957-6.601,0.377
			c0.792,1.251,3.308-1.424,5.75,0.553C2522.913,1018.082,2519.399,1024.454,2521.251,1024.883z"/>
		<path style="fill:#C16256;" d="M2515.369,1024.025c0.938-0.223,1.771-4.783,6.512-5.275c0.345-0.018,0.608-0.326,0.584-0.672
			C2518.894,1015.483,2512.608,1024.542,2515.369,1024.025z"/>
		<path style="fill:#163356;" d="M2466.029,1588.112c0.023-0.042-3.757,1.415-8.985,2.442c0,0,13.506-218.306,15.535-247.44
			c2.03-29.135,11.18-34.081,11.18-34.081S2465.762,1583.401,2466.029,1588.112z"/>
		<path style="fill:#7640CC;" d="M2530.828,1186.499c15.069,24.251,15.604,52.745,10.982,72.764
			c9.752-3.003,16.295-5.597,16.7-6.323c8.966-16.04-11.881-73.451-28.563-118.705l-25.294-10.095
			C2504.654,1124.141,2512.565,1157.097,2530.828,1186.499z"/>
		<path style="fill:#163356;" d="M2466.551,1577.529c-0.359,6.297-0.553,10.063-0.522,10.583
			c-10.348,3.523-31.171,7.816-42.88-0.525c0,0-0.316-3.456-0.955-9.827C2422.194,1577.76,2442.603,1587.051,2466.551,1577.529z"/>
		<path style="fill:#163356;" d="M2566.441,1588.116c0,0-29.108,7.231-44.162-0.297c0,0-0.64-3.79-1.759-10.571
			c0,0,20.559,5.646,46.216-0.241C2566.885,1583.622,2566.346,1587.568,2566.441,1588.116z"/>
		<path style="fill:#9358E0;" d="M2510.539,1065.791c69.426,12.648,109.311,113.649,76.412,178.773
			c-4.899,9.698-14.988,24.879-25.977,34.846l-15.54-5.398c26.448-76.113-33.379-97.257-51.759-186.857L2510.539,1065.791z"/>
		<path style="fill:#7640CC;" d="M2548.053,1265.672c8.743-1.899,18.374,8.311,18.374,8.311c-1.718,1.776-3.566,3.694-5.453,5.427
			l-15.54-5.398C2546.275,1271.156,2547.205,1267.993,2548.053,1265.672z"/>
		<path style="fill:#F99370;" d="M2523.599,1291.844c2.823,2.798,8.095-3.987,11.7-4.36c-1.266,5.958-4.265,11.595-4.249,11.633
			c-4.691,5.908-9.694,11.551-14.953,16.97c-2.361,11.011,16.757-9.863,19.278-11.675c0.031,0.021,0.063,0.041,0.095,0.062
			c-3.515,7.077-7.424,13.973-11.887,20.495c0.147,11.766,15.806-15.491,17.81-18.099c0.019,0.004,0.037,0.007,0.055,0.011
			c-2.179,7.215-5.243,14.168-9.004,20.706c1.201,11.834,14.978-17.066,16.095-20.187c0.03-0.001,0.06-0.002,0.089-0.004
			c0.434,5.026-6.364,17.072-3.466,19.811c5.628,1.958,15.855-35.74,15.813-47.798c-0.01-2.901-11.521-7.875-15.525-5.384
			c-3.454,2.149-7.77,5.515-9.299,6.812C2532.448,1283.17,2522.856,1286.987,2523.599,1291.844z"/>
		<path style="fill:#C16256;" d="M2484.412,1007.296c0.098-0.016,0.194-0.051,0.285-0.106c0.378-0.229,0.5-0.721,0.272-1.099
			c-0.116-0.194-2.922-4.747-8.575-5.287c-0.441-0.043-0.833,0.281-0.875,0.722c-0.042,0.441,0.281,0.833,0.722,0.875
			c4.83,0.461,7.329,4.479,7.354,4.52C2483.771,1007.209,2484.099,1007.348,2484.412,1007.296z"/>
		<path style="fill:#C16256;" d="M2462.619,1002.528c0.14-0.023,0.275-0.084,0.391-0.183c2.161-1.851,5.346-0.868,5.378-0.858
			c0.419,0.135,0.873-0.096,1.008-0.519c0.135-0.421-0.094-0.872-0.515-1.008c-0.164-0.053-4.062-1.279-6.915,1.167
			c-0.336,0.289-0.375,0.795-0.087,1.131C2462.068,1002.479,2462.351,1002.572,2462.619,1002.528z"/>
		<path style="fill:#FFD2D2;" d="M2510.539,1065.791c0.217,11.196-28.455,21.23-30.083,21.253l-3.497-10.17
			c-4.414,1.114-8.275,7.323-8.275,7.323c-12.804-12.072-0.878-22.717,8.205-20.761c0,0,0,0.007-0.007,0.014
			c-0.173,0.724-2.089,17.348,24.51,0.201C2504.82,1062.043,2510.539,1065.791,2510.539,1065.791z"/>
		<path style="fill:#7640CC;" d="M2336.751,1106.05c0.008,8.947-13.524,17.276-13.524,17.276c-1.373-2.055-4.736-7.116-5.697-9.139
			l8.563-13.899C2328.705,1101.714,2334.294,1104.858,2336.751,1106.05z"/>
		<path style="fill:#F99370;" d="M2325.611,1095.329c-1.988-3.019-4.473-6.188-7.064-9.943l-23.848,21.649l24.729,10.314
			c0,0,8.57-3.839,10.788-14.657C2330.216,1102.693,2326.494,1096.67,2325.611,1095.329z"/>
		<polygon style="fill:#163356;" points="2309.912,1059.811 2280.474,1059.8 2291.444,1114.696 2320.882,1114.707 		"/>
		<polygon style="fill:#E9EDF4;" points="2308.239,1062.916 2284.135,1062.907 2293.117,1107.856 2317.221,1107.865 		"/>
		<polygon style="fill:#2E619E;" points="2288.99,1117.35 2291.444,1114.696 2280.474,1059.8 2278.019,1062.453 		"/>
		<polygon style="fill:#2E619E;" points="2318.427,1117.361 2320.882,1114.707 2291.444,1114.696 2288.99,1117.35 		"/>
		<path style="fill:#F99370;" d="M2288.169,1097.161c-8.622,0.851-7.966-9.015,0.262-5.301l-0.15,0.01
			C2292.949,1091.477,2292.545,1096.886,2288.169,1097.161z"/>
		<path style="fill:#F99370;" d="M2286.333,1092.346c-9.81-0.654-4.955-10.693,0.976-5.467c-0.161-0.081,0.769,0.236,0.614,0.167
			C2292.582,1087.492,2290.405,1092.832,2286.333,1092.346z"/>
		<path style="fill:#F99370;" d="M2284.226,1087.364l-2.99-1.085c-4.107-1.65,0.266-6.337,3.634-4.869c0,0,2.99,1.085,2.99,1.085
			C2291.967,1084.146,2287.594,1088.832,2284.226,1087.364z"/>
		<path style="fill:#F99370;" d="M2283.174,1082.745l-2.99-1.085c-4.107-1.65,0.266-6.337,3.634-4.869c0,0,2.991,1.085,2.991,1.085
			C2290.915,1079.527,2286.542,1084.214,2283.174,1082.745z"/>
		<path style="fill:#F99370;" d="M2318.952,1102.693c0,0,6.866-14.848-7.079-24.691c-7.5-5.293-8.41,1.484-3.715,5.169
			c4.695,3.685,8.895,15.493,8.895,15.493L2318.952,1102.693z"/>
	</g>
</g>
</svg>
