<?xml version="1.0" encoding="utf-8"?>
<!-- Generator: Adobe Illustrator 27.5.0, SVG Export Plug-In . SVG Version: 6.00 Build 0)  -->
<svg version="1.1" id="Layer_1" xmlns="http://www.w3.org/2000/svg" xmlns:xlink="http://www.w3.org/1999/xlink" x="0px" y="0px"
	 viewBox="0 0 3000 2000" style="enable-background:new 0 0 3000 2000;" xml:space="preserve">
<rect style="fill:#FFFFFF;" width="3000" height="2000"/>
<g>
	<path style="fill:#EDF4FF;" d="M224.95,1708.949c0.133,0.095,2603.373-0.309,2603.373-0.309
		c80.217-164.362,122.533-346.449,77.306-524.51c-54.234-213.557-236.375-357.035-357.396-411.906
		c-99.186-45.142-191.127-51.023-272.46-43.54c-62.88,5.786-119.431,19.568-168.07,29.396
		c-34.322,6.964-66.514,12.265-93.381,10.513c-44.627-2.916-79.605-34.86-111.062-68.132
		c-111.486-117.804-239.147-321.454-695.014-345.824c-135.469-7.195-292.102,4.75-417.359,56.884
		c-53.262,22.151-253.931,121.27-312.807,288.94c-18.596,52.919-23.057,112.664-4.308,178.975
		c66.358,234.648-34.676,263.852-161.093,375.676C143.95,1404.35,89.621,1605.723,224.95,1708.949z"/>
	<g>
		<g>
			<rect x="336.673" y="819.73" style="fill:#E58638;" width="557.694" height="327.55"/>
			<rect x="1940.643" y="754.771" style="fill:#F2D3B6;" width="639.28" height="958.158"/>
			<rect x="894.32" y="692.931" style="fill:#F2D3B6;" width="764.801" height="1017.605"/>
			<rect x="863.822" y="351.701" style="fill:#E58638;" width="1093.289" height="496.323"/>
			<polygon style="fill:#F2D3B6;" points="1445.633,783.873 2020.407,240.436 2595.18,783.873 			"/>
			<g>
				<path style="fill:#E58638;" d="M2641.752,837.284c-5.141,0-10.282-1.856-14.351-5.622l-606.994-528.101
					C1827.066,479.595,1602.5,649.14,1595.751,653.635c-9.678,6.461-22.791,3.863-29.266-5.87
					c-6.241-9.361-4.014-21.884,4.866-28.564c13.911-11.506,267.212-241.727,434.847-394.378c8.124-7.381,20.55-7.299,28.563,0.124
					l621.342,575.731c8.55,7.931,9.059,21.292,1.141,29.842C2653.079,835.016,2647.416,837.284,2641.752,837.284z"/>
			</g>
			<rect x="1276.721" y="692.931" style="fill:#FFE3CA;" width="764.801" height="1017.605"/>
			<polygon style="fill:#FFE3CA;" points="1276.721,692.931 1659.121,331.379 2041.521,692.931 			"/>
			<g>
				<path style="fill:#EFCDAF;" d="M1769.759,812.833v196.924h-224.654V816.634c0-33.358,14.217-63.343,37.021-84.174
					c3.659-3.378,7.601-6.475,11.683-9.289c3.941-2.956,8.164-5.492,12.528-7.743c15.765-8.306,33.782-12.953,52.926-12.953
					c19.143,0,37.02,4.788,52.645,13.517c4.363,2.11,8.586,4.787,12.527,7.88c3.66,2.536,7.18,5.491,10.558,8.588
					C1756.386,752.587,1769.759,781.162,1769.759,812.833z"/>
				<g>
					<path style="fill:#F9DDBF;" d="M1773.488,783.275h-231.224l3.574-9.512c6.598-17.595,17.498-33.665,31.547-46.503
						c3.767-3.478,7.959-6.804,12.44-9.883c3.67-2.777,8.097-5.527,13.279-8.207c17.045-8.977,36.482-13.732,56.152-13.732
						c20.098,0,38.971,4.852,56.085,14.406c4.398,2.131,9.031,5.045,13.43,8.481c3.23,2.227,6.929,5.224,10.97,8.949
						c13.842,13.073,24.358,29.183,30.461,46.641L1773.488,783.275z M1563.131,769.199h189.973
						c-5.513-11.725-13.32-22.53-22.957-31.63c-3.051-2.804-6.309-5.553-9.731-7.918c-3.932-3.079-7.726-5.457-11.588-7.327
						c-15.341-8.563-31.905-12.812-49.569-12.812c-17.402,0-34.558,4.193-49.637,12.138c-4.522,2.337-8.289,4.66-11.561,7.148
						c-4.192,2.873-7.863,5.787-11.162,8.839C1577.056,746.628,1568.974,757.391,1563.131,769.199z"/>
				</g>
				<rect x="1437.922" y="776.283" style="fill:#EFCDAF;" width="439.053" height="233.427"/>
				<g>
					<rect x="1650.408" y="776.279" style="fill:#F9DDBF;" width="14.076" height="233.431"/>
				</g>
				<g>
					<rect x="1443.104" y="847.971" style="fill:#F9DDBF;" width="424.252" height="7.038"/>
				</g>
				<g>
					<rect x="1443.104" y="924.669" style="fill:#F9DDBF;" width="424.252" height="7.038"/>
				</g>
				<g>
					<rect x="1552.756" y="776.279" style="fill:#F9DDBF;" width="14.076" height="233.431"/>
				</g>
				<g>
					<rect x="1748.062" y="776.279" style="fill:#F9DDBF;" width="14.076" height="233.431"/>
				</g>
				<g>
					<rect x="1862.899" y="776.279" style="fill:#F9DDBF;" width="14.075" height="233.431"/>
				</g>
				<g>
					<rect x="1437.922" y="776.279" style="fill:#F9DDBF;" width="14.076" height="233.431"/>
				</g>
				<g>
					<rect x="1437.948" y="995.641" style="fill:#F9DDBF;" width="439.053" height="14.076"/>
				</g>
				<g>
					<rect x="1437.948" y="776.279" style="fill:#F9DDBF;" width="439.053" height="14.076"/>
				</g>
				<g>
					<path style="fill:#F9DDBF;" d="M1724.434,723.872l-66.299,70.243l-64.327-70.944c3.941-2.956,8.164-5.492,12.528-7.743
						l51.94,57.291l53.63-56.727C1716.27,718.101,1720.492,720.778,1724.434,723.872z"/>
				</g>
			</g>
			<g>
				<rect x="1437.922" y="1244.59" style="fill:#EFCDAF;" width="439.053" height="233.428"/>
				<g>
					<rect x="1650.408" y="1244.585" style="fill:#F9DDBF;" width="14.076" height="233.432"/>
				</g>
				<g>
					<rect x="1443.104" y="1316.277" style="fill:#F9DDBF;" width="424.252" height="7.038"/>
				</g>
				<g>
					<rect x="1443.104" y="1392.976" style="fill:#F9DDBF;" width="424.252" height="7.038"/>
				</g>
				<g>
					<rect x="1552.756" y="1244.585" style="fill:#F9DDBF;" width="14.076" height="233.432"/>
				</g>
				<g>
					<rect x="1748.062" y="1244.585" style="fill:#F9DDBF;" width="14.076" height="233.432"/>
				</g>
				<g>
					<rect x="1862.899" y="1244.585" style="fill:#F9DDBF;" width="14.075" height="233.432"/>
				</g>
				<g>
					<rect x="1437.922" y="1244.585" style="fill:#F9DDBF;" width="14.076" height="233.432"/>
				</g>
				<g>
					<rect x="1437.948" y="1463.948" style="fill:#F9DDBF;" width="439.053" height="14.076"/>
				</g>
				<g>
					<rect x="1437.948" y="1244.585" style="fill:#F9DDBF;" width="439.053" height="14.076"/>
				</g>
			</g>
			<g>
				<rect x="998.843" y="1244.59" style="fill:#EFCDAF;" width="194.583" height="233.428"/>
				<g>
					<rect x="1181.347" y="1244.585" style="fill:#F9DDBF;" width="12.09" height="233.432"/>
				</g>
				<g>
					<rect x="1001.14" y="1316.277" style="fill:#F9DDBF;" width="188.023" height="7.038"/>
				</g>
				<g>
					<rect x="1001.14" y="1392.976" style="fill:#F9DDBF;" width="188.023" height="7.038"/>
				</g>
				<g>
					<rect x="1089.106" y="1244.585" style="fill:#F9DDBF;" width="12.09" height="233.432"/>
				</g>
				<g>
					<rect x="998.843" y="1244.585" style="fill:#F9DDBF;" width="12.09" height="233.432"/>
				</g>
				<g>
					<rect x="998.854" y="1463.948" style="fill:#F9DDBF;" width="194.583" height="14.076"/>
				</g>
				<g>
					<rect x="998.854" y="1244.585" style="fill:#F9DDBF;" width="194.583" height="14.076"/>
				</g>
			</g>
			<g>
				<rect x="998.843" y="910.304" style="fill:#EFCDAF;" width="194.583" height="233.427"/>
				<g>
					<rect x="1181.347" y="910.3" style="fill:#F9DDBF;" width="12.09" height="233.432"/>
				</g>
				<g>
					<rect x="1001.14" y="981.991" style="fill:#F9DDBF;" width="188.023" height="7.039"/>
				</g>
				<g>
					<rect x="1001.14" y="1058.689" style="fill:#F9DDBF;" width="188.023" height="7.038"/>
				</g>
				<g>
					<rect x="1089.106" y="910.3" style="fill:#F9DDBF;" width="12.09" height="233.432"/>
				</g>
				<g>
					<rect x="998.843" y="910.3" style="fill:#F9DDBF;" width="12.09" height="233.432"/>
				</g>
				<g>
					<rect x="998.854" y="1129.662" style="fill:#F9DDBF;" width="194.583" height="14.076"/>
				</g>
				<g>
					<rect x="998.854" y="910.3" style="fill:#F9DDBF;" width="194.583" height="14.076"/>
				</g>
			</g>
			<g>
				<rect x="2210.137" y="731.256" style="fill:#EFCDAF;" width="194.582" height="233.428"/>
				<g>
					<rect x="2392.641" y="731.252" style="fill:#F9DDBF;" width="12.09" height="233.432"/>
				</g>
				<g>
					<rect x="2212.433" y="802.943" style="fill:#F9DDBF;" width="188.023" height="7.038"/>
				</g>
				<g>
					<rect x="2212.433" y="879.641" style="fill:#F9DDBF;" width="188.023" height="7.038"/>
				</g>
				<g>
					<rect x="2300.399" y="731.252" style="fill:#F9DDBF;" width="12.09" height="233.432"/>
				</g>
				<g>
					<rect x="2210.137" y="731.252" style="fill:#F9DDBF;" width="12.09" height="233.432"/>
				</g>
				<g>
					<rect x="2210.147" y="950.614" style="fill:#F9DDBF;" width="194.583" height="14.076"/>
				</g>
				<g>
					<rect x="2210.147" y="731.252" style="fill:#F9DDBF;" width="194.583" height="14.076"/>
				</g>
			</g>
			<g>
				<path style="fill:#ED9F4A;" d="M1222.776,748.127c-6.818,0-13.512-3.299-17.582-9.416c-6.24-9.361-4.014-21.884,4.866-28.565
					c13.925-11.505,267.212-241.726,434.847-394.377c8.11-7.382,20.537-7.299,28.564,0.124l426.97,395.629
					c8.551,7.932,9.059,21.292,1.141,29.843c-7.945,8.578-21.292,9.059-29.843,1.141l-417.313-338.651
					c-181.113,155.63-413.216,336.232-419.966,340.727C1230.873,746.985,1226.804,748.127,1222.776,748.127z"/>
			</g>
			<rect x="367.876" y="1147.331" style="fill:#FFE3CA;" width="526.444" height="559.39"/>
			<rect x="2041.567" y="1004.409" style="fill:#E58638;" width="565.015" height="224.654"/>
			<g>
				<g>
					<path style="fill:#E0B794;" d="M2376.265,1650.726h-203.819V1403.17c0-54.048,43.814-97.861,97.861-97.861h9.224
						c53.425,0,96.734,43.31,96.734,96.734V1650.726z"/>
					<path style="fill:#CEA484;" d="M2356.887,1409.238v4.505h-165.112v-3.663c0-43.775,35.472-79.247,79.248-79.247h7.461
						C2321.837,1330.833,2356.887,1365.883,2356.887,1409.238z"/>
					<rect x="2191.774" y="1439.325" style="fill:#CEA484;" width="165.112" height="66.359"/>
					<rect x="2191.774" y="1527.593" style="fill:#CEA484;" width="165.112" height="108.464"/>
				</g>
				<rect x="2121.718" y="1646.947" style="fill:#E0B794;" width="305.274" height="21.993"/>
				<rect x="2095.893" y="1668.94" style="fill:#E0B794;" width="356.926" height="21.994"/>
				<rect x="2074.677" y="1690.935" style="fill:#E0B794;" width="399.356" height="21.994"/>
			</g>
			<g>
				<rect x="511.904" y="1250.07" style="fill:#EFCDAF;" width="266.021" height="319.127"/>
				<g>
					<rect x="761.412" y="1250.063" style="fill:#F9DDBF;" width="16.528" height="319.134"/>
				</g>
				<g>
					<rect x="515.043" y="1348.077" style="fill:#F9DDBF;" width="257.053" height="9.621"/>
				</g>
				<g>
					<rect x="515.043" y="1452.934" style="fill:#F9DDBF;" width="257.053" height="9.621"/>
				</g>
				<g>
					<rect x="635.306" y="1250.063" style="fill:#F9DDBF;" width="16.528" height="319.134"/>
				</g>
				<g>
					<rect x="511.904" y="1250.063" style="fill:#F9DDBF;" width="16.528" height="319.134"/>
				</g>
				<g>
					<rect x="511.92" y="1549.963" style="fill:#F9DDBF;" width="266.021" height="19.244"/>
				</g>
				<g>
					<rect x="511.92" y="1250.063" style="fill:#F9DDBF;" width="266.021" height="19.245"/>
				</g>
			</g>
			<polygon style="fill:#ED9F4A;" points="714.897,1147.28 336.673,1147.28 336.673,819.73 569.351,819.73 			"/>
			<path style="fill:#ED9F4A;" d="M1161.531,848.023H863.822V351.701h111.905C1007.679,440.099,1105.649,700.083,1161.531,848.023z"
				/>
			<polygon style="fill:#ED9F4A;" points="2606.582,1004.409 2606.582,1229.063 2232.721,1229.063 2381.083,1004.409 			"/>
			<g>
				<path style="fill:#F2D3B6;" d="M1240.215,458.487h-59.754v-123.95c0-6.125,4.965-11.089,11.089-11.089h37.785
					c6.009,0,10.88,4.871,10.88,10.88V458.487z"/>
				<polygon style="fill:#E58638;" points="1166.458,310.716 1253.554,310.716 1210.338,269.522 				"/>
				<g>
					<polygon style="fill:#E58638;" points="1191.954,323.452 1188.077,323.452 1187.486,309.54 1192.804,309.54 					"/>
				</g>
				<g>
					<polygon style="fill:#E58638;" points="1231.88,323.452 1228.003,323.452 1227.412,309.54 1232.729,309.54 					"/>
				</g>
			</g>
		</g>
	</g>
	<path style="fill:#82B378;" d="M2731.987,1705.275h-72.851c-3.904-3.311,2.701-10.831,9.603-11.337
		c2.998-0.227,6.788,0.401,11.119,1.316c1.003-13.316,6.728-73.174,28.304-70.769c24.261,2.692,0,26.36-6.857,40.373
		c-5.081,10.378-10.44,25.263-12.889,32.286c1.97,0.427,4.009,0.846,6.092,1.229c3.215-9.873,15.18-43.083,30.395-41.148
		c17.864,2.266,10.684,15.581-1.979,23.484c-9.289,5.813-20.695,14.074-26.116,18.064c4.593,0.75,9.386,1.256,14.248,1.143
		C2723.534,1699.62,2729.625,1703.298,2731.987,1705.275z"/>
	<g>
		<path style="fill:#82B378;" d="M894.399,1512.769v194.226l-458.893,0.128c0,0,14.675-52.067,72.484-80.524
			c5.487-2.808,11.484-5.359,17.865-7.527c7.657-2.68,15.824-4.851,24.629-6.636c0.128,0,0.256,0,0.383-0.128
			c3.956-0.767,7.784-1.788,11.485-3.063c81.672-27.438,85.372-154.412,319.797-99.538
			C886.359,1510.725,890.443,1511.746,894.399,1512.769z"/>
		<path style="fill:#82B378;" d="M562.833,1629.842c0-4.106,1.026-88.29-27.719-82.13
			C506.369,1553.871,562.833,1629.842,562.833,1629.842z"/>
	</g>
	<g>
		<path style="fill:#82B378;" d="M1193.606,1704.785c0,0,32.852-69.977,106.769-70.921c73.917-0.942,114.7-87.179,183.625-83.072
			s77.138,71.695,126.415,83.072c49.278,11.377,184.793-13.118,193.006,75.1L1193.606,1704.785z"/>
		<path style="fill:#82B378;" d="M1368.733,1633.864c0-0.942-53.384-99.783-72.89-83.215S1368.733,1633.864,1368.733,1633.864z"/>
		<path style="fill:#82B378;" d="M1349.227,1637.028c0,0-47.738-29.259-70.324-22.072
			C1256.318,1622.142,1349.227,1637.028,1349.227,1637.028z"/>
		<path style="fill:#82B378;" d="M1465.749,1576.971c0.513-3.08-1.027-80.59-26.692-70.837S1465.749,1576.971,1465.749,1576.971z"/>
		<path style="fill:#82B378;" d="M1481.148,1562.598c1.026-1.539,16.426-43.118,5.133-43.118s-4.106,41.579-4.106,41.579
			L1481.148,1562.598z"/>
	</g>
	<path style="fill:#2E3552;" d="M2939.291,1712.929H60.708c-1.798,0-3.269-1.471-3.269-3.27v-1.114c0-1.798,1.471-3.27,3.269-3.27
		h2878.583c1.798,0,3.27,1.472,3.27,3.27v1.114C2942.561,1711.458,2941.089,1712.929,2939.291,1712.929z"/>
	<g>
		<g>
			<polygon style="fill:#DB6161;" points="1625.686,892.995 886.857,892.995 886.857,1518.597 1714.663,1518.597 			"/>
			<polygon style="fill:#233862;" points="1593.339,914.412 755.992,914.412 755.992,1518.597 1680.176,1518.597 			"/>
			<g>
				<g>
					<g>
						<g>
							
								<rect x="1232.187" y="1403.147" transform="matrix(-1 -1.224647e-16 1.224647e-16 -1 2578.2432 2921.7441)" style="fill:#E69D43;" width="113.869" height="115.449"/>
							
								<rect x="1341.316" y="1403.147" transform="matrix(-1 -1.224647e-16 1.224647e-16 -1 2734.7646 2921.7441)" style="fill:#D57912;" width="52.132" height="115.449"/>
						</g>
					</g>
				</g>
			</g>
			<g>
				<g>
					<g>
						<g>
							
								<rect x="1226.142" y="1290.859" transform="matrix(-1 -1.224647e-16 1.224647e-16 -1 2641.1128 2695.5879)" style="fill:#E69D43;" width="188.829" height="113.869"/>
							
								<rect x="1410.231" y="1290.859" transform="matrix(-1 -1.224647e-16 1.224647e-16 -1 2872.5942 2695.5879)" style="fill:#D57912;" width="52.131" height="113.869"/>
						</g>
					</g>
				</g>
			</g>
			<path style="fill:#B65615;" d="M431.478,1562.267H188.326c-5.909,0-10.744-4.835-10.744-10.744v-95.895
				c0-5.909,4.835-10.744,10.744-10.744h243.153c5.91,0,10.744,4.835,10.744,10.744v95.895
				C442.223,1557.432,437.388,1562.267,431.478,1562.267z"/>
			
				<ellipse transform="matrix(0.7071 -0.7071 0.7071 0.7071 -789.4482 1296.1731)" style="fill:#233862;" cx="1169.895" cy="1601.035" rx="106.085" ry="106.085"/>
			
				<ellipse transform="matrix(0.2132 -0.977 0.977 0.2132 -324.4126 2799.2178)" style="fill:#233862;" cx="1575.813" cy="1601.035" rx="106.085" ry="106.084"/>
			
				<ellipse transform="matrix(0.3605 -0.9328 0.9328 0.3605 -1288.8766 1322.2341)" style="fill:#233862;" cx="319.806" cy="1601.035" rx="106.085" ry="106.084"/>
			<path style="fill:#D36E2A;" d="M266.263,1601.035c0-29.571,23.972-53.543,53.543-53.543s53.542,23.972,53.542,53.543
				c0,29.57-23.972,53.542-53.542,53.542S266.263,1630.605,266.263,1601.035z"/>
			<path style="fill:#739AF0;" d="M266.263,1601.035c0-29.571,23.972-53.543,53.543-53.543s53.542,23.972,53.542,53.543
				c0,29.57-23.972,53.542-53.542,53.542S266.263,1630.605,266.263,1601.035z"/>
			<path style="fill:#4A75CB;" d="M355.446,1561.089c3.008,6.692,4.695,14.106,4.695,21.92c0,29.57-23.971,53.543-53.543,53.543
				c-13.689,0-26.173-5.146-35.64-13.598c8.377,18.638,27.09,31.623,48.848,31.623c29.571,0,53.542-23.972,53.542-53.542
				C373.348,1585.153,366.428,1570.895,355.446,1561.089z"/>
			<path style="fill:#233862;" d="M303.207,1601.035c0-9.167,7.431-16.599,16.598-16.599s16.598,7.432,16.598,16.599
				c0,9.166-7.431,16.598-16.598,16.598S303.207,1610.201,303.207,1601.035z"/>
			<path style="fill:#233862;" d="M285.137,1629.479c0-3.549,2.876-6.425,6.425-6.425c3.548,0,6.425,2.876,6.425,6.425
				c0,3.548-2.876,6.425-6.425,6.425C288.013,1635.904,285.137,1633.027,285.137,1629.479z"/>
			<path style="fill:#233862;" d="M277.641,1581.76c0-3.549,2.877-6.426,6.425-6.426c3.548,0,6.425,2.877,6.425,6.426
				s-2.877,6.425-6.425,6.425C280.518,1588.185,277.641,1585.309,277.641,1581.76z"/>
			<path style="fill:#233862;" d="M348.317,1581.76c0-3.549,2.876-6.426,6.425-6.426c3.548,0,6.425,2.877,6.425,6.426
				s-2.876,6.425-6.425,6.425C351.193,1588.185,348.317,1585.309,348.317,1581.76z"/>
			<path style="fill:#233862;" d="M342.963,1629.479c0-3.549,2.876-6.425,6.425-6.425c3.549,0,6.425,2.876,6.425,6.425
				c0,3.548-2.876,6.425-6.425,6.425C345.839,1635.904,342.963,1633.027,342.963,1629.479z"/>
			<path style="fill:#233862;" d="M313.38,1560.125c0-3.549,2.876-6.425,6.425-6.425c3.548,0,6.425,2.876,6.425,6.425
				s-2.876,6.425-6.425,6.425C316.257,1566.55,313.38,1563.674,313.38,1560.125z"/>
			<path style="fill:#D36E2A;" d="M1114.376,1601.035c0-29.571,23.972-53.543,53.542-53.543c29.571,0,53.543,23.972,53.543,53.543
				c0,29.57-23.972,53.542-53.543,53.542C1138.349,1654.577,1114.376,1630.605,1114.376,1601.035z"/>
			<path style="fill:#4A75CB;" d="M1114.376,1601.035c0-29.571,23.972-53.543,53.542-53.543c29.571,0,53.543,23.972,53.543,53.543
				c0,29.57-23.972,53.542-53.543,53.542C1138.349,1654.577,1114.376,1630.605,1114.376,1601.035z"/>
			<path style="fill:#233862;" d="M1151.321,1601.035c0-9.167,7.431-16.599,16.598-16.599s16.598,7.432,16.598,16.599
				c0,9.166-7.431,16.598-16.598,16.598S1151.321,1610.201,1151.321,1601.035z"/>
			<circle style="fill:#233862;" cx="1139.675" cy="1629.479" r="6.425"/>
			<path style="fill:#233862;" d="M1125.754,1581.76c0-3.549,2.876-6.426,6.425-6.426c3.548,0,6.425,2.877,6.425,6.426
				s-2.876,6.425-6.425,6.425C1128.631,1588.185,1125.754,1585.309,1125.754,1581.76z"/>
			<path style="fill:#B65615;" d="M1196.431,1581.76c0-3.549,2.876-6.426,6.425-6.426c3.549,0,6.425,2.877,6.425,6.426
				s-2.876,6.425-6.425,6.425C1199.307,1588.185,1196.431,1585.309,1196.431,1581.76z"/>
			<circle style="fill:#233862;" cx="1197.501" cy="1629.479" r="6.425"/>
			<path style="fill:#B65615;" d="M1161.494,1560.125c0-3.549,2.876-6.425,6.425-6.425c3.549,0,6.425,2.876,6.425,6.425
				s-2.876,6.425-6.425,6.425C1164.371,1566.55,1161.494,1563.674,1161.494,1560.125z"/>
			
				<ellipse transform="matrix(0.7071 -0.7071 0.7071 0.7071 -950.1517 908.2007)" style="fill:#233862;" cx="621.219" cy="1601.035" rx="106.085" ry="106.085"/>
			<path style="fill:#4A75CB;" d="M318.63,1028.224c0,0,57.563-86.825,124.108-87.543l-5.936,93.942L318.63,1028.224z"/>
			<path style="fill:#739AF0;" d="M657.729,1424.894H197.018l38.346-311.198c6.233-50.583,49.201-88.581,100.167-88.581h322.199
				V1424.894z"/>
			<path style="fill:#4A75CB;" d="M389.921,1234.66H260.728l17.113-122.877c3.524-25.305,25.164-44.139,50.712-44.139h65.369
				L389.921,1234.66z"/>
			<path style="fill:#DCE7F9;" d="M380.368,1225.418h-85.06c-12.836,0-22.737-11.302-21.047-24.027l11.287-85.018
				c2.981-22.456,21.289-39.17,42.903-39.17h55.302L380.368,1225.418z"/>
			<polygon style="fill:#D15050;" points="1284.368,1518.597 398.222,1518.597 437.749,892.995 1231.996,892.995 			"/>
			<polygon style="fill:#B64C41;" points="1249.685,1494.871 430.763,1494.871 467.291,916.725 1201.284,916.725 1240.513,1385.354 
							"/>
			<path style="fill:#4A75CB;" d="M478.133,1424.894H197.018c-24.755,1.647-27.148,13.886-27.148,13.886l-24.037,116.265
				c0,3.973,3.652,7.223,8.116,7.223h70.681c4.463,0,7.684-3.271,9.588-7.41c0,0,10.875-13.436,18.171-18.245
				c18.273-12.047,38.112-19.945,67.417-19.945c36.033,0,67.865,11.461,87.038,28.978h71.29c8.605,0,15.645-4.49,15.645-9.979
				v-100.792C493.779,1429.384,486.738,1424.894,478.133,1424.894z"/>
			<path style="fill:#D15050;" d="M1312.817,1653.128h-89.09c-2.05-10.793-5.921-20.306-11.163-28.687
				c-26.936-43.17-89.92-56.363-125.799-60.395c-15.724-1.771-26.246-1.78-26.246-1.78h153.146
				c40.059,5.431,64.655,27.276,79.319,48.191C1308.317,1632.303,1312.817,1653.128,1312.817,1653.128z"/>
			<path style="fill:#D15050;" d="M1714.662,1653.128h-89.091c-2.33-12.283-7.031-22.916-13.403-32.098
				c-40.689-58.685-149.805-58.764-149.805-58.764h153.157c33.498,4.541,56.173,20.564,71.286,37.919
				C1708.641,1625.271,1714.662,1653.128,1714.662,1653.128z"/>
			<path style="fill:#A03C37;" d="M1292.983,1610.458c0,0-58.634-12.373-80.419,13.983c-26.936-43.17-89.92-56.363-125.799-60.395
				c-0.73-0.601-1.45-1.19-2.161-1.78h129.061C1253.724,1567.697,1278.32,1589.543,1292.983,1610.458z"/>
			<path style="fill:#A03C37;" d="M1686.806,1600.186c0,0.01,0,0.01,0,0.01s-49.041-1.101-74.638,20.835
				c-40.689-58.685-149.805-58.764-149.805-58.764h153.157C1649.018,1566.808,1671.692,1582.831,1686.806,1600.186z"/>
			<path style="fill:#A03C37;" d="M418.302,1579.271h1306.443c6.56,0,11.927-5.366,11.927-11.927v-36.821
				c0-6.56-5.367-11.927-11.927-11.927H418.302c-6.56,0-11.928,5.367-11.928,11.927v36.821
				C406.374,1573.905,411.742,1579.271,418.302,1579.271z"/>
			<path style="fill:#A03C37;" d="M715.808,1668.229H474.159c-6.323,0-11.496-5.174-11.496-11.496v-111.396
				c0-6.322,5.172-11.496,11.496-11.496h241.649c6.323,0,11.497,5.174,11.497,11.496v111.396
				C727.304,1663.055,722.131,1668.229,715.808,1668.229z"/>
			<path style="fill:#C44943;" d="M1250.753,1494.871H431.831l36.528-578.146h143.034
				c44.781,132.071,196.246,445.175,630.188,468.63L1250.753,1494.871z"/>
			<g>
				<path style="fill:#739AF0;" d="M205.4,1174.436c0,0-11.518,61.893-10.946,71.983c0.572,10.092,10.099,15.015,17.341,15.015
					L205.4,1174.436z"/>
				<path style="fill:#4A75CB;" d="M240.367,1261.434h-27.991c-4.093,0-7.442-3.348-7.442-7.441v-77.278
					c0-4.094,3.349-7.442,7.442-7.442h27.991c4.093,0,7.442,3.349,7.442,7.442v77.278
					C247.81,1258.086,244.46,1261.434,240.367,1261.434z"/>
				<path style="fill:#DCE7F9;" d="M238.219,1256.954h-22.17c-3.493,0-6.351-2.858-6.351-6.351v-69.816
					c0-3.493,2.858-6.352,6.351-6.352h22.17c3.493,0,6.351,2.858,6.351,6.352v69.816
					C244.57,1254.096,241.712,1256.954,238.219,1256.954z"/>
				<g>
					<path style="fill:#4A75CB;" d="M226.372,1170.953c-0.79,0-1.429-0.752-1.429-1.682v-26.014c0-0.07,0.004-0.141,0.011-0.209
						c0.016-0.149,1.783-14.958,17.367-14.479c14.252,0.44,20.393,0.006,20.453,0.002c0.789-0.059,1.466,0.646,1.515,1.574
						c0.049,0.927-0.549,1.725-1.337,1.782c-0.251,0.02-6.326,0.45-20.706,0.004c-12.552-0.385-14.291,10.245-14.445,11.441v25.898
						C227.801,1170.201,227.162,1170.953,226.372,1170.953z"/>
				</g>
			</g>
			<path style="fill:#4A75CB;" d="M377.949,1274.709h-26.068c-3.65,0-6.637-2.987-6.637-6.638l0,0c0-3.65,2.987-6.638,6.637-6.638
				h26.068c3.65,0,6.637,2.987,6.637,6.638l0,0C384.586,1271.722,381.6,1274.709,377.949,1274.709z"/>
			<g>
				<g>
					<g>
						<g>
							
								<rect x="1421.192" y="1404.729" transform="matrix(-1 -1.224647e-16 1.224647e-16 -1 2956.2524 2923.3252)" style="fill:#E69D43;" width="113.869" height="113.868"/>
							
								<rect x="1530.322" y="1404.729" transform="matrix(-1 -1.224647e-16 1.224647e-16 -1 3112.7754 2923.3252)" style="fill:#D57912;" width="52.131" height="113.868"/>
						</g>
					</g>
				</g>
			</g>
		</g>
		<g>
			<g>
				<g>
					<g>
						<path style="fill:#233862;" d="M1783.554,1706.511h-59.253c0.614-2.126,2.613-5.776,9.167-6.843
							c9.145-1.488,24.991-6.797,28.522-18.489c0.111-0.378,0.215-0.763,0.304-1.155c2.807-12.499,23.214,3.828,23.214,3.828
							s0.06,0.504,0.148,1.355C1786.131,1689.768,1787.33,1704.407,1783.554,1706.511z"/>
						<path style="fill:#2B478B;" d="M1735.897,1372.219c0,0,3.1,38.67,6.742,85.154c4.952,63.146,10.905,140.709,11.495,155.403
							c1.018,25.516,5.104,66.328,5.104,66.328s9.689,9.697,29.082,5.61c0,0,17.28-58.263,22.216-119.908
							c0.077-1.01,0.153-2.028,0.23-3.046c4.592-62.755,11.731-194.899,11.731-194.899L1735.897,1372.219z"/>
						<path style="fill:#233862;" d="M1735.897,1372.219c0,0,3.1,38.67,6.742,85.154l67.897,107.434
							c0.077-1.01,0.153-2.028,0.23-3.046c4.592-62.755,11.731-194.899,11.731-194.899L1735.897,1372.219z"/>
						<path style="fill:#2B478B;" d="M1750.052,1376.811c0,0,55.867,140.051,92.603,205.866
							c36.734,65.816,48.214,84.185,48.214,84.185s21.046-8.419,22.959-14.158c0,0-14.048-127.062-38.647-158.036
							c-13.901-17.502-30.229-70.025-30.995-88.393s-4.975-54.72-4.975-54.72L1750.052,1376.811z"/>
					</g>
					<path style="fill:#FFB27D;" d="M1823.558,1160.981c0,0-37.801,18.523-59.593,11.65c0,0,5.364-6.872,14.751-11.985
						c-0.754-4.442-1.34-8.298-1.677-11.566c-0.921-7.544-0.921-11.818-0.921-11.818l14.583-11.649l13.83-11.147
						C1803.441,1145.811,1823.558,1160.981,1823.558,1160.981z"/>
					<path style="fill:#739AF0;" d="M1843.477,1358.729c0.085,2.347-4.861,5.028-7.04,6.034
						c-16.177,7.207-31.263,12.236-48.361,13.914c-20.199,2.095-44.087-2.516-52.3-2.348c-0.839,0-1.593-0.335-2.264-0.922
						c-0.586-0.42-1.006-25.145-0.586-56.239c0-1.258,0-2.516,0.083-3.772v-0.418c0.168-12.154,0.587-24.894,1.174-37.633
						c1.174-27.995,3.353-54.984,7.04-69.902c4.442-17.602,14.501-29.252,23.636-37.717l7.544-6.706
						c7.543,1.51,15.506,1.091,23.468-2.848c8.717-4.275,18.253-9.07,19.763-7.898c11.398,8.466,18.96,27.677,23.066,51.983
						c2.348,13.997,3.521,29.671,3.438,46.099c0,6.035-0.168,12.237-0.504,18.355c-2.011,33.19,0,62.022,1.174,78.701
						C1843.143,1352.275,1843.393,1356.047,1843.477,1358.729z"/>
					<path style="fill:#4A75CB;" d="M1842.807,1347.413c-183.136-0.251-33.777-136.534-33.777-136.534l29.67-6.621
						c2.348,13.997,3.521,29.671,3.438,46.099c0,6.035-0.168,12.237-0.504,18.355
						C1839.622,1301.902,1841.633,1330.734,1842.807,1347.413z"/>
					<g>
						
							<rect x="1617.513" y="1232.656" transform="matrix(-1 -1.224647e-16 1.224647e-16 -1 3348.8945 2579.1807)" style="fill:#E69D43;" width="113.869" height="113.868"/>
						
							<rect x="1726.643" y="1232.656" transform="matrix(-1 -1.224647e-16 1.224647e-16 -1 3505.417 2579.1807)" style="fill:#D57912;" width="52.132" height="113.868"/>
					</g>
					<path style="fill:#FFB27D;" d="M1714.276,1291.27l-6.78-2.175c0,0-4.745-15.694-20.781-8.67c0,0-6.511,3.452-3.644,7.537
						s2.344,1.934,6.263,7.818s10.121,8.676,15.065,6.452l5.633,0.162L1714.276,1291.27z"/>
					<path style="fill:#739AF0;" d="M1823.565,1160.941c0,0,41.474,65.957-2.704,142.177
						c-13.791,23.792-117.952,1.179-117.952,1.179s-4.06-7.334,6.81-15.062c0,0,69.351-11.738,77.616-13.706
						c7.334-1.747,2.444-69.147,10.826-88.704C1806.543,1167.268,1823.565,1160.941,1823.565,1160.941z"/>
					<path style="fill:#ED985F;" d="M1804.783,1126.45c0,0-9.555,17.685-27.744,22.63c-0.921-7.544-0.921-11.818-0.921-11.818
						l14.583-11.649L1804.783,1126.45z"/>
					<path style="fill:#FFB27D;" d="M1769.468,1136.751c0,0,36.061,5.991,39.446-16.523c3.385-22.514,10.318-36.903-12.563-41.68
						c-22.88-4.777-28.655,3.14-31.613,10.38C1761.781,1096.168,1760.175,1134.612,1769.468,1136.751z"/>
					<path style="fill:#233862;" d="M1808.676,1121.781c0,0-0.728-30.158-33.585-34.998c-22.505-3.315-20.634-19.619-18.061-22.598
						c0,0,29.089,0.241,46.569,4.646C1830.036,1075.492,1812.582,1117.297,1808.676,1121.781z"/>
				</g>
			</g>
			<path style="fill:#233862;" d="M1913.826,1657.424l-1.748-2.251l-19.859,11.13c-0.186,3.799-0.289,8.189-0.074,12.04
				c0.146,2.609-0.007,5.273-0.477,7.796c-0.414,1.971-2.516,10.381-8.666,12.588c-6.981,2.507-7.541,7.87,4.374,7.784
				c2.135-0.016,4.227-0.026,6.222-0.031c7.436-0.022,13.786-5.08,15.813-12.233c0.796-2.813,2.271-5.976,4.827-9.341
				c3.129-3.661,6.816-6.895,8.007-10.901C1924.288,1667.117,1913.826,1657.424,1913.826,1657.424z"/>
		</g>
	</g>
	<g>
		<g>
			<path style="fill:#FFB27D;" d="M2390.188,1452.87l-6.632,1.264c0,0-12.421-2.943-16.988,10.163c0,0-1.479,5.551,2.664,5.258
				c4.143-0.294,2.511-0.779,8.361-1.065s11.048-3.241,12.42-7.304l3.242-3.595L2390.188,1452.87z"/>
			<path style="fill:#233862;" d="M2385.917,1458.296c-2.04-4.408-1.798-5.185-1.798-5.185s37.914-27.361,41.358-30.083
				c3.443-2.723,39.754-53.063,39.754-53.063l44.718,6.265c0,0-60.184,59.587-69.045,66.313
				c-14.644,11.115-50.617,21.01-50.617,21.01S2387.52,1461.758,2385.917,1458.296z"/>
		</g>
		<g>
			<path style="fill:#EA8E50;" d="M2158.683,1464.832l4.488,3.644c0,0,12.276-4.401,15.046,10.186c0,0,0.738,6.218-3.2,6.229
				s-2.313-0.68-7.89-0.517c-5.577,0.164-10.199-2.776-11.016-7.302l-2.668-3.834L2158.683,1464.832z"/>
			<path style="fill:#4A75CB;" d="M2158.174,1472.653c3.581-3.739,3.292-6.502,3.292-6.502s-41.459-33.943-45.663-36.709
				c-2.865-1.884-33.397-28.952-47.669-45.453c-7.08-8.186-15.849-5.01-25.882-2.131l-8.263,2.37
				c-9.977,2.862-12.571,16.815-4.385,23.596c23.054,19.097,61.405,40.575,68.581,45.089c17.814,11.206,52.685,24.521,52.685,24.521
				S2155.1,1475.863,2158.174,1472.653z"/>
		</g>
		<g>
			<path style="fill:#DB6161;" d="M2452.186,1485.008c-9.225,27.153-40.808,39.961-70.023,34.866l-57.865-10.093l32.441-159.647
				c0,0,58.76-10.345,69.686,8.931c9.574,16.887,32.324,81.093,28.022,115.996
				C2454.014,1478.563,2453.25,1481.883,2452.186,1485.008z"/>
			<path style="fill:#A03C37;" d="M2315.979,1358.443c0,0,85.009-26.229,95.255,2.376c5.44,15.188,8.822,73.247,4.383,108.126
				c-4.313,33.89-28.688,51.758-58.649,46.533l-53.215-9.281L2315.979,1358.443z"/>
			<path style="fill:#C44943;" d="M2326.801,1383.102c-1.248,3.271-8.116,5.312-17.98,6.456c-1.738,0.202-3.568,0.376-5.479,0.525
				c-33.343,2.586-90.677-2.724-95.646-6.067c-6.868-4.621-24.252-174.987-24.252-174.987s43.916,5.97,78.705,11.213
				c11.9,1.798,22.731,3.508,30.374,4.864c0.93,0.165,1.796,0.379,2.597,0.642c3.228,1.049,5.441,2.857,7.021,5.289
				c4.533,6.969,3.852,19.051,6.733,33.041c2.85,13.833,6.301,31.077,9.449,48.144c0.812,4.397,1.604,8.783,2.359,13.099
				c0.215,1.218,0.424,2.429,0.634,3.633C2325.813,1355.067,2328.82,1377.802,2326.801,1383.102z"/>
			<path style="fill:#C44943;" d="M2452.186,1485.008c-9.225,27.153-40.908,40.327-70.123,35.232l-28.648-5.014
				C2374.579,1505.699,2398.954,1468.842,2452.186,1485.008z"/>
			<path style="fill:#D15050;" d="M2403.012,1497.751c-13.877,13.571-32.746,20.53-51.777,16.894l-82.055-14.268l-39.314-6.836
				l69.632-137.949c0,0,113.886,8.386,125.099,25.645c5.207,8.013,3.359,39.864-0.114,71.69
				C2422.522,1470.872,2414.465,1486.563,2403.012,1497.751z"/>
			<path style="fill:#A03C37;" d="M2402.982,1497.915c-13.876,13.571-32.697,20.581-51.729,16.944l-82.104-14.318
				c11.068-6.422,45.443-24.123,77.766-17.365C2371.417,1488.299,2391.049,1491.358,2402.982,1497.915z"/>
			<path style="fill:#DB6161;" d="M2338.372,1466.663c-9.414,26.253-38.154,38.919-64.549,34.315l-53.215-9.28l32.537-161.965
				c0,0,56.146-8.301,65.959,10.781c8.598,16.717,26.415,79.895,21.976,114.774
				C2340.565,1459.323,2339.648,1463.119,2338.372,1466.663z"/>
			<path style="fill:#C44943;" d="M2338.309,1467.029c-9.414,26.252-38.155,38.918-64.549,34.315l-42.584-7.427
				C2253.465,1483.884,2286.813,1451.234,2338.309,1467.029z"/>
			<path style="fill:#A03C37;" d="M2153.952,1480.449c-22.01-3.991-38.108-13.884-46.003-34.809
				c-5.758-15.211-6.232-33.905-5.282-50.135c0.546-9.329,1.675-19.565,3.379-30.781c0.99-6.513,2.173-13.352,3.55-20.535
				c2.194-11.479,4.885-23.835,8.061-37.124c4.458-18.658,9.876-39.157,16.231-61.649c5.802-20.545,10.839-34.735,15.034-37.438
				c6.188-3.984,17.65-4.023,25.525-3.465c0.003,0,0.003,0,0.006,0.001l0.01,0.002c0.003,0,0.003,0,0.006,0.001
				c7.729,0.527,13.051,1.042,18.414,5.807c4.234,3.75,7.13,9.259,7.896,15.614c2.594,21.606,7.218,60.235,11.996,100.628
				c0.026,0.201,0.051,0.404,0.074,0.607c0.272,2.319,0.548,4.648,0.824,6.977c0.026,0.235,0.055,0.472,0.086,0.709
				c0.012,0.117,0.028,0.238,0.028,0.238s0.119,0.092,0.227,0.064c0.598-0.152,1.32-0.337,1.953-0.491
				c0.023-0.009,0.049-0.016,0.076-0.021c17.35-4.326,41.734-8.908,59.52-6.917h0.002c9.221,1.033,19.263,4.123,22.37,12.901
				c6.709,18.825,17.036,77.028,12.936,109.27c-4.087,32.14-33.903,49.305-62.685,46.481c-1.712-0.174-3.235-0.064-4.656-0.313
				L2153.952,1480.449z"/>
			<path style="fill:#DB6161;" d="M2187.953,1337.407c0,0-7.906-116.036-8.247-125.731c-0.149-4.321-2.595-6.3-5.255-7.163
				c4.887,0.347,8.386,0.919,8.386,0.919c9.45,1.648,16.669,9.876,17.949,20.458c2.79,23.08,8.06,65.94,13.215,109.275
				L2187.953,1337.407z"/>
		</g>
		<path style="fill:#233862;" d="M2205.487,1681.193c0,0,10.061,7.539,25.479,3.556c0,0,12.43-2.833,15.156,3.366
			c0,0-19.064,9.686-23.888,12.334c-3.637,1.996-7.431,5.147-10.112,7.583c-2.123,1.928-5.43,1.666-7.239-0.559
			c-0.838-1.032-1.798-2.259-2.85-3.685c-2.939-3.983-9.788-16.851-9.788-16.851L2205.487,1681.193z"/>
		<path style="fill:#2B478B;" d="M2211.393,1677.364c0,0-6.127,14.126-20.269,11.529c0,0-28.857-23.832-48.651-48.589
			c-6.43-8.041-11.903-16.179-15.119-23.627c-13.127-30.391-48.557-75.719-71.082-98.693l56.357-20.388
			c0,0,18.053,36.313,42.07,80.917C2172.009,1610.651,2192.412,1647.096,2211.393,1677.364z"/>
		<path style="fill:#233862;" d="M2154.699,1578.514l-12.227,61.791c-6.43-8.041-11.903-16.179-15.119-23.627
			c-13.127-30.391-48.557-75.719-71.082-98.693l56.357-20.388C2112.629,1497.597,2130.682,1533.91,2154.699,1578.514z"/>
		<path style="fill:#233862;" d="M2108.633,1689.392c0,0-0.614,11.272,13.051,12.776c0,0,8.247,0.168,8.269,7.342h-40.153
			c0,0-1.153-2.895-1.434-9.093c-0.215-4.76,4.614-17.203,4.614-17.203L2108.633,1689.392z"/>
		<path style="fill:#2B478B;" d="M2094.145,1497.597c0,0,25.107,27.588,41.045,77.29c8.67,27.043-15.895,95.032-20.683,118.655
			c0,0-16.479,1.398-27.747-2.958c0,0-0.855-48.791,5.734-86.396c3.688-21.046-33.058-45.011-49.113-83.038
			c-10.924-25.871,2.365-25.432,18.695-26.054L2094.145,1497.597z"/>
		<path style="fill:#FFB07B;" d="M2065.162,1374.516c-13.969,7.888-42.566,0.613-42.566,0.613s11.613-13.277,6.336-34.66
			l10.969,5.57l11.78,5.982c0,0,0.762,3.777,1.292,10.561c0.135,1.746,0.255,3.696,0.338,5.829
			C2060.483,1370.585,2065.162,1374.516,2065.162,1374.516z"/>
		<path style="fill:#739AF0;" d="M2116.383,1496.172c0,2.455-2.828,3.63-3.429,3.75c-5.635,1.029-21.366,7.149-35.537,8.553
			c-11.933,1.25-23.011,0.063-35.183-2.381c-1.611-0.325-5.396-1.344-5.664-2.889c-0.336-1.687-46.947-95.021-10.713-135.114
			c0.851-0.94,8.004,0.754,14.545,2.307c6.042,1.433,11.582,0.634,16.53-1.352l6.134,3.228c7.533,4.197,21.787,19.111,23.455,30.813
			c0.848,5.952,4.25,10.358,5.235,15.593c0.365,1.937,0.738,3.829,1.119,5.672c0.742,3.615,1.508,7.056,2.294,10.328
			c2.131,8.851,4.381,16.47,6.59,23.053c2.352,6.988,4.656,12.801,6.717,17.663c2.672,6.307,4.929,11.019,6.339,14.627
			C2115.813,1492.563,2116.383,1494.556,2116.383,1496.172z"/>
		<path style="fill:#4A75CB;" d="M2114.815,1490.022c-65.798-30.999-88.585-90.525-88.585-90.525s53.459,19.72,66.646,24.854
			c0.742,3.615,1.508,7.056,2.294,10.328c2.131,8.851,4.381,16.47,6.59,23.053c2.352,6.988,4.656,12.801,6.717,17.663
			C2111.148,1481.702,2113.405,1486.414,2114.815,1490.022z"/>
		<g>
			<path style="fill:#FFB07B;" d="M2153.313,1472.058l5.686,2.085c0,0,11.386-8.051,18.476,5.043c0,0,2.563,5.72-1.495,6.962
				c-4.059,1.243-2.583,0.073-8.288,1.974c-5.704,1.899-11.325,0.531-13.48-3.545l-3.864-2.835L2153.313,1472.058z"/>
			<path style="fill:#739AF0;" d="M2157.992,1480.099c2.102-5.485,3.062-7.97,3.062-7.97s-42.963-35.019-47.34-38.022
				c-2.983-2.047-32.682-24.245-47.16-41.546c-7.182-8.581-18.506-12.504-29.458-10.207l-9.02,1.892
				c-10.891,2.283-14.429,16.068-5.98,23.31c23.792,20.396,63.921,44.054,71.402,48.974c18.574,12.216,59.658,29.333,59.658,29.333
				S2156.342,1484.406,2157.992,1480.099z"/>
		</g>
		<path style="fill:#EA8E50;" d="M2052.973,1362.582c-13.736,0.771-22.67-10.57-22.67-10.57s6.211-3.441,9.598-5.973l11.78,5.982
			C2051.681,1352.021,2052.442,1355.799,2052.973,1362.582z"/>
		<path style="fill:#FFB07B;" d="M2058.824,1348.479c0,0-20.813,14.936-29.915,1.831c-9.103-13.104-17.919-20.002-5.014-30.093
			c12.903-10.091,18.986-6.902,23.088-3.268C2051.086,1320.584,2064.004,1344.255,2058.824,1348.479z"/>
		<path style="fill:#233862;" d="M2049.183,1305.114c-0.747-5.038-2.426-8.582-2.426-8.582s-1.306,5.41-11.194,4.663
			c-9.888-0.745-25.559,0.974-30.782,12.241c-0.333,0.716-0.629,1.455-0.893,2.21c-0.945-2.498-1.173-6.241-1.173-6.241
			c-1.88,4.851,0,10.918,0,10.918l0,0c-0.028,0.177-0.051,0.354-0.077,0.531c-2.183,1.845-4.015,7.58-4.015,7.58
			c0.658-1.599,2.265-2.644,3.696-3.286c-0.044,8.768,3.512,17.339,9.752,19.891c9.126,3.73,9.053,0.885,18.231,6.973
			c0,0,2.462-3.055,0.783-5.107c-1.68-2.052-8.022-5.037-4.479-8.022c3.545-2.984,4.852,0.373,6.157-1.679
			c1.306-2.053-5.224-8.022,3.172-13.619C2044.331,1317.986,2049.929,1310.151,2049.183,1305.114z"/>
		<g>
			<path style="fill:#2C3A64;" d="M2610.419,1676.117c0,0,7.003,6.49,5.637,11.102c-1.366,4.612-7.687,7.687-8.54,13.323
				c-0.854,5.637-4.271,8.711-7.346,8.711c-3.074,0-14.657,0-14.657,0s-2.263-3.966,3.202-5.162
				c5.467-1.195,7.527-7.818,7.186-13.968s0.513-14.348,0.513-14.348l11.614-2.733L2610.419,1676.117z"/>
			<path style="fill:#2C3A64;" d="M2523.137,1709.015c-0.173,0.088-0.453,0.166-0.826,0.239h-38.861
				c0.313-1.362,1.525-4.091,6.209-4.85c6.122-0.992,16.734-4.549,19.102-12.384c0.075-0.251,0.143-0.508,0.201-0.771
				c1.879-8.369,15.541,2.564,15.541,2.564s0.041,0.333,0.099,0.898C2524.919,1697.78,2525.733,1707.716,2523.137,1709.015z"/>
			<path style="fill:#739AF0;" d="M2491.283,1485.154c0,0,2.076,25.893,4.515,57.017c3.315,42.28,7.302,94.214,7.696,104.053
				c0.682,17.084,3.418,44.411,3.418,44.411s6.487,6.492,19.473,3.756c0,0,11.57-39.011,14.875-80.285
				c0.051-0.677,0.103-1.358,0.154-2.04c3.074-42.019,7.854-130.498,7.854-130.498L2491.283,1485.154z"/>
			<path style="fill:#4A75CB;" d="M2491.283,1485.154c0,0,2.076,25.893,4.515,57.017l45.462,71.935
				c0.051-0.677,0.103-1.358,0.154-2.04c3.074-42.019,7.854-130.498,7.854-130.498L2491.283,1485.154z"/>
			<path style="fill:#739AF0;" d="M2500.761,1488.229c0,0,37.407,93.772,62.003,137.841s32.283,56.366,32.283,56.366
				s14.091-5.637,15.372-9.479c0,0-9.405-85.076-25.878-105.815c-9.307-11.719-20.24-46.887-20.752-59.185
				c-0.513-12.298-3.331-36.639-3.331-36.639L2500.761,1488.229z"/>
		</g>
		<path style="fill:#FFB27D;" d="M2484.282,1340.603c0,0-15.263,26.854-30.181,30.359c0,0,0.621-9.02,4.254-15.191
			c-1.488-1.755-2.794-3.366-3.926-4.809c-3.755-4.812-5.54-7.758-5.54-7.758l5.063-13.611l3.435-9.235
			c1.651,2.997,3.472,5.552,5.368,7.735C2472.533,1339.334,2484.282,1340.603,2484.282,1340.603z"/>
		<path style="fill:#ED975D;" d="M2462.756,1328.093c0,0,1.822,13.457-8.326,22.869c-3.755-4.812-5.54-7.758-5.54-7.758
			l5.063-13.611C2459.381,1327.938,2462.756,1328.093,2462.756,1328.093z"/>
		<path style="fill:#FFB27D;" d="M2444.867,1345.188c0,0,22.805-8.89,17.05-23.006s-6.688-24.771-21.491-19.691
			c-14.803,5.08-15.418,11.612-14.644,16.791C2426.558,1324.461,2438.787,1347.138,2444.867,1345.188z"/>
		<path style="fill:#2B478B;" d="M2562.67,1478.406c-9.201,13.227-77.979,30.897-77.164,21.743
			c0.313-3.504,0.731-9.682-0.009-18.058c-0.173-1.961-0.415-4.039-0.731-6.238c-1.748-12.028-5.898-27.496-15.155-45.399
			c-0.694-1.342-1.416-2.692-2.167-4.063c-3.811-6.933-7.057-14.261-9.536-21.426c-4.766-13.771-6.685-26.946-4.281-35.561
			c0.01-0.042,0.023-0.079,0.038-0.121c14.377-6.648,19.947-32.43,19.947-32.43s49.052,8.805,76.525,74.187
			C2550.137,1411.041,2570.673,1466.895,2562.67,1478.406z"/>
		<path style="fill:#233862;" d="M2485.497,1482.092c-0.173-1.961-0.415-4.039-0.731-6.238
			c-1.748-12.028-5.898-27.496-15.155-45.399c1.589-9.634,3.783-17.647,6.191-21.253c9.784-14.662,15.481-16.953,15.481-16.953
			S2505.953,1454.116,2485.497,1482.092z"/>
		<path style="fill:#233862;" d="M2465.19,1295.961c0.159-0.315,0.624-0.652,1.756-0.999c0,0-1.062-0.356-2.296-0.086
			c-0.64-1.562-2.195-4.223-5.115-4.243c0,0,1.673,0.436,2.291,2.112c-4-2.536-11.414-3.272-29.924,2.894
			c-24.395,8.125-12.206,22.286-8.51,23.421c3.697,1.136,10.504-6.15,16.625-7.146c6.122-0.994,9.434,7.533,11.768,8.24
			s1.007-1.232,3.451-3.177c2.443-1.943,3.848,2.629,3.794,5.84c-0.054,3.21,4.712,6.254,4.712,6.254s0,0,2.795-5.126
			c2.795-5.127,2.034-23.737-0.635-27.087C2465.666,1296.563,2465.431,1296.262,2465.19,1295.961z"/>
		<g>
			<path style="fill:#FFB27D;" d="M2405.547,1468.115c0,0-8.561-0.445-10.453,0c-1.894,0.445-8.129,4.343-8.129,4.899
				s0.39,0.946,1.559,0.835s4.897-1.225,4.732-0.724c-0.167,0.501-10.781,4.454-10.541,6.682c0.24,2.227,6.922,5.345,12.045,4.788
				c5.122-0.557,14.263-7.816,14.982-8.307C2410.461,1475.799,2405.547,1468.115,2405.547,1468.115z"/>
			<path style="fill:#2B478B;" d="M2405.618,1472.518c-2.719-4.392-0.759-6.394-0.759-6.394s41.916-32.82,45.203-36.136
				c3.286-3.315,18.505-56.108,18.505-56.108s5.237-21.366,17.505-23.723c10.66-2.047,18.027,3.227,22.848,9.409
				c5.744,7.368,6.309,17.53,1.541,25.564c-10.703,18.033-32.292,53.831-38.597,59.946c-14.032,13.611-60.979,32.634-60.979,32.634
				S2407.754,1475.967,2405.618,1472.518z"/>
		</g>
	</g>
</g>
</svg>
