<?xml version="1.0" encoding="utf-8"?>
<!-- Generator: Adobe Illustrator 27.5.0, SVG Export Plug-In . SVG Version: 6.00 Build 0)  -->
<svg version="1.1" xmlns="http://www.w3.org/2000/svg" xmlns:xlink="http://www.w3.org/1999/xlink" x="0px" y="0px"
	 viewBox="0 0 750 500" style="enable-background:new 0 0 750 500;" xml:space="preserve">
<g id="BACKGROUND">
	<rect style="fill:#FFF3F3;" width="750" height="500"/>
</g>
<g id="OBJECTS">
	<g>
		<path style="fill:#F9E5CF;" d="M512.994,411.192c-68.313,0-129.264,2.048-169.164,5.251c-33.624-1.015-77.508-1.629-125.517-1.629
			c-105.832,0-191.625,2.985-191.625,6.667s85.794,6.667,191.625,6.667c28.424,0,55.397-0.216,79.656-0.602
			c3.357,1.402,9.875,2.736,19.068,3.97c-7.928,1.898-12.789,4.447-12.789,7.251c0,5.864,21.227,10.618,47.412,10.618
			c26.185,0,47.412-4.754,47.412-10.618c0-0.464-0.148-0.92-0.405-1.369c33.226,1.337,72.387,2.11,114.327,2.11
			c120.197,0,217.636-6.339,217.636-14.158C730.63,417.531,633.191,411.192,512.994,411.192z"/>
		<g>
			<g>
				<path style="fill:#F9E5CF;" d="M623.333,398.516H15.781c-2.16,0-3.911-1.751-3.911-3.912v-0.079c0-2.16,1.751-3.911,3.911-3.911
					h607.552c2.16,0,3.911,1.751,3.911,3.911v0.079C627.245,396.764,625.493,398.516,623.333,398.516z"/>
			</g>
			<g>
				<g>
					<path style="fill:#189FB1;" d="M68.343,153.069c1.345-6.791,7.883-13.152,5.179-19.525c-1.759-4.147-6.885-6.117-8.558-10.299
						c-1.782-4.455,0.341-11.071-4.583-12.873c-2.715-0.994-5.735,0.361-7.065,2.929c-3.801,7.339-5.48,15.715-4.968,23.95
						c0.319,5.13-1.925,10.009-6.021,13.114c-6.923,5.248-11.123,14.223-9.958,22.895c-8.093,7.169-12.547,18.253-11.667,29.029
						c0.673,8.242,4.455,16.154,10.289,21.997c2.824,2.828,3.772,6.926,2.729,10.783c-0.772,2.853-0.744,5.925,0.182,8.734
						c1.118,3.387,3.514,6.305,6.545,8.175c2.306,1.423,3.645,3.91,4.041,6.59c0.547,3.699,3.317,7.207,6.945,8.457
						c5.182,1.786,11.174-0.438,14.868-4.487c3.694-4.05,5.368-9.597,5.833-15.059c0.293-3.438,0.162-6.961,1.185-10.256
						c1.678-5.404,6.201-9.43,8.685-14.514c3.363-6.882,2.331-15.573-2.163-21.715c-1.442-1.971-1.556-4.61-0.428-6.776
						c1.763-3.383,1.83-7.777,0.683-11.529c-1.585-5.185-4.98-9.583-7.762-14.237C69.551,163.799,67.29,158.388,68.343,153.069z"/>
				</g>
				<g>
					<g>
						<g>
							<path style="fill:#54CED1;" d="M36.271,184.412c-0.166-0.096-0.222-0.308-0.126-0.474c0.096-0.166,0.308-0.222,0.473-0.126
								c0.166,0.096,0.222,0.308,0.127,0.473C36.648,184.451,36.436,184.508,36.271,184.412z"/>
						</g>
					</g>
					<g>
						<g>
							<path style="fill:#54CED1;" d="M35.112,188.146c-0.331-0.192-0.445-0.616-0.253-0.947c0.192-0.331,0.616-0.445,0.947-0.253
								c0.331,0.192,0.444,0.616,0.253,0.947C35.867,188.224,35.443,188.337,35.112,188.146z"/>
						</g>
					</g>
					<g>
						<g>
							<path style="fill:#54CED1;" d="M48.95,177.983c0.36,0.32,0.393,0.872,0.073,1.232c-0.32,0.36-0.872,0.393-1.232,0.073
								c-0.36-0.32-0.393-0.872-0.073-1.232C48.038,177.695,48.59,177.663,48.95,177.983z"/>
						</g>
					</g>
					<g>
						<g>
							<path style="fill:#54CED1;" d="M49.438,183.254c0.463,0.412,0.505,1.121,0.093,1.585c-0.412,0.464-1.121,0.505-1.584,0.094
								c-0.463-0.412-0.505-1.121-0.094-1.585C48.265,182.884,48.975,182.842,49.438,183.254z"/>
						</g>
					</g>
					<g>
						<g>
							<path style="fill:#54CED1;" d="M51.161,175.776c0.438,0.389,0.477,1.059,0.088,1.497c-0.389,0.438-1.059,0.477-1.496,0.088
								c-0.438-0.389-0.477-1.059-0.088-1.497C50.053,175.427,50.723,175.388,51.161,175.776z"/>
						</g>
					</g>
					<g>
						<g>
							<path style="fill:#54CED1;" d="M64.515,169.818c0.335,0.297,0.365,0.81,0.068,1.145c-0.297,0.335-0.81,0.365-1.144,0.067
								c-0.335-0.297-0.365-0.81-0.068-1.144C63.668,169.551,64.18,169.52,64.515,169.818z"/>
						</g>
					</g>
					<g>
						<g>
							<path style="fill:#54CED1;" d="M64.853,181.892c0.18,0.16,0.197,0.436,0.036,0.616c-0.16,0.18-0.436,0.197-0.616,0.036
								c-0.18-0.16-0.197-0.436-0.036-0.616C64.397,181.748,64.673,181.732,64.853,181.892z"/>
						</g>
					</g>
					<g>
						<g>
							<path style="fill:#54CED1;" d="M64.015,185.651c0.335,0.297,0.365,0.81,0.068,1.145c-0.297,0.335-0.81,0.365-1.144,0.068
								c-0.335-0.297-0.365-0.81-0.068-1.145C63.168,185.384,63.68,185.354,64.015,185.651z"/>
						</g>
					</g>
					<g>
						<g>
							<path style="fill:#54CED1;" d="M69.209,187.597c0.412,0.366,0.449,0.997,0.083,1.408c-0.366,0.412-0.996,0.449-1.408,0.083
								c-0.412-0.366-0.449-0.997-0.083-1.408C68.167,187.268,68.797,187.231,69.209,187.597z"/>
						</g>
					</g>
					<g>
						<g>
							<path style="fill:#54CED1;" d="M37.338,169.777c-0.264-0.361-0.185-0.869,0.176-1.133c0.361-0.264,0.868-0.185,1.133,0.176
								c0.264,0.361,0.185,0.869-0.176,1.133C38.109,170.217,37.602,170.139,37.338,169.777z"/>
						</g>
					</g>
					<g>
						<g>
							<path style="fill:#54CED1;" d="M34.144,178.475c-0.223-0.306-0.157-0.735,0.149-0.958c0.306-0.224,0.735-0.157,0.959,0.149
								c0.223,0.306,0.157,0.735-0.149,0.958C34.797,178.847,34.368,178.781,34.144,178.475z"/>
						</g>
					</g>
					<g>
						<g>
							<path style="fill:#54CED1;" d="M36.817,174.794c-0.508-0.695-0.357-1.67,0.338-2.178c0.695-0.508,1.67-0.356,2.178,0.339
								c0.508,0.695,0.356,1.67-0.339,2.178C38.301,175.64,37.326,175.489,36.817,174.794z"/>
						</g>
					</g>
					<g>
						<g>
							<path style="fill:#54CED1;" d="M44.994,176.803c0.412,0.366,0.449,0.997,0.083,1.408c-0.366,0.412-0.997,0.449-1.408,0.083
								c-0.412-0.366-0.449-0.997-0.083-1.408C43.951,176.474,44.582,176.437,44.994,176.803z"/>
						</g>
					</g>
					<g>
						<g>
							<path style="fill:#54CED1;" d="M51.572,186.485c0.618,0.549,0.674,1.495,0.125,2.113c-0.549,0.618-1.495,0.674-2.113,0.125
								c-0.618-0.549-0.674-1.495-0.125-2.113C50.009,185.992,50.954,185.936,51.572,186.485z"/>
						</g>
					</g>
					<g>
						<g>
							<path style="fill:#54CED1;" d="M71.119,178.376c0.36,0.32,0.393,0.872,0.073,1.232c-0.32,0.36-0.872,0.393-1.232,0.073
								c-0.36-0.32-0.393-0.872-0.073-1.232C70.207,178.089,70.758,178.056,71.119,178.376z"/>
						</g>
					</g>
					<g>
						<g>
							<path style="fill:#54CED1;" d="M65.388,188.706c0.669,0.595,0.73,1.62,0.135,2.289c-0.595,0.669-1.619,0.73-2.289,0.135
								c-0.669-0.595-0.73-1.619-0.135-2.289C63.694,188.172,64.718,188.111,65.388,188.706z"/>
						</g>
					</g>
					<g>
						<g>
							<path style="fill:#54CED1;" d="M74.692,183.961c0.335,0.297,0.365,0.81,0.068,1.144c-0.297,0.335-0.81,0.365-1.145,0.068
								c-0.335-0.297-0.365-0.81-0.068-1.145C73.845,183.694,74.357,183.663,74.692,183.961z"/>
						</g>
					</g>
					<g>
						<g>
							<path style="fill:#54CED1;" d="M38.12,236.885c0.335,0.297,0.365,0.81,0.068,1.144c-0.297,0.335-0.81,0.365-1.145,0.068
								c-0.335-0.297-0.365-0.81-0.067-1.144C37.273,236.618,37.786,236.588,38.12,236.885z"/>
						</g>
					</g>
					<g>
						<g>
							<path style="fill:#54CED1;" d="M45.771,209.386c-0.525-0.718-0.369-1.726,0.35-2.251c0.718-0.525,1.726-0.369,2.251,0.35
								c0.525,0.718,0.369,1.726-0.35,2.251C47.304,210.261,46.296,210.105,45.771,209.386z"/>
						</g>
					</g>
					<g>
						<g>
							<path style="fill:#54CED1;" d="M29.688,185.408c-0.414-0.24-0.556-0.77-0.316-1.184c0.24-0.414,0.77-0.556,1.184-0.316
								c0.414,0.24,0.556,0.77,0.316,1.184C30.632,185.506,30.102,185.648,29.688,185.408z"/>
						</g>
					</g>
					<g>
						<g>
							<path style="fill:#54CED1;" d="M39.715,242.139c-0.023-0.29,0.194-0.544,0.484-0.567c0.29-0.023,0.544,0.193,0.567,0.484
								c0.023,0.29-0.194,0.544-0.484,0.567C39.992,242.645,39.738,242.429,39.715,242.139z"/>
						</g>
					</g>
					<g>
						<g>
							<path style="fill:#54CED1;" d="M37.62,224.135c-0.046-0.58,0.387-1.087,0.967-1.133c0.58-0.046,1.087,0.387,1.133,0.967
								c0.046,0.58-0.387,1.087-0.967,1.133C38.174,225.148,37.666,224.715,37.62,224.135z"/>
						</g>
					</g>
					<g>
						<g>
							<path style="fill:#54CED1;" d="M48.128,248.891c-0.04-0.507,0.339-0.951,0.846-0.992c0.507-0.04,0.951,0.339,0.991,0.846
								c0.04,0.507-0.339,0.951-0.846,0.991C48.612,249.778,48.168,249.399,48.128,248.891z"/>
						</g>
					</g>
					<g>
						<g>
							<path style="fill:#54CED1;" d="M50.057,242.031c-0.052-0.652,0.436-1.223,1.088-1.275c0.653-0.052,1.223,0.436,1.275,1.088
								c0.052,0.652-0.436,1.223-1.088,1.275C50.679,243.17,50.108,242.683,50.057,242.031z"/>
						</g>
					</g>
					<g>
						<g>
							<path style="fill:#54CED1;" d="M44.831,248.954c-0.049-0.616,0.411-1.155,1.027-1.204c0.616-0.049,1.155,0.411,1.204,1.027
								c0.049,0.616-0.411,1.155-1.028,1.204C45.419,250.03,44.88,249.57,44.831,248.954z"/>
						</g>
					</g>
					<g>
						<g>
							<path style="fill:#54CED1;" d="M34.049,217.931c-0.037-0.471,0.314-0.883,0.786-0.921c0.471-0.037,0.883,0.315,0.921,0.786
								c0.037,0.471-0.314,0.884-0.786,0.921C34.498,218.754,34.086,218.402,34.049,217.931z"/>
						</g>
					</g>
					<g>
						<g>
							<path style="fill:#54CED1;" d="M37.675,213.682c-0.02-0.254,0.169-0.476,0.423-0.495c0.254-0.02,0.476,0.169,0.496,0.423
								c0.02,0.254-0.169,0.476-0.423,0.496C37.917,214.125,37.695,213.936,37.675,213.682z"/>
						</g>
					</g>
					<g>
						<g>
							<path style="fill:#54CED1;" d="M41.063,211.433c-0.037-0.471,0.314-0.883,0.786-0.921c0.471-0.037,0.884,0.315,0.921,0.786
								c0.037,0.471-0.315,0.883-0.786,0.921C41.513,212.256,41.101,211.904,41.063,211.433z"/>
						</g>
					</g>
					<g>
						<g>
							<path style="fill:#54CED1;" d="M38.532,206.151c-0.046-0.58,0.387-1.088,0.967-1.133c0.58-0.046,1.087,0.387,1.133,0.967
								c0.046,0.58-0.387,1.087-0.967,1.133C39.086,207.164,38.578,206.731,38.532,206.151z"/>
						</g>
					</g>
					<g>
						<g>
							<path style="fill:#54CED1;" d="M33.65,211.226c-0.037-0.471,0.315-0.883,0.786-0.921c0.471-0.037,0.883,0.315,0.921,0.786
								s-0.314,0.883-0.786,0.921C34.1,212.049,33.688,211.697,33.65,211.226z"/>
						</g>
					</g>
					<g>
						<g>
							<path style="fill:#54CED1;" d="M33.154,197.029c-0.031-0.398,0.266-0.747,0.665-0.779c0.399-0.031,0.747,0.266,0.779,0.665
								c0.032,0.399-0.266,0.747-0.665,0.779C33.534,197.726,33.186,197.428,33.154,197.029z"/>
						</g>
					</g>
					<g>
						<g>
							<path style="fill:#54CED1;" d="M31.196,202.336c-0.072-0.906,0.605-1.699,1.511-1.77c0.906-0.072,1.699,0.605,1.77,1.511
								c0.072,0.906-0.605,1.699-1.511,1.77C32.06,203.919,31.268,203.242,31.196,202.336z"/>
						</g>
					</g>
					<g>
						<g>
							<path style="fill:#54CED1;" d="M44.487,240.668c-0.046-0.58,0.387-1.087,0.967-1.133c0.58-0.046,1.087,0.387,1.133,0.967
								c0.046,0.58-0.387,1.087-0.967,1.133C45.041,241.681,44.533,241.248,44.487,240.668z"/>
						</g>
					</g>
					<g>
						<g>
							<path style="fill:#54CED1;" d="M50.795,238.01c-0.069-0.87,0.581-1.631,1.451-1.7c0.87-0.069,1.631,0.581,1.7,1.451
								c0.069,0.87-0.581,1.631-1.451,1.7C51.625,239.529,50.864,238.88,50.795,238.01z"/>
						</g>
					</g>
					<g>
						<g>
							<path style="fill:#54CED1;" d="M34.057,214.694c-0.04-0.507,0.339-0.951,0.846-0.992c0.508-0.04,0.951,0.339,0.992,0.846
								c0.04,0.507-0.339,0.951-0.846,0.992C34.541,215.581,34.097,215.202,34.057,214.694z"/>
						</g>
					</g>
					<g>
						<g>
							<path style="fill:#54CED1;" d="M46.148,199.726c-0.075-0.942,0.629-1.767,1.571-1.842c0.942-0.074,1.767,0.629,1.841,1.572
								c0.074,0.943-0.629,1.767-1.572,1.841C47.047,201.372,46.222,200.668,46.148,199.726z"/>
						</g>
					</g>
					<g>
						<g>
							<path style="fill:#54CED1;" d="M35.593,196.532c-0.037-0.471,0.315-0.883,0.786-0.921c0.471-0.037,0.883,0.315,0.921,0.786
								c0.037,0.471-0.314,0.883-0.786,0.921C36.042,197.355,35.63,197.003,35.593,196.532z"/>
						</g>
					</g>
					<g>
						<g>
							<path style="fill:#54CED1;" d="M36.012,193.398c-0.024-0.31,0.207-0.581,0.517-0.606c0.31-0.025,0.581,0.207,0.606,0.517
								c0.025,0.31-0.207,0.581-0.517,0.606C36.307,193.94,36.036,193.708,36.012,193.398z"/>
						</g>
					</g>
					<g>
						<g>
							<path style="fill:#54CED1;" d="M26.791,196.74c-0.049-0.616,0.411-1.155,1.027-1.204c0.616-0.049,1.155,0.411,1.204,1.028
								c0.049,0.616-0.411,1.155-1.027,1.204C27.379,197.817,26.84,197.356,26.791,196.74z"/>
						</g>
					</g>
					<g>
						<g>
							<path style="fill:#54CED1;" d="M29.212,207.314c-0.057-0.725,0.484-1.359,1.209-1.417c0.725-0.057,1.359,0.484,1.416,1.209
								c0.057,0.725-0.484,1.359-1.209,1.416C29.904,208.58,29.27,208.039,29.212,207.314z"/>
						</g>
					</g>
				</g>
				<g>
					<path style="fill:#14345A;" d="M55.813,199.229v54.681c-2.034-0.518-2.624-1.489-3.161-3.76l-1.216,0.288
						c0.629,2.664,1.494,4.093,4.376,4.746v115.181h1.25V260.629c4.008-1.017,6.953-3.993,8.739-8.879l-1.174-0.43
						c-1.61,4.406-4.097,7.018-7.565,8.008v-49.872c7.807-0.448,11.678-8.553,13.924-14.755l-1.174-0.426
						c-3.36,9.274-7.338,13.611-12.75,13.948v-23.144c2.202-0.867,4.559-3.329,7.353-7.694l-1.052-0.674
						c-2.414,3.772-4.486,6.065-6.301,6.997v-30.763h-1.25v17.016c-1.431-0.21-3.12-3-4.305-5.192l-1.098,0.594
						c1.624,3.005,3.396,5.719,5.404,5.85v26.689c-5.654-2.027-9.703-6.267-12.316-12.989l-1.164,0.453
						C45.11,192.512,49.654,197.155,55.813,199.229z"/>
				</g>
			</g>
			<g>
				<g>
					<g>
						<rect x="236.731" y="110.585" style="fill:#D3A479;" width="25.651" height="57.002"/>
					</g>
					<g>
						<polygon style="fill:#B27C4F;" points="236.731,121.942 236.731,167.588 262.382,167.588 262.382,146.575 						"/>
					</g>
				</g>
				<g>
					<g>
						<polygon style="fill:#F0CD95;" points="184.676,76.621 40.83,220.468 40.83,232.19 331.453,232.19 331.453,223.398 						"/>
					</g>
					<g>
						<polygon style="fill:#54CED1;" points="184.994,89.913 328.404,232.36 300.189,232.36 300.189,376.922 69.798,376.922 
							69.798,232.36 41.583,232.36 						"/>
					</g>
					<g>
						<polygon style="fill:#189FB1;" points="184.993,107.489 310.71,232.36 328.404,232.36 184.993,89.913 41.583,232.36 
							59.278,232.36 						"/>
					</g>
					<g>
						<polygon style="fill:#14345A;" points="186.62,91.529 186.62,109.104 310.71,232.36 328.404,232.36 						"/>
					</g>
				</g>
				<g>
					<g>
						<g>
							<g>
								<rect x="137.065" y="234.958" style="fill:#14345A;" width="43.601" height="146.189"/>
							</g>
							<g>
								<rect x="184.338" y="234.958" style="fill:#14345A;" width="43.601" height="146.189"/>
							</g>
						</g>
						<g>
							<g>
								<rect x="137.065" y="248.802" style="fill:#189FB1;" width="43.601" height="132.344"/>
							</g>
							<g>
								<rect x="184.338" y="248.802" style="fill:#189FB1;" width="43.601" height="132.344"/>
							</g>
						</g>
					</g>
					<g>
						<rect x="108.42" y="213.721" style="fill:#189FB1;" width="145.201" height="13.829"/>
					</g>
					<g>
						<g>
							<g>
								<g>
									<rect x="112.476" y="235.541" style="fill:#FFFFFF;" width="20.408" height="20.408"/>
								</g>
								<g>
									<rect x="88.143" y="235.541" style="fill:#FFFFFF;" width="20.408" height="20.408"/>
								</g>
							</g>
							<g>
								<g>
									<rect x="112.476" y="259.677" style="fill:#FFFFFF;" width="20.408" height="20.408"/>
								</g>
								<g>
									<rect x="88.143" y="259.677" style="fill:#FFFFFF;" width="20.408" height="20.408"/>
								</g>
							</g>
						</g>
						<g>
							<g>
								<g>
									<rect x="256.382" y="235.541" style="fill:#FFFFFF;" width="20.408" height="20.408"/>
								</g>
								<g>
									<rect x="232.05" y="235.541" style="fill:#FFFFFF;" width="20.408" height="20.408"/>
								</g>
							</g>
							<g>
								<g>
									<rect x="256.382" y="259.677" style="fill:#FFFFFF;" width="20.408" height="20.408"/>
								</g>
								<g>
									<rect x="232.05" y="259.677" style="fill:#FFFFFF;" width="20.408" height="20.408"/>
								</g>
							</g>
						</g>
					</g>
				</g>
			</g>
			<g>
				<g>
					<g>
						<path style="fill:#189FB1;" d="M311.316,115.491c1.345-6.791,7.883-13.152,5.179-19.525c-1.76-4.147-6.885-6.117-8.558-10.299
							c-1.782-4.455,0.341-11.071-4.583-12.873c-2.715-0.994-5.735,0.361-7.065,2.929c-3.801,7.339-5.48,15.715-4.968,23.949
							c0.319,5.13-1.925,10.009-6.021,13.114c-6.923,5.248-11.123,14.223-9.958,22.895c-8.093,7.17-12.547,18.253-11.667,29.029
							c0.673,8.242,4.455,16.154,10.289,21.997c2.824,2.828,3.772,6.926,2.729,10.783c-0.772,2.853-0.744,5.926,0.183,8.734
							c1.117,3.387,3.514,6.305,6.544,8.175c2.306,1.423,3.645,3.91,4.041,6.59c0.547,3.699,3.317,7.207,6.945,8.457
							c5.182,1.786,11.174-0.438,14.868-4.487c3.694-4.05,5.368-9.597,5.833-15.059c0.293-3.438,0.162-6.961,1.185-10.256
							c1.678-5.404,6.201-9.43,8.685-14.514c3.363-6.882,2.331-15.573-2.163-21.715c-1.442-1.971-1.556-4.61-0.428-6.776
							c1.763-3.383,1.83-7.777,0.683-11.529c-1.585-5.185-4.98-9.583-7.762-14.237C312.524,126.221,310.263,120.81,311.316,115.491z
							"/>
					</g>
					<g>
						<path style="fill:#14345A;" d="M300.037,221.75v-49.872c7.807-0.448,11.678-8.553,13.924-14.755l-1.174-0.426
							c-3.36,9.274-7.338,13.611-12.75,13.948V147.5c2.202-0.867,4.559-3.329,7.353-7.694l-1.052-0.674
							c-2.414,3.772-4.485,6.066-6.301,6.997v-30.763h-1.25v17.016c-1.431-0.21-3.12-3-4.305-5.192l-1.098,0.594
							c1.624,3.005,3.396,5.72,5.404,5.85v26.689c-5.654-2.027-9.703-6.267-12.316-12.989l-1.164,0.453
							c2.777,7.146,7.321,11.789,13.48,13.863v54.681c-2.034-0.518-2.624-1.489-3.161-3.76l-1.215,0.288
							c0.629,2.664,1.494,4.092,4.376,4.746v30.537h1.25v-25.092c4.008-1.017,6.953-3.993,8.739-8.879l-1.174-0.43
							C305.992,218.147,303.504,220.759,300.037,221.75z"/>
					</g>
				</g>
				<g>
					<g>
						<g>
							<g>
								<path style="fill:#54CED1;" d="M284.15,204.466c0.688-0.105,1.33,0.367,1.435,1.054c0.105,0.688-0.366,1.33-1.054,1.435
									c-0.688,0.105-1.33-0.366-1.436-1.054C282.991,205.214,283.463,204.571,284.15,204.466z"/>
							</g>
						</g>
						<g>
							<g>
								<path style="fill:#54CED1;" d="M290.452,208.777c0.884-0.135,1.71,0.471,1.846,1.355c0.135,0.884-0.471,1.71-1.355,1.846
									c-0.884,0.135-1.71-0.471-1.846-1.355C288.962,209.739,289.569,208.913,290.452,208.777z"/>
							</g>
						</g>
						<g>
							<g>
								<path style="fill:#54CED1;" d="M283.735,199.98c0.835-0.128,1.615,0.445,1.743,1.28c0.128,0.835-0.445,1.615-1.28,1.743
									c-0.835,0.128-1.615-0.445-1.743-1.28C282.328,200.888,282.901,200.108,283.735,199.98z"/>
							</g>
						</g>
						<g>
							<g>
								<path style="fill:#54CED1;" d="M292.214,200.682c0.638-0.098,1.235,0.34,1.333,0.979c0.098,0.638-0.34,1.235-0.978,1.333
									c-0.638,0.098-1.235-0.34-1.333-0.979C291.138,201.377,291.576,200.78,292.214,200.682z"/>
							</g>
						</g>
						<g>
							<g>
								<path style="fill:#54CED1;" d="M294.109,195.096c0.344-0.053,0.665,0.183,0.717,0.527c0.053,0.344-0.183,0.665-0.527,0.718
									c-0.344,0.053-0.665-0.183-0.718-0.527C293.529,195.47,293.765,195.149,294.109,195.096z"/>
							</g>
						</g>
						<g>
							<g>
								<path style="fill:#54CED1;" d="M301.769,209.59c0.638-0.098,1.235,0.34,1.333,0.979c0.098,0.638-0.34,1.235-0.979,1.333
									c-0.638,0.098-1.235-0.34-1.333-0.979C300.693,210.285,301.131,209.688,301.769,209.59z"/>
							</g>
						</g>
						<g>
							<g>
								<path style="fill:#54CED1;" d="M308.712,205.614c0.786-0.12,1.52,0.419,1.641,1.204c0.12,0.786-0.419,1.52-1.204,1.641
									c-0.785,0.12-1.52-0.419-1.64-1.204C307.387,206.469,307.926,205.735,308.712,205.614z"/>
							</g>
						</g>
						<g>
							<g>
								<path style="fill:#54CED1;" d="M284.355,187.525c0.638-0.098,1.235,0.34,1.333,0.978c0.098,0.638-0.34,1.235-0.979,1.333
									c-0.638,0.098-1.235-0.34-1.333-0.979C283.279,188.22,283.717,187.623,284.355,187.525z"/>
							</g>
						</g>
						<g>
							<g>
								<path style="fill:#54CED1;" d="M275.346,177.654c0.54-0.083,1.045,0.288,1.128,0.828c0.083,0.54-0.288,1.045-0.828,1.128
									c-0.54,0.083-1.045-0.288-1.128-0.828C274.436,178.242,274.806,177.736,275.346,177.654z"/>
							</g>
						</g>
						<g>
							<g>
								<path style="fill:#54CED1;" d="M278.28,183.523c1.228-0.188,2.375,0.654,2.563,1.882c0.188,1.228-0.654,2.375-1.882,2.563
									c-1.228,0.188-2.375-0.654-2.563-1.882C276.21,184.859,277.053,183.711,278.28,183.523z"/>
							</g>
						</g>
						<g>
							<g>
								<path style="fill:#54CED1;" d="M281.819,193.63c0.786-0.12,1.52,0.419,1.641,1.204c0.12,0.786-0.419,1.52-1.204,1.641
									c-0.786,0.12-1.52-0.419-1.641-1.204C280.494,194.484,281.034,193.75,281.819,193.63z"/>
							</g>
						</g>
						<g>
							<g>
								<path style="fill:#54CED1;" d="M295.21,204.918c1.178-0.18,2.28,0.628,2.461,1.807c0.181,1.178-0.628,2.28-1.807,2.461
									c-1.178,0.181-2.28-0.628-2.461-1.807C293.223,206.201,294.032,205.099,295.21,204.918z"/>
							</g>
						</g>
						<g>
							<g>
								<path style="fill:#54CED1;" d="M304.18,198.641c0.687-0.105,1.33,0.366,1.435,1.054c0.105,0.687-0.367,1.33-1.054,1.435
									c-0.687,0.105-1.33-0.366-1.436-1.054C303.02,199.389,303.492,198.746,304.18,198.641z"/>
							</g>
						</g>
						<g>
							<g>
								<path style="fill:#54CED1;" d="M293.849,219.241c1.277-0.196,2.47,0.68,2.666,1.957c0.196,1.277-0.681,2.47-1.957,2.666
									c-1.277,0.196-2.47-0.681-2.666-1.957C291.697,220.63,292.573,219.436,293.849,219.241z"/>
							</g>
						</g>
						<g>
							<g>
								<path style="fill:#54CED1;" d="M309.722,196.178c0.638-0.098,1.235,0.34,1.333,0.979c0.098,0.638-0.34,1.235-0.979,1.333
									c-0.638,0.098-1.235-0.34-1.333-0.979C308.646,196.873,309.084,196.276,309.722,196.178z"/>
							</g>
						</g>
						<g>
							<g>
								<path style="fill:#54CED1;" d="M308.36,187.896c0.638-0.098,1.235,0.34,1.333,0.979c0.098,0.638-0.34,1.235-0.978,1.333
									c-0.638,0.098-1.235-0.34-1.333-0.979C307.284,188.591,307.722,187.994,308.36,187.896z"/>
							</g>
						</g>
						<g>
							<g>
								<path style="fill:#54CED1;" d="M295.751,185.763c0.835-0.128,1.615,0.445,1.743,1.28c0.128,0.835-0.445,1.615-1.28,1.743
									c-0.835,0.128-1.615-0.445-1.743-1.28C294.343,186.672,294.916,185.891,295.751,185.763z"/>
							</g>
						</g>
						<g>
							<g>
								<path style="fill:#54CED1;" d="M305.866,151.831c0.582-0.371,1.355-0.199,1.726,0.383c0.371,0.582,0.2,1.355-0.383,1.726
									c-0.582,0.371-1.355,0.199-1.725-0.382C305.112,152.975,305.283,152.202,305.866,151.831z"/>
							</g>
						</g>
						<g>
							<g>
								<path style="fill:#54CED1;" d="M283.171,161.658c0.254,0.108,0.373,0.401,0.265,0.655c-0.108,0.254-0.401,0.373-0.655,0.266
									c-0.254-0.108-0.373-0.401-0.266-0.655S282.917,161.551,283.171,161.658z"/>
							</g>
						</g>
						<g>
							<g>
								<path style="fill:#54CED1;" d="M284.163,156.107c0.509,0.215,0.747,0.802,0.531,1.31c-0.215,0.509-0.802,0.746-1.31,0.531
									c-0.509-0.215-0.746-0.802-0.531-1.31C283.068,156.129,283.654,155.891,284.163,156.107z"/>
							</g>
						</g>
						<g>
							<g>
								<path style="fill:#54CED1;" d="M288.701,168.476c0.445,0.188,0.653,0.701,0.465,1.146c-0.188,0.445-0.701,0.653-1.146,0.465
									c-0.445-0.188-0.653-0.702-0.465-1.146C287.742,168.496,288.255,168.288,288.701,168.476z"/>
							</g>
						</g>
						<g>
							<g>
								<path style="fill:#54CED1;" d="M290.857,173.324c0.572,0.242,0.84,0.902,0.598,1.474c-0.242,0.572-0.902,0.84-1.474,0.598
									c-0.572-0.242-0.84-0.902-0.598-1.474S290.284,173.081,290.857,173.324z"/>
							</g>
						</g>
						<g>
							<g>
								<path style="fill:#54CED1;" d="M290.09,165.671c0.541,0.229,0.793,0.852,0.565,1.392c-0.229,0.54-0.852,0.793-1.392,0.565
									c-0.54-0.229-0.793-0.852-0.564-1.392C288.927,165.695,289.55,165.443,290.09,165.671z"/>
							</g>
						</g>
						<g>
							<g>
								<path style="fill:#54CED1;" d="M294.85,169.178c0.413,0.175,0.607,0.651,0.432,1.065c-0.175,0.413-0.652,0.606-1.065,0.432
									c-0.413-0.175-0.607-0.652-0.432-1.065C293.96,169.196,294.436,169.003,294.85,169.178z"/>
							</g>
						</g>
						<g>
							<g>
								<path style="fill:#54CED1;" d="M296.842,174.092c0.223,0.094,0.327,0.351,0.232,0.573c-0.094,0.223-0.351,0.327-0.573,0.232
									c-0.223-0.094-0.327-0.351-0.233-0.573C296.363,174.101,296.619,173.997,296.842,174.092z"/>
							</g>
						</g>
						<g>
							<g>
								<path style="fill:#54CED1;" d="M297.253,177.93c0.413,0.175,0.607,0.651,0.432,1.065c-0.175,0.413-0.651,0.606-1.065,0.432
									c-0.413-0.175-0.606-0.651-0.432-1.065C296.364,177.948,296.84,177.755,297.253,177.93z"/>
							</g>
						</g>
						<g>
							<g>
								<path style="fill:#54CED1;" d="M302.809,178.109c0.509,0.215,0.746,0.802,0.531,1.31c-0.215,0.508-0.802,0.747-1.31,0.531
									c-0.509-0.215-0.746-0.802-0.531-1.31S302.301,177.894,302.809,178.109z"/>
							</g>
						</g>
						<g>
							<g>
								<path style="fill:#54CED1;" d="M295.74,162.904c0.795,0.336,1.166,1.253,0.83,2.047c-0.336,0.795-1.253,1.167-2.047,0.83
									c-0.795-0.336-1.166-1.253-0.83-2.048C294.028,162.94,294.945,162.568,295.74,162.904z"/>
							</g>
						</g>
						<g>
							<g>
								<path style="fill:#54CED1;" d="M284.566,168.626c0.508,0.215,0.746,0.802,0.531,1.31c-0.215,0.509-0.802,0.747-1.31,0.531
									c-0.509-0.215-0.746-0.802-0.531-1.311C283.47,168.649,284.057,168.411,284.566,168.626z"/>
							</g>
						</g>
						<g>
							<g>
								<path style="fill:#54CED1;" d="M293.92,175.705c0.763,0.323,1.12,1.203,0.797,1.966c-0.323,0.763-1.203,1.12-1.966,0.797
									c-0.763-0.323-1.12-1.203-0.797-1.965C292.277,175.739,293.157,175.382,293.92,175.705z"/>
							</g>
						</g>
						<g>
							<g>
								<path style="fill:#54CED1;" d="M297.572,170.601c0.445,0.188,0.653,0.701,0.465,1.146c-0.188,0.445-0.702,0.653-1.147,0.465
									c-0.445-0.188-0.653-0.702-0.465-1.147C296.614,170.621,297.127,170.413,297.572,170.601z"/>
							</g>
						</g>
						<g>
							<g>
								<path style="fill:#54CED1;" d="M306.847,172.896c0.413,0.175,0.607,0.652,0.432,1.065c-0.175,0.413-0.651,0.607-1.065,0.432
									c-0.413-0.175-0.606-0.652-0.432-1.065C305.957,172.915,306.434,172.721,306.847,172.896z"/>
							</g>
						</g>
						<g>
							<g>
								<path style="fill:#54CED1;" d="M308.14,179.143c0.413,0.175,0.607,0.652,0.432,1.065c-0.175,0.413-0.652,0.606-1.065,0.432
									c-0.413-0.175-0.606-0.652-0.431-1.065C307.25,179.161,307.726,178.968,308.14,179.143z"/>
							</g>
						</g>
						<g>
							<g>
								<path style="fill:#54CED1;" d="M302.38,161.643c0.54,0.228,0.793,0.852,0.564,1.392c-0.229,0.54-0.852,0.793-1.392,0.564
									c-0.541-0.229-0.793-0.852-0.565-1.392C301.216,161.667,301.84,161.414,302.38,161.643z"/>
							</g>
						</g>
						<g>
							<g>
								<path style="fill:#54CED1;" d="M292.415,159.055c0.636,0.269,0.933,1.002,0.664,1.638c-0.269,0.636-1.002,0.933-1.638,0.664
									c-0.636-0.269-0.933-1.002-0.664-1.638C291.046,159.083,291.779,158.786,292.415,159.055z"/>
							</g>
						</g>
					</g>
				</g>
			</g>
			<g>
				<path style="fill:#189FB1;" d="M89.333,274.072c-0.129-0.992-1.853-1.197-2.364-2.102c-0.874-1.547-2.261-2.336-4.126-2.17
					c-1.484,0.132-2.997-0.248-3.942,1.191c-0.885,1.348-2.098,2.48-2.889,3.879c-0.554,0.98-2.572,1.475-2.338,2.835
					c0.241,1.399,1.307,2.086,0.781,3.596c-0.265,0.761-0.659,1.512-0.748,2.325c-0.752-0.055-1.51,0.049-2.256,0.125
					c-2.128,0.219-4.082,0.125-6.157,0.815c-1.629,0.542-2.871,0.579-4.373,1.584c-1.438,0.963-2.655,2.218-4.17,3.05
					c-1.634,0.898-1.278,1.7-1.59,3.305c-0.318,1.637-2.731,1.099-2.999,2.877c-0.26,1.724-0.908,3.096-1.273,4.772
					c-0.437,2.007,0.081,4.304-0.52,6.26c-0.484,1.574-0.994,2.361,0.576,3.364c2.037,1.301,0.324,2.081,1.088,3.758
					c-2.363-0.683-4.403-0.504-6.115,1.57c-0.76,0.921-1.41,1.639-1.935,2.721c-0.499,1.029-1.422,1.197-2.175,1.945
					c-0.9,0.893-0.023,2.195-0.245,3.251c-0.255,1.208-1.6,1.851-1.194,3.228c0.395,1.339,0.84,2.023,0.387,3.44
					c-0.442,1.384-0.136,2.84,0.012,4.255c-0.971-0.854-2.662-0.918-3.811-1.55c-1.463-0.805-3.329-0.183-4.788,0.375
					c-1.851,0.709-1.971,1.694-3.247,2.919c-0.884,0.848-3.223-0.283-3.441,1.361c-0.215,1.624,0.326,2.363-0.95,3.68
					c-1.361,1.406-0.38,2.4-0.791,4.018c-0.419,1.65-0.413,3.65-0.685,5.365c-0.201,1.262-1.858,1.877-2.172,3.354
					c-0.398,1.873-0.257,2.256,0.851,3.705c0.814,1.065,0.565,3.253,0.447,4.518c-0.167,1.798-0.293,2.284-1.421,3.641
					c-0.952,1.144-0.196,3.727,0.332,4.977c0.545,1.291,1.046,2.137,1.761,3.325c0.979,1.625-1.12,2.568,1.196,3.367
					c1.093,0.377,2.76,0.349,3.929,0.349c1.487,0,2.277-1.083,3.972-0.843c1.349,0.192,2.629-0.083,3.972-0.083
					c1.173,0,1.475,1.435,2.648,1.435c1.256,0,1.393-1.726,2.649-1.727c1.592,0,2.891,0.296,4.511,0.055
					c1.504-0.224,1.639,0.545,2.559,1.434c0.802,0.775,2.513,0.249,3.519,0.249c0.87,0,2.97-0.323,3.627-0.872
					c1.012-0.846,1.847-1.516,2.989-0.343c0.879,0.903,1.809,0.736,2.85,0.208c1.375-0.698,2.427,0.356,3.77,0.356
					c1.311,0,2.67-0.051,3.974-0.167c1.58-0.141,3.257,0.736,4.762,0.34c1.303-0.343,2.092-0.662,3.39-0.056
					c1.264,0.591,2.493-0.148,3.776-0.148c1.278,0,2.061,0.975,3.433,0.642c1.426-0.347,3.03-0.887,4.516-0.887
					c1.182,0,2.237,0.47,3.441,0.291c1.116-0.165,2.096-0.472,3.195,0.023c0.894,0.403,2.452,0.621,3.442,0.584
					c1.538-0.058,0.276-1.974,0.035-2.929c-0.312-1.24,0.598-2.124,0.521-3.315c-0.08-1.241-0.429-2.858-1.063-3.934
					c-0.762-1.292-0.359-1.993-0.022-3.334c0.402-1.6-1.234-2.848-0.241-4.388c0.642-0.996,1.1-1.661,0.228-2.684
					c-0.681-0.798-1.36-1.449-0.615-2.451c1.962-2.637,0.131-4.25-0.055-7.113c-0.194-2.986-1.083-5.818-1.306-8.811
					c-0.242-3.245-0.729-6.514-0.938-9.725c-0.07-1.085,1.402-1.67,1.332-2.755c-0.096-1.475-0.286-2.947-0.395-4.422
					c-0.096-1.298-1.009-2.27-1.088-3.488c-0.115-1.776-0.062-3.558-0.176-5.326c-0.171-2.642,1.956-4.913-0.483-6.831
					c-2.014-1.585,1.067-4.814,0.224-7.163c-0.898-2.502-1.869-5.413-1.798-8.112c0.072-2.752,1.589-6.452-0.282-8.699
					c-1.046-1.257-0.006-2.322-0.097-3.73c-0.09-1.391-0.461-2.624-0.199-4.022C93.201,271.119,90.585,271.328,89.333,274.072
					C89.202,273.066,89.851,272.936,89.333,274.072z"/>
			</g>
			<g>
				<g>
					<rect x="38.293" y="334.311" style="fill:#D3A479;" width="45.931" height="47.906"/>
				</g>
				<g>
					<polygon style="fill:#B27C4F;" points="84.223,346.699 48.705,382.218 84.223,382.218 					"/>
				</g>
			</g>
			<g>
				<g>
					<rect x="92.372" y="312.087" style="fill:#D3A479;" width="46.919" height="68.649"/>
				</g>
				<g>
					<polygon style="fill:#B27C4F;" points="92.372,375.633 92.372,380.736 139.291,380.736 139.291,328.715 					"/>
				</g>
			</g>
			<g>
				<g>
					<g>
						<g>
							<rect x="125.378" y="290.175" style="fill:#189FB1;" width="349.152" height="101.986"/>
						</g>
					</g>
					<g>
						<g>
							<g>
								<rect x="453.227" y="281.637" style="fill:#FFFFFF;" width="21.304" height="111.566"/>
							</g>
						</g>
						<g>
							<g>
								<rect x="429.661" y="281.637" style="fill:#FFFFFF;" width="20.721" height="111.566"/>
							</g>
						</g>
						<g>
							<g>
								<rect x="406.096" y="281.637" style="fill:#FFFFFF;" width="20.721" height="111.566"/>
							</g>
						</g>
						<g>
							<g>
								<rect x="382.531" y="281.637" style="fill:#FFFFFF;" width="20.721" height="111.566"/>
							</g>
						</g>
						<g>
							<g>
								<rect x="358.966" y="281.637" style="fill:#FFFFFF;" width="20.721" height="111.566"/>
							</g>
						</g>
						<g>
							<g>
								<rect x="335.4" y="281.637" style="fill:#FFFFFF;" width="20.721" height="111.566"/>
							</g>
						</g>
						<g>
							<g>
								<rect x="311.835" y="281.637" style="fill:#FFFFFF;" width="20.721" height="111.566"/>
							</g>
						</g>
						<g>
							<g>
								<rect x="288.27" y="281.637" style="fill:#FFFFFF;" width="20.721" height="111.566"/>
							</g>
						</g>
						<g>
							<g>
								<rect x="264.704" y="281.637" style="fill:#FFFFFF;" width="20.721" height="111.566"/>
							</g>
						</g>
						<g>
							<g>
								<rect x="241.139" y="281.637" style="fill:#FFFFFF;" width="20.721" height="111.566"/>
							</g>
						</g>
						<g>
							<g>
								<rect x="217.574" y="281.637" style="fill:#FFFFFF;" width="20.721" height="111.566"/>
							</g>
						</g>
						<g>
							<g>
								<rect x="194.009" y="281.637" style="fill:#FFFFFF;" width="20.721" height="111.566"/>
							</g>
						</g>
						<g>
							<g>
								<rect x="170.443" y="281.637" style="fill:#FFFFFF;" width="20.721" height="111.566"/>
							</g>
						</g>
						<g>
							<g>
								<rect x="146.878" y="281.637" style="fill:#FFFFFF;" width="20.721" height="111.566"/>
							</g>
						</g>
						<g>
							<g>
								<rect x="125.378" y="281.637" style="fill:#FFFFFF;" width="18.656" height="111.566"/>
							</g>
						</g>
					</g>
					<g>
						<g>
							<g>
								<rect x="453.227" y="284.843" style="fill:#F9E5CF;" width="21.304" height="108.36"/>
							</g>
						</g>
						<g>
							<g>
								<rect x="429.661" y="284.843" style="fill:#F9E5CF;" width="20.721" height="108.36"/>
							</g>
						</g>
						<g>
							<g>
								<rect x="406.096" y="284.843" style="fill:#F9E5CF;" width="20.721" height="108.36"/>
							</g>
						</g>
						<g>
							<g>
								<rect x="382.531" y="284.843" style="fill:#F9E5CF;" width="20.721" height="108.36"/>
							</g>
						</g>
						<g>
							<g>
								<rect x="358.966" y="284.843" style="fill:#F9E5CF;" width="20.721" height="108.36"/>
							</g>
						</g>
						<g>
							<g>
								<rect x="335.4" y="284.843" style="fill:#F9E5CF;" width="20.721" height="108.36"/>
							</g>
						</g>
						<g>
							<g>
								<rect x="311.835" y="284.843" style="fill:#F9E5CF;" width="20.721" height="108.36"/>
							</g>
						</g>
						<g>
							<g>
								<rect x="288.27" y="284.843" style="fill:#F9E5CF;" width="20.721" height="108.36"/>
							</g>
						</g>
						<g>
							<g>
								<rect x="264.704" y="284.843" style="fill:#F9E5CF;" width="20.721" height="108.36"/>
							</g>
						</g>
						<g>
							<g>
								<rect x="241.139" y="284.843" style="fill:#F9E5CF;" width="20.721" height="108.36"/>
							</g>
						</g>
						<g>
							<g>
								<rect x="217.574" y="284.843" style="fill:#F9E5CF;" width="20.721" height="108.36"/>
							</g>
						</g>
						<g>
							<g>
								<rect x="194.009" y="284.843" style="fill:#F9E5CF;" width="20.721" height="108.36"/>
							</g>
						</g>
						<g>
							<g>
								<rect x="170.443" y="284.843" style="fill:#F9E5CF;" width="20.721" height="108.36"/>
							</g>
						</g>
						<g>
							<g>
								<rect x="146.878" y="284.843" style="fill:#F9E5CF;" width="20.721" height="108.36"/>
							</g>
						</g>
						<g>
							<g>
								<rect x="125.378" y="284.843" style="fill:#F9E5CF;" width="18.656" height="108.36"/>
							</g>
						</g>
					</g>
					<g>
						<g>
							<g>
								<rect x="453.227" y="378.843" style="fill:#D3A479;" width="21.304" height="14.36"/>
							</g>
						</g>
						<g>
							<g>
								<rect x="429.661" y="378.843" style="fill:#D3A479;" width="20.721" height="14.36"/>
							</g>
						</g>
						<g>
							<g>
								<rect x="406.096" y="378.843" style="fill:#D3A479;" width="20.721" height="14.36"/>
							</g>
						</g>
						<g>
							<g>
								<rect x="382.531" y="378.843" style="fill:#D3A479;" width="20.721" height="14.36"/>
							</g>
						</g>
						<g>
							<g>
								<rect x="358.966" y="378.843" style="fill:#D3A479;" width="20.721" height="14.36"/>
							</g>
						</g>
						<g>
							<g>
								<rect x="335.4" y="378.843" style="fill:#D3A479;" width="20.721" height="14.36"/>
							</g>
						</g>
						<g>
							<g>
								<rect x="311.835" y="378.843" style="fill:#D3A479;" width="20.721" height="14.36"/>
							</g>
						</g>
						<g>
							<g>
								<rect x="288.27" y="378.843" style="fill:#D3A479;" width="20.721" height="14.36"/>
							</g>
						</g>
						<g>
							<g>
								<rect x="264.704" y="378.843" style="fill:#D3A479;" width="20.721" height="14.36"/>
							</g>
						</g>
						<g>
							<g>
								<rect x="241.139" y="378.843" style="fill:#D3A479;" width="20.721" height="14.36"/>
							</g>
						</g>
						<g>
							<g>
								<rect x="217.574" y="378.843" style="fill:#D3A479;" width="20.721" height="14.36"/>
							</g>
						</g>
						<g>
							<g>
								<rect x="194.009" y="378.843" style="fill:#D3A479;" width="20.721" height="14.36"/>
							</g>
						</g>
						<g>
							<g>
								<rect x="170.443" y="378.843" style="fill:#D3A479;" width="20.721" height="14.36"/>
							</g>
						</g>
						<g>
							<g>
								<rect x="146.878" y="378.843" style="fill:#D3A479;" width="20.721" height="14.36"/>
							</g>
						</g>
						<g>
							<g>
								<rect x="125.378" y="378.843" style="fill:#D3A479;" width="18.656" height="14.36"/>
							</g>
						</g>
					</g>
				</g>
			</g>
			<g>
				<g>
					<g>
						<polygon style="fill:#F0CD95;" points="652.626,200.374 693.219,248.264 693.219,231.663 710.977,231.663 710.977,269.216 
							732.639,294.772 716.897,294.772 716.897,375.428 588.355,375.428 588.355,294.772 572.613,294.772 						"/>
					</g>
					<g>
						<g>
							<g>
								<rect x="692.819" y="295.398" style="fill:#FFFFFF;" width="14.434" height="14.434"/>
							</g>
							<g>
								<rect x="675.609" y="295.398" style="fill:#FFFFFF;" width="14.434" height="14.434"/>
							</g>
						</g>
						<g>
							<g>
								<rect x="692.819" y="312.469" style="fill:#FFFFFF;" width="14.434" height="14.434"/>
							</g>
							<g>
								<rect x="675.609" y="312.469" style="fill:#FFFFFF;" width="14.434" height="14.434"/>
							</g>
						</g>
					</g>
				</g>
				<g>
					<g>
						<g>
							<rect x="659.776" y="337.148" style="fill:#E0CACA;" width="76.67" height="52.336"/>
						</g>
					</g>
					<g>
						<g>
							<rect x="732.805" y="334.412" style="fill:#FFFFFF;" width="5.325" height="55.607"/>
						</g>
					</g>
					<g>
						<g>
							<rect x="722.392" y="334.412" style="fill:#FFFFFF;" width="5.325" height="55.607"/>
						</g>
					</g>
					<g>
						<g>
							<rect x="711.979" y="334.412" style="fill:#FFFFFF;" width="5.325" height="55.607"/>
						</g>
					</g>
					<g>
						<g>
							<rect x="701.566" y="334.412" style="fill:#FFFFFF;" width="5.325" height="55.607"/>
						</g>
					</g>
					<g>
						<g>
							<rect x="691.153" y="334.412" style="fill:#FFFFFF;" width="5.325" height="55.607"/>
						</g>
					</g>
					<g>
						<g>
							<rect x="680.74" y="334.412" style="fill:#FFFFFF;" width="5.325" height="55.607"/>
						</g>
					</g>
					<g>
						<g>
							<rect x="670.327" y="334.412" style="fill:#FFFFFF;" width="5.325" height="55.607"/>
						</g>
					</g>
					<g>
						<g>
							<rect x="660.179" y="334.412" style="fill:#FFFFFF;" width="4.794" height="55.607"/>
						</g>
					</g>
				</g>
			</g>
			<g>
				<path style="fill:#14345A;" d="M438.444,361.414c-1.111-1.089-0.45-3.101,0.809-4.014c1.259-0.913,1.196-0.676,4.357-1.595
					c1.827-0.531,3.384-1.586,6.303-4.834c3.041,0.429,6.139,0.451,9.186,0.065c0.745,3.173,1.022,6.456,0.818,9.708
					C452.774,361.292,445.607,361.515,438.444,361.414z"/>
			</g>
			<g>
				<g>
					<g>
						<g>
							<g>
								<g>
									<g>
										<g>
											<path style="fill:#189FB1;" d="M330.917,315.379c-0.327,2.009-0.172,8.941-0.494,10.865l32.473-0.082
												c-0.132-0.727-1.399-9.196-1.605-9.878c-1.809-5.978-1.352-8.155-1.573-14.399c-0.246-6.948,1.211-9.786,2.808-16.551
												c0.782-3.312,0.906-6.667-2.634-11.03c-2.498-3.079-3.292-4.527-6.384-10.032c-1.671-2.977-5.059-1.469-8.433-1.985
												c-1.44-0.22-3.83,1.954-5.021,2.799c-0.889,0.631-2.414,3.092-2.799,4.116c-1.001,2.666-1.428,5.892-1.729,8.725
												c-0.825,7.773,1.143,11.112,0.528,18.905C335.538,303.368,332.069,308.3,330.917,315.379z"/>
										</g>
									</g>
								</g>
							</g>
						</g>
					</g>
				</g>
			</g>
			<g>
				<rect x="366.841" y="260.77" style="fill:#D3A479;" width="45.364" height="47.977"/>
			</g>
			<g>
				<path style="fill:#F0CD95;" d="M356.969,281.466c-1.131-2.887-1.975-4.568-2.963-8.766c-0.706-3.001-2.065-8.015-4.899-8.939
					c-2.834-0.924-6.322-0.01-7.873,2.651c-1.302,2.234-1.03,5.081-0.539,7.65c0.954,4.999,2.569,9.857,4.784,14.391
					c3.803,7.786,8.906,12.457,15.813,17.336c6.907,4.879,13.233,7.735,23.83,10.618c0.879-1.71,1.86-3.87,2.739-5.58
					C375.064,304.036,362.43,295.41,356.969,281.466z"/>
			</g>
			<g>
				<path style="fill:#14345A;" d="M489.35,254.455c-3.858,2.017-8.184,3.015-12.519,3.418c-1.29,0.12-2.662,0.173-3.806-0.437
					c-1.143-0.611-1.903-2.119-1.269-3.249c10.671-1.512,20.8-6.62,28.36-14.302c0.933,1.642,0.127,3.712-0.861,5.322
					C496.865,249.104,493.402,252.337,489.35,254.455z"/>
			</g>
			<g>
				<path style="fill:#54CED1;" d="M489.437,255.035c-0.626-1.165-1.12-2.404-1.47-3.684l0.965-0.264
					c0.329,1.207,0.796,2.376,1.386,3.474L489.437,255.035z"/>
			</g>
			<g>
				<path style="fill:#54CED1;" d="M477.108,260.749c-0.922-2.011-1.396-4.243-1.369-6.453l1,0.012
					c-0.024,2.063,0.417,4.147,1.277,6.025L477.108,260.749z"/>
			</g>
			<g>
				<path style="fill:#14345A;" d="M346.819,300.017c2.017,2.621,4.273,5.109,7.029,6.938c0.856,0.568,1.782,1.078,2.798,1.228
					c1.016,0.15,2.142-0.117,2.813-0.894c0.859-0.995,0.76-2.48,0.503-3.768c-2.716-13.606-16.882-22.646-19.762-36.218
					c-2.493,5.299-2.715,11.494-1.308,17.178S343.247,295.377,346.819,300.017z"/>
			</g>
		</g>
		<g>
			<g>
				<path style="fill:#FFFFFF;" d="M669.911,117.343c-0.058-2.714-1.826-4.985-4.269-5.825c-0.615-7.002-6.486-12.496-13.648-12.496
					c-2.228,0-4.325,0.543-6.185,1.486c-4.236-7.342-12.148-12.295-21.234-12.295c-8.952,0-16.76,4.813-21.04,11.977
					c-1.801-0.908-3.828-1.432-5.983-1.432c-6.753,0-12.318,5.032-13.183,11.549c-3.283,1.531-5.812,4.358-7.001,7.813
					c-4.451,0.253-6.971,0.538-6.971,0.84c0,1.037,29.524,1.878,65.943,1.878s65.943-0.841,65.943-1.878
					C702.284,118.272,689.287,117.67,669.911,117.343z"/>
			</g>
			<g>
				<path style="fill:#FFFFFF;" d="M313.749,76.227c-0.051-2.386-1.606-4.383-3.753-5.122c-0.541-6.156-5.703-10.987-12-10.987
					c-1.959,0-3.803,0.477-5.438,1.307c-3.724-6.455-10.681-10.81-18.669-10.81c-7.871,0-14.736,4.232-18.499,10.531
					c-1.583-0.799-3.366-1.259-5.26-1.259c-5.938,0-10.83,4.424-11.591,10.154c-2.887,1.346-5.11,3.832-6.155,6.869
					c-3.914,0.222-6.129,0.473-6.129,0.739c0,0.912,25.958,1.652,57.979,1.652s57.979-0.739,57.979-1.652
					C342.212,77.043,330.785,76.514,313.749,76.227z"/>
			</g>
		</g>
		<g>
			<g>
				<g>
					<g>
						<rect x="538.994" y="324.485" style="fill:#14345A;" width="158.951" height="67.991"/>
					</g>
					<g>
						<g>
							<path style="fill:#14345A;" d="M684.036,364.912c-3.262,0-11.99,0-15.251,0c-4.858,0-8.796,12.958-8.796,28.942
								c0,15.984,3.938,28.942,8.796,28.942c3.262,0,11.99,0,15.251,0c4.858,0,8.796-12.958,8.796-28.942
								C692.832,377.87,688.894,364.912,684.036,364.912z"/>
						</g>
						<g>
							<path style="fill:#FEECCB;" d="M690.441,395.538c0,11.671-2.742,21.132-6.125,21.132c-3.383,0-6.125-9.461-6.125-21.132
								s2.742-21.132,6.125-21.132C687.699,374.406,690.441,383.867,690.441,395.538z"/>
						</g>
					</g>
					<g>
						<path style="fill:#F47362;" d="M687.361,235.303l-71.776-52.44v209.449h54.949v-20.641c0-7.051,6.355-12.401,13.303-11.198
							l0.249,0.043c6.505,1.126,11.256,6.77,11.256,13.372v18.423h8.212v-88.165c0-0.732-0.061-1.463-0.182-2.185l-9.35-55.862
							C693.297,241.768,690.906,237.893,687.361,235.303z"/>
					</g>
					<g>
						<g>
							<path style="fill:#5F45AA;" d="M709.219,303.047h-1.531c-2.706,0-4.9-2.194-4.9-4.9v-14.088c0-2.706,2.194-4.9,4.9-4.9h1.531
								c2.706,0,4.9,2.194,4.9,4.9v14.088C714.119,300.853,711.925,303.047,709.219,303.047z"/>
						</g>
						<g>
							<path style="fill:#FFFFFF;" d="M707.898,303.047h-1.531c-2.706,0-4.9-2.194-4.9-4.9v-14.088c0-2.706,2.194-4.9,4.9-4.9h1.531
								c2.706,0,4.9,2.194,4.9,4.9v14.088C712.798,300.853,710.605,303.047,707.898,303.047z"/>
						</g>
					</g>
					<g>
						<path style="fill:#14345A;" d="M671.488,237.827l-0.627,54.131c-0.012,1.005,0.711,1.869,1.703,2.034l23.029,3.838
							c1.379,0.23,2.574-0.964,2.347-2.343l-8.113-49.106c-0.096-0.58-0.437-1.09-0.937-1.4l-14.289-8.863
							C673.251,235.282,671.506,236.24,671.488,237.827z"/>
					</g>
					<g>
						<path style="fill:#E3E6F4;" d="M680.983,305.048l-6.115-0.766c-0.921-0.115-1.611-0.9-1.609-1.828l0.004-1.401l8.947,1.12
							l-0.005,1.799C682.203,304.625,681.63,305.129,680.983,305.048z"/>
					</g>
					<g>
						<g>
							<path style="fill:#14345A;" d="M698.369,379.409l-1.308-0.051c0.661-17.408-7.453-19.532-7.535-19.551l-20.948-2.753V227.553
								h1.308v128.353l19.875,2.615C690.204,358.623,699.069,360.937,698.369,379.409z"/>
						</g>
					</g>
				</g>
				<g>
					<g>
						<path style="fill:#14345A;" d="M380.042,341.023c-5.281,0-19.411,0-24.692,0c-7.865,0-14.241,20.979-14.241,46.859
							c0,25.879,6.376,46.858,14.241,46.858c5.281,0,19.411,0,24.692,0c7.865,0,14.241-20.979,14.241-46.858
							C394.284,362.003,387.908,341.023,380.042,341.023z"/>
					</g>
					<g>
						<path style="fill:#FEECCB;" d="M386.933,390.944c0,17.253-2.742,31.239-6.125,31.239c-3.383,0-6.125-13.986-6.125-31.239
							c0-17.253,2.742-31.239,6.125-31.239C384.191,359.706,386.933,373.692,386.933,390.944z"/>
					</g>
				</g>
				<g>
					<g>
						<path style="fill:#14345A;" d="M538.075,341.023c-5.281,0-19.411,0-24.692,0c-7.865,0-14.241,20.979-14.241,46.859
							c0,25.879,6.376,46.858,14.241,46.858c5.281,0,19.411,0,24.692,0c7.865,0,14.241-20.979,14.241-46.858
							C552.316,362.003,545.94,341.023,538.075,341.023z"/>
					</g>
					<g>
						<ellipse style="fill:#FEECCB;" cx="538.84" cy="390.944" rx="6.125" ry="31.239"/>
					</g>
				</g>
				<g>
					<g>
						<path style="fill:#14345A;" d="M418.632,341.023c-5.281,0-19.412,0-24.693,0c-7.865,0-14.241,20.979-14.241,46.859
							c0,25.879,6.376,46.858,14.241,46.858c5.281,0,19.412,0,24.693,0c7.865,0,14.241-20.979,14.241-46.858
							C432.873,362.003,426.497,341.023,418.632,341.023z"/>
					</g>
					<g>
						<ellipse style="fill:#FEECCB;" cx="419.397" cy="390.944" rx="6.125" ry="31.239"/>
					</g>
				</g>
				<g>
					<g>
						<path style="fill:#14345A;" d="M578.502,341.023c-5.281,0-19.412,0-24.693,0c-7.865,0-14.241,20.979-14.241,46.859
							c0,25.879,6.376,46.858,14.241,46.858c5.281,0,19.412,0,24.693,0c7.865,0,14.241-20.979,14.241-46.858
							C592.743,362.003,586.367,341.023,578.502,341.023z"/>
					</g>
					<g>
						<path style="fill:#FEECCB;" d="M587.23,390.944c0,17.253-2.742,31.239-6.125,31.239c-3.383,0-6.125-13.986-6.125-31.239
							c0-17.253,2.742-31.239,6.125-31.239C584.488,359.706,587.23,373.692,587.23,390.944z"/>
					</g>
				</g>
				<g>
					<g>
						<g>
							<polygon style="fill:#14345A;" points="667.165,220.548 615.585,182.863 615.585,392.312 667.165,392.312 							"/>
						</g>
						<g>
							<polygon style="fill:#FDB2B0;" points="313.174,123.373 313.174,392.312 529.067,392.312 529.067,70.084 							"/>
						</g>
						<g>
							<polygon style="fill:#14345A;" points="521.208,82.216 320.21,131.83 320.21,392.562 521.208,392.562 							"/>
						</g>
					</g>
					<g>
						<path style="fill:#F47362;" d="M529.067,70.083v322.228H559v-41.561c0-9.358,8.429-16.46,17.651-14.872l8.604,1.481
							c8.251,1.42,14.281,8.576,14.281,16.949v38.004h64.868V168.363L529.067,70.083z"/>
					</g>
					<g>
						<polygon style="fill:#F0CD95;" points="664.403,198.103 529.067,114.13 529.067,206.838 664.403,256.397 						"/>
					</g>
					<g>
						<g>
							
								<rect x="599.189" y="56.992" transform="matrix(0.5533 -0.833 0.833 0.5533 157.0576 559.63)" style="fill:#14345A;" width="2.268" height="152.769"/>
						</g>
					</g>
					<g>
						<g>
							
								<rect x="600.873" y="257.917" transform="matrix(0.1419 -0.9899 0.9899 0.1419 198.2503 871.8521)" style="fill:#14345A;" width="2.268" height="127.318"/>
						</g>
					</g>
					<g>
						<g>
							
								<rect x="597.58" y="168.724" transform="matrix(0.3201 -0.9474 0.9474 0.3201 180.5805 729.7122)" style="fill:#14345A;" width="2.268" height="140.626"/>
						</g>
					</g>
				</g>
				<g>
					<polygon style="fill:#14345A;" points="668.084,376.703 597.107,370.942 597.107,394.313 668.084,394.313 					"/>
				</g>
				<g>
					<polygon style="fill:#14345A;" points="693.81,378.792 693.81,394.313 703.917,394.313 703.917,379.613 					"/>
				</g>
				<g>
					<polygon style="fill:#14345A;" points="562.193,368.107 537.922,366.137 537.922,394.313 562.193,394.313 					"/>
				</g>
				<g>
					<g>
						<path style="fill:#14345A;" d="M537.922,394.313H311.439c-3.468,0-6.278-2.811-6.278-6.278v-15.62
							c0-3.467,2.811-6.278,6.278-6.278h226.482V394.313z"/>
					</g>
					<g>
						<path style="fill:#FFFFFF;" d="M537.922,369.871v-3.734H311.439c-2.561,0-4.759,1.535-5.736,3.734H537.922z"/>
					</g>
					<g>
						<path style="fill:#F47362;" d="M334.149,381.91h-13.874c-2.512,0-4.548-2.036-4.548-4.548v-0.092
							c0-2.512,2.036-4.548,4.548-4.548h13.874c2.512,0,4.548,2.036,4.548,4.548v0.092
							C338.697,379.873,336.66,381.91,334.149,381.91z"/>
					</g>
					<g>
						<path style="fill:#F47362;" d="M514.232,381.91h-13.874c-2.512,0-4.548-2.036-4.548-4.548v-0.092
							c0-2.512,2.036-4.548,4.548-4.548h13.874c2.512,0,4.548,2.036,4.548,4.548v0.092
							C518.78,379.873,516.744,381.91,514.232,381.91z"/>
					</g>
				</g>
			</g>
			<g>
				<g>
					<g>
						<rect x="323.85" y="259.23" style="fill:#F0CD95;" width="98.903" height="102.601"/>
					</g>
					<g>
						<polygon style="fill:#5F45AA;" points="412.952,351.75 409.376,347.549 405.8,351.75 407.65,351.75 407.65,359.182 
							411.102,359.182 411.102,351.75 						"/>
					</g>
				</g>
				<g>
					<path style="fill:#604B9F;" d="M403.329,359.082h-11.248v-11.248h11.248V359.082z M393.081,358.082h9.248v-9.248h-9.248
						V358.082z"/>
				</g>
				<g>
					<path style="fill:#604B9F;" d="M390.612,359.082h-11.248v-11.248h11.248V359.082z M380.364,358.082h9.248v-9.248h-9.248
						V358.082z"/>
				</g>
			</g>
			<g>
				<g>
					<rect x="348.558" y="177.422" style="fill:#F0CD95;" width="72.243" height="74.943"/>
				</g>
				<g>
					<polygon style="fill:#5F45AA;" points="414.83,225.98 407.277,217.107 399.724,225.98 403.632,225.98 403.632,228.692 
						410.922,228.692 410.922,225.98 					"/>
				</g>
			</g>
			<g>
				<rect x="424.945" y="207.713" style="fill:#D3A479;" width="72.243" height="153.432"/>
				<g>
					<rect x="424.945" y="207.713" style="fill:#B27C4F;" width="14.909" height="153.432"/>
				</g>
				<g>
					<polygon style="fill:#5F45AA;" points="491.217,352.093 483.664,343.22 476.111,352.093 480.019,352.093 480.019,354.805 
						487.309,354.805 487.309,352.093 					"/>
				</g>
			</g>
		</g>
		<g>
			<g>
				<g>
					<g>
						<path style="fill:#F0CD95;" d="M199.208,278.145c-3.895-3.779-7.202-8.122-9.811-12.837
							c-3.899,1.192-7.614,3.053-11.159,5.256c3.69,6.578,8.544,13.6,15.082,17.539c7.249,4.367,14.875,7.85,28.733,9.94
							c0.663-1.95,1.325-3.9,1.988-5.849C214.681,289.665,206.049,284.781,199.208,278.145z"/>
					</g>
					<g>
						<path style="fill:#D3584F;" d="M184.949,253.841c-0.686-2.284-1.325-4.845-3.376-6.137c-2.152-1.355-5.258-0.706-7.101,1.084
							c-1.844,1.791-2.549,4.456-2.403,6.958c0.146,2.502,1.049,4.887,2.032,7.19c1.196,2.801,2.542,5.552,4.039,8.22
							c3.72-2.312,7.617-4.264,11.708-5.515C191.355,269.314,186.273,258.246,184.949,253.841z"/>
					</g>
				</g>
				<g>
					<g>
						<g>
							<g>
								<path style="fill:#14345A;" d="M193.652,423.265c1.946,0.653,4.04,0.677,6.093,0.655c5.139-0.054,10.274-0.355,15.384-0.901
									c0.003-0.652,0.006-1.303,0.009-1.955c-7.194,0.371-14.397,0.556-21.6,0.557
									C193.575,422.169,193.613,422.717,193.652,423.265z"/>
							</g>
							<g>
								<path style="fill:#189FB1;" d="M215.048,421.862c1.052-1.145,0.288-3.12-1.017-3.966c-1.305-0.846-1.229-0.612-4.434-1.365
									c-1.852-0.435-3.462-1.408-6.546-4.499c-3.015,0.587-6.108,0.77-9.17,0.543c-0.579,3.208-0.684,6.5-0.311,9.738
									C200.731,422.486,207.9,422.336,215.048,421.862z"/>
							</g>
						</g>
						<g>
							<g>
								<path style="fill:#14345A;" d="M193.385,303.168l-26.537,6.883c1.872,10,3.876,14.387,6.825,21.437
									c11.283,26.975,17.006,53.973,18.585,83.863c4.349-0.376,8.699-0.753,13.049-1.129c-0.575-24.335-1.799-48.66-3.966-72.901
									C200.177,328.306,198.608,315.036,193.385,303.168z"/>
							</g>
							<g>
								<path style="fill:#5F45AA;" d="M196.128,414.593c-2.168-34.152-5.264-68.707-9.203-102.704l0.993-0.115
									c3.941,34.015,7.039,68.587,9.208,102.757L196.128,414.593z"/>
							</g>
						</g>
					</g>
					<g>
						<g>
							<g>
								<path style="fill:#5F45AA;" d="M160.47,413.9c0.571-2.004,1.267-3.972,2.082-5.89c-3.185-0.302-6.37-0.603-9.555-0.905
									c-0.594,2.228-1.01,4.502-1.243,6.796C154.655,413.696,157.57,413.695,160.47,413.9z"/>
							</g>
							<g>
								<path style="fill:#14345A;" d="M151.485,422.202c1.946,0.653,4.04,0.677,6.093,0.655c5.138-0.054,10.274-0.355,15.384-0.901
									c0.003-0.652,0.006-1.303,0.009-1.955c-7.194,0.371-14.397,0.556-21.6,0.557
									C151.409,421.107,151.447,421.654,151.485,422.202z"/>
							</g>
							<g>
								<path style="fill:#189FB1;" d="M172.739,420.823c1.052-0.872,0.288-3.354-1.017-3.998c-1.305-0.645-1.229-0.466-4.434-1.04
									c-1.852-0.331-3.462-1.072-6.546-3.427c-3.015,0.447-6.107,0.587-9.17,0.414c-0.579,2.443-0.449,6.085-0.076,8.552
									C158.657,421.456,165.591,421.184,172.739,420.823z"/>
							</g>
						</g>
						<g>
							<path style="fill:#14345A;" d="M166.35,310.724c-2.721,16.753,6.267,34.181,1.901,50.562
								c-1.085,4.071-2.957,7.866-4.672,11.702c-5.132,11.48-8.942,23.583-11.326,35.974c3.585,1.27,9.934,2.405,13.492,3.048
								c8.414-16.803,16.668-30.43,21.708-50.292c4.962-19.557,3.846-39.45,2.729-57.72
								C190.183,303.999,166.381,310.534,166.35,310.724z"/>
						</g>
						<g>
							<path style="fill:#5F45AA;" d="M158.005,409.537l-0.962-0.275c5.783-20.233,9.416-27.933,12.335-34.119
								c2.146-4.548,3.842-8.141,5.749-15.231c4.446-16.534,6.427-33.021,6.231-51.886l1-0.01
								c0.196,18.958-1.795,35.53-6.266,52.155c-1.93,7.177-3.728,10.987-5.81,15.398
								C167.379,381.723,163.765,389.382,158.005,409.537z"/>
						</g>
					</g>
					<g>
						<path style="fill:#189FB1;" d="M173.029,310.079c-1.848,0.267-3.706,0.458-5.572,0.523c0.055,0.783,0.11,1.566,0.164,2.349
							c1.923-0.042,3.843-0.206,5.747-0.477C173.109,311.705,172.994,310.891,173.029,310.079z"/>
						<path style="fill:#189FB1;" d="M173.786,309.978c-0.055,0.809,0.064,1.623,0.34,2.382c3.252-0.515,6.453-1.353,9.534-2.516
							c0.231-0.087,0.462-0.185,0.693-0.278c-0.285-0.68-0.536-1.374-0.74-2.083l0.721-0.207c0.197,0.685,0.439,1.354,0.715,2.01
							c3.174-1.358,6.196-3.282,7.798-6.294C187.031,306.536,180.511,308.907,173.786,309.978z"/>
					</g>
					<g>
						<g>
							<path style="fill:#F47362;" d="M188.287,270.671c-0.447-5.217-0.855-10.491-2.433-15.483
								c-1.578-4.992-4.465-9.757-8.888-12.559c-4.423-2.802-10.531-3.255-14.809-0.236c-4.555,3.215-6.018,9.279-6.413,14.84
								c-0.474,6.674,0.093,13.375,0.718,20.036c1.169,12.455,1.568,21.751,6.127,33.4c10.819,0.957,21.906-1.35,31.444-6.545
								c0.534-0.291,1.105-0.639,1.297-1.216c0.215-0.645-0.12-1.331-0.432-1.935C189.581,290.701,189.275,282.197,188.287,270.671z
								"/>
						</g>
						<g>
							<path style="fill:#D3584F;" d="M174.46,251.511c3.277,3.321,4.905,7.956,5.624,12.565s0.625,9.303,0.987,13.954
								c0.588,7.56,2.392,15.024,5.322,22.017c0.491,1.171,1.024,2.429,0.755,3.67c-0.464,2.136-2.945,3.06-5.073,3.561
								c-3.233,0.76-6.5,1.379-9.787,1.853c-0.857,0.124-1.778,0.228-2.551-0.164c-0.842-0.427-1.304-1.338-1.699-2.195
								c-4.794-10.408-7.768-21.65-8.748-33.067c-0.405-4.714-0.447-9.603,1.282-14.008c1.729-4.404,5.582-8.245,10.288-8.732
								L174.46,251.511z"/>
						</g>
					</g>
					<g>
						<g>
							<g>
								<path style="fill:#F0CD95;" d="M179.103,232.591c-5.204-0.532-6.531-1.58-10.638-4.82l-4.956,13.185
									c5.262-0.953,10.227,0.415,14.841,2.958C177.464,239.883,177.521,235.711,179.103,232.591z"/>
							</g>
							<g>
								<path style="fill:#14345A;" d="M177.874,240.677c-0.249-2.946,0.07-5.8,1.229-8.086c-4.669-0.477-6.222-1.375-9.456-3.893
									C169.778,234.5,173.198,238.429,177.874,240.677z"/>
							</g>
							<g>
								<path style="fill:#FFFFFF;" d="M163.443,240.162c0.086-0.333,0.188-0.69,0.458-0.903c0.222-0.175,0.516-0.219,0.797-0.252
									c5.782-0.697,11.761,0.329,16.981,2.913c-0.205,2.373-0.125,4.771,0.239,7.125c-2.945-1.764-5.936-3.497-9.168-4.655
									c-3.232-1.158-8.423-1.563-11.796-0.92C161.225,242.419,163.172,241.212,163.443,240.162z"/>
							</g>
						</g>
						<g>
							<path style="fill:#F0CD95;" d="M186.289,231.45c-0.214-1.457-1.171-2.755-1.313-4.203c0.204-0.468,0.735-1.012,0.769-1.441
								c0.187-2.307,0.13-3.687,0.17-6.001c0.016-0.949,0.018-1.916-0.267-2.821c-0.568-1.805-2.228-3.109-4.028-3.691
								c-1.801-0.582-3.74-0.542-5.626-0.39c-2.435,0.196-5.064,0.674-6.705,2.484c-1.079,1.19-1.574,2.805-1.774,4.399
								c-0.575,4.57,1.112,9.322,4.266,12.678c3.155,3.356,6.929,5.827,11.381,5.642c0.552-1.978,1.111-3.503,1.55-5.249
								c0.221-0.037,0.442-0.073,0.663-0.11c0.235-0.039,0.484-0.084,0.664-0.24C186.326,232.26,186.344,231.824,186.289,231.45z"/>
							<g>
								<g>
									<path style="fill:#14345A;" d="M182.182,233.616c0.06,0.104,0.174,0.162,0.285,0.207c0.499,0.202,1.061,0.246,1.586,0.124
										c0.036-0.17,0.072-0.341,0.107-0.511c-0.332,0.019-0.666,0.038-0.996-0.005c-0.33-0.043-0.658-0.152-0.915-0.364
										C182.168,233.24,182.087,233.449,182.182,233.616z"/>
								</g>
								<g>
									<g>
										<path style="fill:#14345A;" d="M183.827,226.284c0.009-0.17-0.041-0.374-0.202-0.428c-0.152-0.051-0.31,0.063-0.412,0.187
											c-0.214,0.259-0.335,0.594-0.336,0.93c0,0.111,0.019,0.236,0.109,0.302c0.132,0.098,0.321,0.006,0.439-0.108
											C183.663,226.938,183.811,226.615,183.827,226.284z"/>
									</g>
									<g>
										<path style="fill:#14345A;" d="M182.367,224.792c0.679-0.117,1.372-0.158,2.06-0.12c-0.006-0.189-0.012-0.378-0.019-0.567
											c-0.688-0.113-1.406-0.038-2.057,0.214C182.398,224.472,182.403,224.637,182.367,224.792z"/>
									</g>
								</g>
							</g>
							<g>
								<path style="fill:#14345A;" d="M167.524,217.136c0.919-2.667,3.548-4.489,6.31-5.062c2.762-0.573,5.64-0.071,8.343,0.738
									c0.996,0.298,2.033,0.673,2.698,1.473c0.497,0.597,0.729,1.366,0.92,2.119c0.147,0.579,0.279,1.173,0.234,1.768
									c-0.109,1.468-1.3,2.688-2.67,3.227c-1.37,0.54-2.893,0.517-4.36,0.39c-3.443-0.297-6.816-1.121-10.173-1.942
									c-0.35-0.085-0.712-0.177-0.991-0.406C167.195,218.918,167.255,217.918,167.524,217.136z"/>
							</g>
							<g>
								<path style="fill:#14345A;" d="M175.788,225.115c0.078-0.705,0.648-1.41,1.357-1.373c0.705,0.037,1.361,0.678,1.462,1.376
									c0.141,0.971,0.202,1.645,0.575,2.018c0.423-2.001,1.095-3.949,2.019-5.774c-3.989-0.877-7.978-1.754-11.967-2.631
									c-0.306-0.067-0.625-0.135-0.93-0.061c-0.267,0.065-0.497,0.234-0.695,0.425c-0.905,0.876-1.201,2.228-1.124,3.486
									c0.077,1.258,0.476,2.469,0.767,3.695c0.291,1.226,0.473,2.526,0.118,3.735c2.165-0.285,4.251-1.157,5.975-2.498
									c0.724-0.563,1.53-1.239,2.418-1.154C175.734,225.916,175.748,225.468,175.788,225.115z"/>
							</g>
						</g>
						<g>
							<g>
								<path style="fill:#5F45AA;" d="M177.254,211.542c2.214,0.25,4.405,0.701,6.538,1.343c0.791,0.238,1.631,0.545,2.091,1.231
									c0.379,0.566,0.426,1.285,0.443,1.966c0.053,2.113-0.062,4.23-0.342,6.325c-5.325,1.041-10.897,0.79-16.107-0.724
									c-1.242-0.361-2.644-0.982-2.93-2.244c-0.139-0.612,0.027-1.248,0.192-1.854c0.351-1.286,0.719-2.609,1.529-3.667
									c0.946-1.234,2.42-1.987,3.941-2.308C174.132,211.292,175.709,211.368,177.254,211.542z"/>
							</g>
							<g>
								<path style="fill:#F47362;" d="M185.93,217.785c0.043-1.008,0.072-2.074-0.419-2.955c-0.497-0.89-1.455-1.437-2.436-1.718
									c-0.98-0.28-2.009-0.337-3.015-0.499c0.582,0.496,0.928,1.226,1.082,1.974c0.154,0.749,0.13,1.522,0.075,2.284
									c-0.151,2.096-0.536,4.174-1.144,6.185c0.86-0.001,1.728-0.003,2.569-0.186c0.841-0.183,1.663-0.563,2.229-1.211
									C185.77,220.632,185.872,219.15,185.93,217.785z"/>
							</g>
							<g>
								<path style="fill:#5F45AA;" d="M185.945,220.903c1.152-0.216,1.41,0.517,5.653,0.967c-1.882,1.844-3.78,2.855-6.396,2.548
									c-2.617-0.307-5.024-0.751-7.589-1.406C180.49,223.029,183.117,221.434,185.945,220.903z"/>
							</g>
							<g>
								<path style="fill:#14345A;" d="M168.947,216.905c-0.056-0.168-0.234-0.259-0.396-0.332c-0.172-0.078-0.37-0.156-0.542-0.079
									c-0.17,0.076-0.244,0.272-0.301,0.449c-0.139,0.429-0.28,0.879-0.203,1.323s0.447,0.873,0.897,0.851
									c0.172-0.611,0.344-1.222,0.516-1.833C168.953,217.161,168.988,217.027,168.947,216.905z"/>
							</g>
						</g>
					</g>
				</g>
				<g>
					<g>
						<g>
							<path style="fill:#F0CD95;" d="M181.345,285.928c-3.203-5.31-5.592-11.072-7.101-17.041
								c-4.655,0.181-9.301,1.155-13.861,2.557c2.161,8.343,5.479,17.516,11.555,23.772c6.737,6.937,14.148,13.007,28.852,19.352
								c1.3-1.961,2.6-3.922,3.9-5.884C195.086,303.163,186.971,295.252,181.345,285.928z"/>
						</g>
						<g>
							<path style="fill:#F47362;" d="M172.669,254.92c-0.059-2.724-0.053-5.74-1.943-7.764c-1.983-2.124-5.604-2.312-8.162-0.87
								c-2.559,1.442-4.114,4.181-4.682,6.988c-0.568,2.807-0.265,5.705,0.151,8.537c0.506,3.443,1.191,6.875,2.068,10.259
								c4.783-1.471,9.658-2.492,14.542-2.683C173.446,264.652,172.775,259.793,172.669,254.92z"/>
						</g>
					</g>
					<path style="fill:#14345A;" d="M160.273,272.262c4.696-1.51,9.567-2.441,14.488-2.757l-0.048-0.748
						c-4.939,0.317-9.829,1.247-14.545,2.752c-0.279-2.051-0.759-4.079-1.238-6.046c-0.354-1.456-0.72-2.961-0.993-4.451
						c-0.833-4.553-0.538-8.149,0.902-10.992c1.564-3.088,5.345-5.686,8.967-4.682l0.2-0.723c-3.997-1.107-8.137,1.707-9.837,5.065
						c-1.517,2.995-1.834,6.746-0.971,11.466c0.276,1.512,0.645,3.027,1.001,4.493c0.532,2.187,1.081,4.446,1.326,6.706l0.317-0.034
						l0.025,0.076c0.128-0.042,0.257-0.079,0.385-0.12l0.02-0.002C160.274,272.265,160.273,272.264,160.273,272.262z"/>
				</g>
			</g>
			<g>
				<g>
					<g>
						<path style="fill:#14345A;" d="M442.889,361.743c-1.111-1.089-0.45-3.101,0.809-4.014c1.259-0.913,1.196-0.676,4.357-1.594
							c1.827-0.531,3.384-1.586,6.303-4.834c3.041,0.429,6.139,0.451,9.186,0.065c0.745,3.173,1.022,6.456,0.818,9.708
							C457.219,361.621,450.052,361.844,442.889,361.743z"/>
					</g>
					<g>
						<path style="fill:#189FB1;" d="M498.522,243.24c-7.423,1.842-15.14,2.495-22.767,1.929l-3.952-0.183
							c0.815,8.007-2.461,16.869-6.022,24.086c-3.561,7.217-6.059,12.88-8.761,20.461c-6.741,18.911-4.604,42.826-4.28,62.887
							l11.689-0.329c0.678-22.869,3.535-48.657,16.754-67.332c4.492-6.345,9.634-12.271,13.35-19.099
							C498.249,258.831,500.467,250.767,498.522,243.24z"/>
					</g>
					<g>
						<path style="fill:#54CED1;" d="M458.496,351.422c-2.042-27.983,2.306-55.903,12.921-82.985l0.932,0.365
							c-10.561,26.941-14.886,54.714-12.855,82.548L458.496,351.422z"/>
					</g>
					<g>
						<path style="fill:#14345A;" d="M466.801,313.093c3.806-10.832,7.617-21.681,10.435-32.811
							c0.647-2.555,1.244-5.215,0.756-7.804c-0.488-2.59-2.345-5.103-4.944-5.535c-5.769,17.847-11.608,36.188-10.619,54.919
							C464.577,319.374,465.712,316.194,466.801,313.093z"/>
					</g>
				</g>
				<g>
					<g>
						<path style="fill:#14345A;" d="M466.102,361.414c-1.111-1.089-0.45-3.101,0.809-4.014c1.259-0.913,1.196-0.676,4.357-1.595
							c1.827-0.531,3.384-1.586,6.303-4.834c3.041,0.429,6.139,0.451,9.186,0.065c0.745,3.173,1.022,6.456,0.818,9.708
							C480.432,361.292,473.264,361.515,466.102,361.414z"/>
					</g>
					<g>
						<path style="fill:#54CED1;" d="M487.155,352.593c-2.368-23.111-2.524-44.757,4.219-66.356
							c4.505-14.434,14.133-22.519,11.875-41.563l-2.278-7.355c-9.494,4.966-17.007,5.365-27.642,6.795
							c0.376,15.87-2.925,29.694-4.328,43.877c-2.135,21.578,1.543,43.242,5.421,64.602H487.155z"/>
					</g>
					<g>
						<path style="fill:#189FB1;" d="M483.041,352.113c-0.521-4.3-0.778-8.086-1.025-11.747c-0.247-3.649-0.502-7.422-1.021-11.694
							c-0.653-5.383-1.328-10.949-1.467-16.474c-0.239-9.631,1.115-19.169,4.028-28.352c1.138-3.587,2.528-7.145,3.872-10.585
							c1.121-2.87,2.28-5.838,3.284-8.799c0.777-2.295,1.582-3.842,2.229-5.085c1.209-2.325,2.008-3.86,1.597-8.195l0.996-0.095
							c0.439,4.629-0.461,6.358-1.706,8.751c-0.664,1.276-1.416,2.723-2.169,4.944c-1.011,2.983-2.175,5.962-3.3,8.843
							c-1.339,3.425-2.723,6.967-3.851,10.523c-2.879,9.076-4.219,18.504-3.981,28.023c0.137,5.477,0.81,11.019,1.459,16.378
							c0.521,4.3,0.778,8.086,1.025,11.747c0.247,3.649,0.502,7.422,1.021,11.694L483.041,352.113z"/>
					</g>
				</g>
				<g>
					<g>
						<path style="fill:#F0CD95;" d="M447.336,211.651c-8.198,9.515-18.775,16.963-30.495,21.475
							c1.252,2.331,2.504,4.662,3.756,6.992c9.935-4.041,19.728-8.633,28.424-14.913c3.547-2.561,7.076-5.168,10.324-8.013
							c-1.392-4.513-4.687-7.055-8.691-9.563C449.56,208.982,448.469,210.336,447.336,211.651z"/>
					</g>
					<g>
						<path style="fill:#D3584F;" d="M465.217,194.447c-2.971,0.954-6.011,3.798-7.744,5.452c-2.492,2.377-4.658,5.053-6.82,7.731
							c3.918,2.379,7.149,5.244,8.691,9.563c4.713-4.128,8.828-8.76,11.501-14.519C472.715,198.646,470.471,192.759,465.217,194.447
							z"/>
					</g>
					<g>
						<path style="fill:#14345A;" d="M457.92,214.409c-2.209-2.63-4.988-4.854-8.038-6.429l0.344-0.666
							c3.138,1.621,5.996,3.907,8.269,6.613L457.92,214.409z"/>
					</g>
				</g>
				<g>
					<g>
						<path style="fill:#F47362;" d="M493.06,249.343c-5.779,3.522-12.663,5.639-19.69,6.116c-3.027,0.206-5.71-1.92-6.164-4.92
							c-1.463-9.65-3.802-19.2-6.989-28.53c-2.031-5.946-4.435-12.096-3.267-18.216c0.911-4.77,4.073-9.183,8.59-11.988
							s10.32-4.936,15.788-4.129c10.337,11.812,14.728,27.639,18.719,42.083c1.039,3.762,2.063,7.75,0.73,11.44
							C499.542,244.621,496.431,247.288,493.06,249.343z"/>
					</g>
					<g>
						<g>
							<path style="fill:#F0CD95;" d="M457.012,187.515c4.809-2.73,5.646-4.309,8.24-9.191l9.451,9.479
								c-3.744,5.346-5.581,6.758-10.958,10.771C461.183,194.448,460.799,190.621,457.012,187.515z"/>
						</g>
						<g>
							<path style="fill:#14345A;" d="M461.644,194.814c-1.013-2.956-2.536-5.581-4.631-7.299c4.313-2.449,5.434-3.979,7.492-7.791
								C466.846,185.393,465.21,190.649,461.644,194.814z"/>
						</g>
					</g>
					<g>
						<path style="fill:#D3584F;" d="M462.748,218.954c1.134-8.194,5.895-15.643,12.263-20.923c2.146-1.779,5.185-3.382,7.575-1.947
							c1.133,0.68,1.819,1.914,2.252,3.162c1.782,5.141,0.025,10.763-1.726,15.914c-2.636,7.755-5.272,15.511-8.095,23.2
							c-1.338,3.645-2.803,7.405-5.611,10.087C465.421,239.047,461.349,229.067,462.748,218.954z"/>
					</g>
					<path style="fill:#FFFFFF;" d="M472.806,185.798c0.353,1.442-0.077,2.986-0.845,4.256c-0.769,1.27-1.853,2.313-2.924,3.341
						c-1.25,1.2-2.506,2.404-3.909,3.421c-0.435,0.315-0.894,0.622-1.204,1.061c-0.205,0.29-0.335,0.625-0.454,0.96
						c-0.667,1.872-1.047,3.846-1.124,5.832c2.128-3.04,5.126-5.336,7.827-7.88c2.701-2.545,5.227-5.556,5.934-9.199
						C474.909,187.201,473.785,186.59,472.806,185.798z"/>
					<path style="fill:#FFFFFF;" d="M461.87,194.323c-1.085,1.122-1.78,3.31-1.71,4.87c0.071,1.56,0.606,3.062,1.256,4.482
						c0.251-2.166,1.317-4.227,2.939-5.683C463.151,197.269,462.433,195.61,461.87,194.323z"/>
				</g>
				<g>
					<g>
						<path style="fill:#F0CD95;" d="M463.578,169.839c-0.873-1.457-2.038-2.809-3.589-3.501c-2.358-1.052-5.104-0.396-7.544,0.451
							c-1.889,0.656-3.782,1.443-5.276,2.772c-1.495,1.329-2.545,3.297-2.326,5.285c0.11,0.997,0.523,1.932,0.943,2.843
							c1.024,2.222,1.556,3.581,2.719,5.733c0.218,0.404,0.974,0.706,1.368,1.076c0.095,0.285,0.119,0.61,0.129,0.914
							c0.054,1.694,0.068,3.036,0.619,4.639c0.075,0.219,0.57,0.505,0.797,0.552c0.252,0.052,0.941-0.076,1.12-0.26
							c0.086-0.088,0.152-0.15,0.223-0.218c1.087,1.361,2.202,2.541,3.478,4.098c4.385-1.716,6.985-5.713,8.609-10.303
							C466.47,179.332,466.079,174.016,463.578,169.839z"/>
						<path style="fill:#14345A;" d="M449.736,181.831c0.93-0.214,1.896-0.269,2.844-0.16c-0.012,0.151,0.008,0.304,0.058,0.446
							c-0.887-0.068-1.786,0.034-2.635,0.3C449.914,182.223,449.825,182.027,449.736,181.831z"/>
						<path style="fill:#14345A;" d="M452.879,183.861c-0.119-0.186-0.255-0.374-0.452-0.473c-0.197-0.099-0.472-0.078-0.598,0.104
							c-0.125,0.181-0.055,0.434,0.07,0.615c0.125,0.18,0.299,0.325,0.499,0.414c0.197,0.088,0.469,0.1,0.586-0.08
							C453.097,184.265,452.991,184.036,452.879,183.861z"/>
						<path style="fill:#14345A;" d="M454.214,190.566c0.59-0.132,1.095-0.499,1.619-0.802c0.073-0.043,0.153-0.085,0.238-0.079
							c0.162,0.011,0.261,0.203,0.234,0.362c-0.027,0.16-0.139,0.29-0.249,0.409c-0.254,0.275-0.525,0.544-0.858,0.713
							c-0.333,0.169-0.743,0.226-1.081,0.067c-0.097-0.045-0.189-0.11-0.243-0.202c-0.054-0.092-0.064-0.215-0.004-0.304
							C453.941,190.62,454.086,190.594,454.214,190.566z"/>
						<g>
							<path style="fill:#14345A;" d="M462.442,167.279c-2.024-2.189-5.343-2.833-8.259-2.211c-2.916,0.621-5.487,2.332-7.757,4.265
								c-0.837,0.713-1.68,1.516-1.983,2.573c-0.226,0.789-0.123,1.632,0.012,2.441c0.104,0.623,0.229,1.253,0.526,1.81
								c0.731,1.374,2.402,2.047,3.957,1.986c1.555-0.061,3.019-0.731,4.384-1.478c3.204-1.753,6.117-3.986,9.016-6.209
								c0.302-0.232,0.614-0.475,0.786-0.814C463.519,168.863,463.035,167.921,462.442,167.279z"/>
						</g>
						<g>
							<path style="fill:#F47362;" d="M457.607,178.524c-0.376-0.649-1.227-1.088-1.897-0.751c-0.666,0.336-1.028,1.235-0.829,1.953
								c0.276,0.999,0.505,1.678,0.302,2.198c-1.261-1.756-2.74-3.355-4.411-4.727c3.486-2.546,6.971-5.093,10.457-7.639
								c0.267-0.195,0.547-0.396,0.874-0.454c0.286-0.051,0.581,0.014,0.853,0.115c1.249,0.462,2.11,1.644,2.571,2.894
								c0.461,1.249,0.591,2.592,0.831,3.901c0.24,1.31,0.618,2.645,1.476,3.663c-2.216,0.646-4.605,0.69-6.844,0.126
								c-0.94-0.237-2.008-0.547-2.831-0.087C458,179.277,457.795,178.849,457.607,178.524z"/>
						</g>
					</g>
					<g>
						<g>
							<path style="fill:#5F45AA;" d="M450.648,166.01c-2.035,1.185-3.964,2.553-5.754,4.083c-0.664,0.567-1.346,1.222-1.499,2.081
								c-0.126,0.709,0.135,1.425,0.408,2.091c0.848,2.067,1.86,4.067,3.024,5.974c5.594-1.26,10.879-3.874,15.274-7.557
								c1.048-0.878,2.14-2.076,1.88-3.418c-0.126-0.652-0.558-1.196-0.975-1.712c-0.887-1.095-1.806-2.218-3.04-2.896
								c-1.44-0.792-3.187-0.892-4.795-0.555C453.562,164.438,452.068,165.183,450.648,166.01z"/>
						</g>
						<g>
							<path style="fill:#F47362;" d="M445.245,175.658c-0.47-0.956-0.953-1.976-0.852-3.037c0.102-1.073,0.796-2.01,1.625-2.699
								c0.829-0.689,1.8-1.18,2.704-1.766c-0.352,0.727-0.376,1.581-0.206,2.37c0.17,0.79,0.522,1.528,0.9,2.242
								c1.039,1.963,2.295,3.81,3.74,5.497c-0.833,0.365-1.673,0.733-2.564,0.914c-0.891,0.181-1.849,0.163-2.672-0.222
								C446.611,178.344,445.882,176.955,445.245,175.658z"/>
						</g>
						<g>
							<path style="fill:#5F45AA;" d="M446.224,178.765c-1.207,0.281-1.144,1.1-5.058,3.342c2.606,0.982,4.872,1.153,7.273-0.257
								c2.401-1.411,4.541-2.865,6.744-4.591C452.406,178.5,449.186,178.075,446.224,178.765z"/>
						</g>
						<g>
							<path style="fill:#14345A;" d="M460.967,167.661c-0.017-0.187,0.117-0.35,0.242-0.489c0.133-0.148,0.292-0.309,0.491-0.307
								c0.197,0.001,0.352,0.16,0.482,0.307c0.317,0.356,0.645,0.731,0.76,1.194c0.115,0.463-0.061,1.035-0.506,1.205
								c-0.426-0.518-0.853-1.036-1.279-1.553C461.07,167.912,460.98,167.797,460.967,167.661z"/>
						</g>
					</g>
				</g>
				<g>
					<g>
						<g>
							<path style="fill:#F0CD95;" d="M460.811,213.606c-7.008,12.308-17.098,22.846-29.09,30.382
								c1.891,2.308,3.783,4.616,5.674,6.923c10.119-6.627,19.96-13.835,28.221-22.67c3.37-3.605,6.71-7.255,9.687-11.108
								c-2.52-4.692-6.718-6.791-11.693-8.698C462.695,210.171,461.78,211.906,460.811,213.606z"/>
						</g>
						<g>
							<path style="fill:#F47362;" d="M476.868,190.688c-3.081,1.701-5.828,5.508-7.388,7.714c-2.243,3.172-4.058,6.603-5.87,10.035
								c4.852,1.783,9.05,4.252,11.693,8.698c4.32-5.59,7.869-11.61,9.578-18.563C486.077,193.709,482.316,187.68,476.868,190.688z"
								/>
						</g>
					</g>
					<path style="fill:#14345A;" d="M475.242,218.22l-0.596-0.454c2.988-3.922,5.601-8.156,7.765-12.584
						c0.949-1.943,1.961-4.215,1.949-6.591c-0.01-2.001-1.013-4.544-3.191-5.402l0.275-0.698c2.517,0.992,3.654,3.776,3.666,6.096
						c0.013,2.538-1.039,4.905-2.025,6.924C480.9,209.983,478.261,214.259,475.242,218.22z"/>
					<path style="fill:#14345A;" d="M474.944,217.492c-2.541-4.229-6.745-7.33-11.534-8.508l0.18-0.729
						c4.981,1.226,9.354,4.451,11.997,8.85L474.944,217.492z"/>
				</g>
			</g>
			<g>
				<g>
					<g>
						<g>
							<path style="fill:#14345A;" d="M230.699,387.366l211.059-57.753c4.845-1.326,7.698-6.328,6.372-11.173l-1.942-7.096
								l-228.605,62.554l1.942,7.096C220.851,385.838,225.854,388.691,230.699,387.366z"/>
						</g>
					</g>
					<g>
						<g>
							<polygon style="fill:#14345A;" points="430.81,345.63 425.37,347.219 415.169,324.967 424.46,322.425 							"/>
						</g>
					</g>
					<g>
						<g>
							<g>
								<polygon style="fill:#14345A;" points="254.37,393.802 248.532,395.508 242.182,372.302 251.473,369.759 								"/>
							</g>
						</g>
					</g>
				</g>
				<g>
					<g>
						<g>
							<path style="fill:#14345A;" d="M438.024,317.261l-14.421,3.946c-3.613,0.989-7.344-1.139-8.333-4.752l-19.438-71.035
								c-0.989-3.614,1.139-7.344,4.752-8.333l14.421-3.946c3.613-0.989,7.344,1.139,8.333,4.752l19.438,71.035
								C443.765,312.542,441.637,316.272,438.024,317.261z"/>
						</g>
					</g>
					<g>
						<g>
							<path style="fill:#14345A;" d="M246.275,369.73l-14.421,3.946c-3.613,0.989-7.344-1.139-8.333-4.752l-19.438-71.035
								c-0.989-3.613,1.139-7.344,4.752-8.333l14.421-3.946c3.614-0.989,7.344,1.139,8.333,4.752l19.437,71.035
								C252.017,365.01,249.889,368.741,246.275,369.73z"/>
						</g>
					</g>
					<g>
						<g>
							<path style="fill:#14345A;" d="M420.153,312.966l-178.238,48.772c-5.641,1.544-11.466-1.778-13.01-7.42l-2.411-8.813
								c-1.544-5.641,1.778-11.466,7.42-13.01l178.238-48.772c5.641-1.544,11.466,1.778,13.01,7.42l2.411,8.813
								C429.116,305.597,425.794,311.422,420.153,312.966z"/>
						</g>
					</g>
					<g>
						<g>
							<path style="fill:#5F45AA;" d="M445.308,315.268l-5.441,1.489c-6.093,1.667-12.384-1.921-14.051-8.013l-16.98-62.056
								c-1.667-6.093,1.921-12.384,8.014-14.051l5.441-1.489c6.093-1.667,12.384,1.921,14.051,8.014l16.981,62.056
								C454.988,307.31,451.401,313.601,445.308,315.268z"/>
						</g>
					</g>
					<g>
						<g>
							<path style="fill:#5F45AA;" d="M227.911,374.755l-6.971,1.908c-5.671,1.552-11.525-1.787-13.077-7.458l-17.399-63.586
								c-1.552-5.671,1.787-11.525,7.458-13.077l6.971-1.908c5.671-1.552,11.525,1.787,13.077,7.458l17.399,63.586
								C236.921,367.348,233.581,373.203,227.911,374.755z"/>
						</g>
					</g>
					<g>
						<g>
							<path style="fill:#FFFFFF;" d="M426.035,326.857l-182.911,50.05c-3.466,0.948-7.044-1.092-7.993-4.559l-4.604-16.824
								c-0.948-3.466,1.092-7.045,4.559-7.993l182.911-50.05c3.466-0.948,7.044,1.092,7.993,4.558l4.604,16.824
								C431.542,322.33,429.501,325.908,426.035,326.857z"/>
						</g>
					</g>
					<g>
						<g>
							<path style="fill:#5F45AA;" d="M426.035,326.857l-182.911,50.05c-3.466,0.948-6.97-0.82-7.826-3.95l-4.157-15.193
								c-0.856-3.13,1.259-6.436,4.725-7.384l182.911-50.05c3.466-0.948,6.97,0.82,7.826,3.95l4.157,15.193
								C431.617,322.602,429.501,325.908,426.035,326.857z"/>
						</g>
					</g>
					<g>
						<g>
							<path style="fill:#FFFFFF;" d="M404.805,286.739l-162.898,44.574c-4.899,1.341-9.958-1.544-11.299-6.444l-13.429-49.076
								c-1.341-4.9,1.544-9.958,6.444-11.299l162.898-44.574c4.9-1.341,9.958,1.544,11.299,6.444l13.429,49.076
								C412.589,280.34,409.704,285.399,404.805,286.739z"/>
						</g>
					</g>
					<g>
						<g>
							<path style="fill:#5F45AA;" d="M406.845,287.618l-164.743,45.079c-4.955,1.356-10.004-1.316-11.276-5.967l-12.749-46.59
								c-1.273-4.651,1.712-9.521,6.667-10.877l164.743-45.079c4.955-1.356,10.004,1.316,11.276,5.967l12.749,46.59
								C414.785,281.392,411.8,286.262,406.845,287.618z"/>
						</g>
					</g>
				</g>
			</g>
			<g>
				<g>
					<g>
						<g>
							<g>
								<g>
									<g>
										<g>
											<g>
												<path style="fill:#F0CD95;" d="M339.949,266.654c-0.132-0.231-0.064-0.526,0.009-0.785
													c1.335-4.785,3.453-12.176,4.788-16.962c2.226,0.555,3.738,3.402,6.024,3.325c-0.594,5.541,0.839,9.989,1.393,15.535
													c-4.697-0.419-6.738-0.351-11.435-0.77C340.436,266.971,340.1,266.918,339.949,266.654z"/>
											</g>
										</g>
									</g>
								</g>
							</g>
						</g>
					</g>
					<g>
						<g>
							<g>
								<g>
									<g>
										<g>
											<g>
												<path style="fill:#F0CD95;" d="M343.519,239.715c1.312-2.22,3.563-3.797,6.014-4.221
													c2.451-0.424,6.703,0.845,8.631,2.493c1.017,0.869,1.055,3.275,1.167,4.649c0.085,1.051-0.35,1.758-0.25,2.807
													c0.102,1.074,0.168,1.076,0.379,1.741c0.312,0.987,0.429,2.039,0.278,3.067c-0.432,2.934-2.409,5.22-3.513,7.876
													c-0.337,0.812-1.229,1.201-2.029,0.924c-3.651-1.268-7.116-3.299-9.453-6.479
													C342.077,248.946,341.219,243.609,343.519,239.715z"/>
											</g>
										</g>
									</g>
								</g>
							</g>
						</g>
					</g>
					<g>
						<g>
							<g>
								<g>
									<g>
										<g>
											<g>
												<path style="fill:#14345A;" d="M361.168,238.242c-0.056,2.498-1.877,4.834-4.195,5.378
													c0.113-0.265,0.226-0.53,0.338-0.796c-1.152,1.994-3.186,3.396-5.383,3.711c0.135-0.302,0.27-0.604,0.405-0.906
													c-0.728,1.61-2.328,2.536-3.822,3.377c-1.493,0.841-3.081,1.818-3.735,3.462c-2.107-1.226-3.653-3.377-4.468-5.761
													c-0.816-2.384-0.941-4.986-0.645-7.5c0.232-1.97,0.798-4.045,2.264-5.293c1.777-1.513,0.796-0.798,2.865-1.82
													C353.866,227.608,361.223,235.744,361.168,238.242z"/>
											</g>
										</g>
									</g>
								</g>
							</g>
						</g>
					</g>
					<g>
						<path style="fill:#F47362;" d="M344.191,240.995c0.407-0.866,0.819-1.75,0.947-2.698c0.128-0.949-0.069-1.99-0.742-2.671
							c-0.673-0.681-1.88-0.854-2.592-0.214C343.549,236.636,344.511,238.887,344.191,240.995z"/>
					</g>
					<g>
						<g>
							<g>
								<g>
									<g>
										<g>
											<g>
												<path style="fill:#F0CD95;" d="M353.69,247.59c0.164-0.574,0.246-1.188,0.127-1.773c-0.12-0.586-0.464-1.14-0.978-1.397
													c-0.733-0.366-1.654-0.039-2.205,0.589c-0.55,0.628-0.793,1.49-0.908,2.335c-0.143,1.04-0.099,2.175,0.476,3.033
													c0.575,0.858,1.818,1.271,2.611,0.633L353.69,247.59z"/>
											</g>
										</g>
									</g>
								</g>
							</g>
						</g>
					</g>
					<g>
						<g>
							<g>
								<g>
									<g>
										<g>
											<g>
												<path style="fill:#14345A;" d="M341.578,246.467c-0.68-1.798-1.575-3.611-1.457-5.542
													c0.105-1.738,1.148-3.337,2.573-4.202c0.647-0.393,0.359-1.429-0.388-1.456c-1.395-0.051-2.855,0.518-3.916,1.504
													c-1.695,1.575-2.518,3.963-2.851,6.317c-0.333,2.354-0.241,4.752-0.449,7.122c-0.405,4.604-2.16,9.356-5.789,11.961
													c2.609,0.654,5.388,1.302,7.925,0.385c2.807-1.014,4.788-3.867,5.409-6.922
													C343.257,252.581,342.676,249.37,341.578,246.467z"/>
											</g>
										</g>
									</g>
								</g>
							</g>
						</g>
					</g>
				</g>
				<g>
					<g>
						<g>
							<g>
								<g>
									<g>
										<g>
											<g>
												<g>
													<g>
														<path style="fill:#F0CD95;" d="M336.45,373.066h14.577c-3.268,16.181-6.442,33.032-9.273,49.053
															c-0.59,3.34-0.142,5.945,1.517,7.994c0.01,0.013,2.408,1.387,2.424,1.392c3.8,1.142,7.624,2.369,5.686,4.33
															c-3.22,2.606-8.152,3.587-12.417,2.803c-1.629-0.3-3.792,0.696-4.323,0.151c-0.653-0.669-0.5-2.182-0.29-3.538
															c0.219-1.419,0.466-2.845,0.738-4.275c0.418-2.201,0.503-4.346,0.207-6.31
															C332.935,408.977,333.338,391.333,336.45,373.066z"/>
													</g>
												</g>
											</g>
										</g>
									</g>
								</g>
							</g>
							<g>
								<g>
									<g>
										<g>
											<g>
												<g>
													<g>
														<path style="fill:#14345A;" d="M349.282,432.699c-0.618,0.98-1.565,1.853-2.837,2.541
															c-1.811,0.979-4.317,0.929-5.949,0.77c-1.981-0.193-4.033-0.92-6.148-0.745c-0.208,1.353-0.358,2.857,0.292,3.523
															c0.532,0.545,2.694-0.451,4.323-0.151c4.264,0.784,9.197-0.197,12.417-2.803
															C352.672,434.527,351.398,433.547,349.282,432.699z"/>
													</g>
												</g>
											</g>
										</g>
									</g>
								</g>
							</g>
						</g>
						<g>
							<path style="fill:#189FB1;" d="M350.586,418.652c-3.819-18.243,2.466-38.543,2.885-57.177
								c0.288-12.859,2.805-26.24,3.802-39.063c-8.357,0.34-16.75-0.192-24.997-1.585c-2.84,8.318-2.111,17.437-0.384,26.056
								c1.727,8.618,0.798,16.07,1.824,24.8c1.791,15.244-6.914,26.999-1.646,47.742
								C337.692,418.837,344.962,419.238,350.586,418.652z"/>
						</g>
						<g>
							<path style="fill:#14345A;" d="M341.328,414.287c0.281,1.034,0.652,2.115,1.56,2.836c1.899,1.511,4.937,0.712,7.314-0.169
								c-3.826-14.524,3.314-29.848,0.1-44.481c-2.351-10.702-10.024-20.015-13.343-30.526c0.287,7.187,0.084,12.434,1.412,18.312
								c1.328,5.878,2.625,7.75,2.75,15.375C341.326,388.146,338.032,402.146,341.328,414.287z"/>
						</g>
					</g>
					<g>
						<g>
							<g>
								<g>
									<g>
										<g>
											<g>
												<g>
													<g>
														<path style="fill:#F0CD95;" d="M346.788,408.803c-1.541-8.683-0.384-24.132-1.913-35.737h15.675
															c1.544,14.108-2.966,26.212-0.541,62.361c2.283,3.974,6.433,4.557,10.91,6.065c0.783,0.264,1.808,0.671,1.521,1.826
															c-0.129,0.519-0.5,0.979-0.881,1.319c-1.084,0.967-2.32,1.222-3.486,1.458c-6.104,1.238-7.333,0.163-10.29-0.25
															c-2.534-0.354-3.988,0.522-5.3-1.413c-0.549-0.832-0.294-2.052,0.103-3.389c0.541-1.82,1.244-4.168,0.796-5.678
															C351.361,428.56,348.084,416.104,346.788,408.803z"/>
													</g>
												</g>
											</g>
										</g>
									</g>
								</g>
							</g>
							<g>
								<g>
									<g>
										<g>
											<g>
												<g>
													<g>
														<path style="fill:#14345A;" d="M370.919,441.492c-0.442-0.149-0.853-0.336-1.262-0.526
															c-1.254,1.373-2.975,2.158-4.736,2.345c-3.941,0.418-9.269-0.324-12.415-1.988c-0.347,1.226-0.532,2.335-0.023,3.108
															c1.311,1.935,2.766,1.06,5.3,1.413c2.957,0.413,4.186,1.488,10.29,0.25c1.165-0.236,2.401-0.49,3.486-1.458
															c0.381-0.34,0.752-0.8,0.881-1.319C372.727,442.164,371.702,441.756,370.919,441.492z"/>
													</g>
												</g>
											</g>
										</g>
									</g>
								</g>
							</g>
						</g>
						<g>
							<path style="fill:#54CED1;" d="M363.258,417.715c-3.819-18.243-1.069-30.692-0.651-49.326
								c0.289-12.859-0.082-33.749-0.576-44.943c-8.357,0.34-15.252-0.239-23.5-1.632c-2.84,8.318-2.111,17.437-0.384,26.056
								c1.727,8.618,4.417,17.057,5.443,25.787c1.791,15.244-1.52,31.088,2.797,45.818
								C352.011,418.888,357.634,418.301,363.258,417.715z"/>
						</g>
						<g>
							<path style="fill:#189FB1;" d="M346.038,415.011l-0.001-1c5.183-0.006,10.359-0.65,15.385-1.916l0.244,0.969
								C356.561,414.35,351.303,415.005,346.038,415.011z"/>
						</g>
					</g>
					<g>
						<path style="fill:#14345A;" d="M330.641,327.671c10.031-0.698,20.061-1.396,30.092-2.093c0.024,1.075,0.048,2.15,0.072,3.225
							c-9.848,0.801-19.641,2.292-29.281,4.46C330.669,331.547,330.356,329.566,330.641,327.671z"/>
					</g>
				</g>
				<g>
					<g>
						<g>
							<g>
								<g>
									<g>
										<g>
											<g>
												<g>
													<path style="fill:#189FB1;" d="M330.258,316.449c-1.811,9.054-0.913,11.411-1.235,13.335l33.764-2.649
														c-0.132-0.728-1.044-12.227-1.25-12.909c-1.809-5.978-1.352-8.155-1.573-14.399c-0.247-6.948,1.211-9.786,2.808-16.551
														c0.782-3.312,0.905-6.667-2.634-11.03c-2.498-3.079-2.3-4.496-5.392-10.001c-1.671-2.977-7.986-2.2-11.359-2.716
														c-1.44-0.22-2.889,2.605-4.074,3.457c-0.953,0.684-2.324,3.888-2.593,4.815c-0.793,2.735-1.634,6.632-1.934,9.466
														c-0.825,7.773,1.274,13.28,0.659,21.072C334.928,304.877,331.665,309.417,330.258,316.449z"/>
												</g>
											</g>
										</g>
									</g>
								</g>
							</g>
						</g>
					</g>
					<g>
						<path style="fill:#54CED1;" d="M329.006,328.338l-0.018-1c11.083-0.21,22.295-0.924,33.323-2.123l0.108,0.994
							C351.361,327.411,340.119,328.128,329.006,328.338z"/>
					</g>
					<g>
						<path style="fill:#54CED1;" d="M354.757,262.704c-0.052,0-0.104-0.008-0.156-0.025c-4.296-1.414-9.083-1.602-13.479-0.528
							c-0.267,0.064-0.538-0.099-0.604-0.366c-0.065-0.269,0.099-0.539,0.367-0.605c4.576-1.12,9.558-0.924,14.028,0.55
							c0.262,0.086,0.405,0.369,0.319,0.631C355.163,262.571,354.967,262.704,354.757,262.704z"/>
					</g>
				</g>
				<g>
					<g>
						<g>
							<rect x="361.491" y="263.301" style="fill:#F0CD95;" width="45.364" height="47.977"/>
						</g>
						<g>
							<rect x="361.491" y="265.051" style="fill:#D3A479;" width="45.364" height="47.977"/>
						</g>
						<g>
							<path style="fill:#B27C4F;" d="M406.813,313.027c-17.201-2.082-33.965-7.279-45.321-19.984v19.984H406.813z"/>
						</g>
						<g>
							<polygon style="fill:#14345A;" points="401.91,299.904 398.334,295.703 394.758,299.904 396.608,299.904 396.608,307.337 
								400.06,307.337 400.06,299.904 							"/>
						</g>
					</g>
					<g>
						<g>
							<path style="fill:#54CED1;" d="M353.647,272.345c-0.745-3.165-2.178-8.455-5.168-9.429c-2.99-0.974-6.669-0.011-8.305,2.797
								c-1.374,2.356-1.086,5.36-0.569,8.07c0.466,2.442,1.088,4.85,1.847,7.209c4.272-2.086,8.723-3.616,13.355-3.969
								C354.481,275.795,354.129,274.395,353.647,272.345z"/>
						</g>
						<g>
							<path style="fill:#F0CD95;" d="M400.174,311.756c-0.112-0.25-0.439-0.31-0.713-0.294c-1.003,0.056-1.887,0.636-2.802,1.05
								c-2.599,1.178-5.763,1.017-8.229-0.419c2.009,0.563,4.099,0.842,6.185,0.825c0.273-0.002,0.589-0.03,0.746-0.254
								c0.167-0.237,0.064-0.573-0.108-0.806c-0.397-0.54-1.083-0.788-1.745-0.895c-0.662-0.107-1.344-0.105-1.99-0.285
								c-1.012-0.282-1.865-0.99-2.878-1.268c-1.005-0.276-2.072-0.106-3.101,0.066c-0.937,0.157-1.874,0.313-2.811,0.47
								c-0.594,0.099-0.877,0.04-1.567-0.09c-12.504-5.633-21.002-13.415-25.17-28.524c-0.467-1.693-0.809-2.885-1.186-4.309
								c-4.632,0.353-9.082,1.882-13.355,3.969c0.879,2.735,1.945,5.404,3.199,7.971c4.012,8.213,9.395,13.141,16.681,18.288
								c7.163,5.06,16.033,7.707,21.59,7.888c0.917,0.135,1.606,0.21,2.158,0.401c0.913,0.315,1.763,0.789,2.663,1.142
								c0.9,0.352,1.887,0.582,2.831,0.378c0.224-0.048,0.438-0.123,0.648-0.21c1.342-0.289,2.685-0.578,4.028-0.866
								c0.445-0.096,0.895-0.193,1.307-0.386c0.376-0.175,0.711-0.425,1.043-0.674c0.582-0.435,1.163-0.869,1.745-1.304
								c0.281-0.21,0.597-0.512,0.502-0.851c-0.013-0.047-0.046-0.079-0.072-0.117c0.059-0.063,0.128-0.114,0.184-0.181
								C400.125,312.268,400.281,311.996,400.174,311.756z"/>
						</g>
					</g>
				</g>
			</g>
			<g>
				<g>
					<g>
						<g>
							<g>
								<path style="fill:#F0CD95;" d="M95.974,362.871c1.425,3.528,1.574,7.512,2.739,11.221
									c2.892,9.209,8.249,17.187,10.287,26.936c-1.811,6.585,5.927,5.103,7.913-0.696c-4.415-15.891-4.214-28.483-7.157-41.879
									C104.846,360.526,101.128,362.054,95.974,362.871z"/>
							</g>
							<g>
								<path style="fill:#189FB1;" d="M109,401.028c-1.811,6.585,5.927,5.103,7.913-0.696c-0.427-1.539-0.8-3.038-1.148-4.518
									c-2.449,0.922-4.986,1.579-7.433,2.507C108.578,399.211,108.808,400.109,109,401.028z"/>
							</g>
							<g>
								<g>
									<path style="fill:#F47362;" d="M128.784,407.925c1.019-1.109,0.279-3.022-0.985-3.842c-1.264-0.82-2.839-0.936-4.295-1.322
										c-2.266-0.601-4.015-1.071-5.456-2.689c-0.37-0.415-0.978-0.501-1.47-0.243c-2.46,1.292-5.099,5.076-7.849,2.881
										c-0.293-0.234-0.73-0.082-0.792,0.287c-0.381,2.247-0.277,2.564,0.045,5.363
										C114.917,408.53,121.861,408.384,128.784,407.925z"/>
								</g>
								<g>
									<path style="fill:#14345A;" d="M108.12,409.969c2.1,0.122,4.204-0.079,6.299-0.26c4.894-0.424,9.796-0.748,14.703-0.97
										c0.035-0.515-0.008-1.035-0.126-1.538c-6.924,0.822-13.915,1.083-20.882,0.779
										C108.117,408.643,108.119,409.306,108.12,409.969z"/>
								</g>
							</g>
						</g>
						<g>
							<g>
								<path style="fill:#14345A;" d="M105.208,336.528c-2.781-11.199-7.004-19.976-9.004-32.476l-26.068,9.916
									c3.013,8.47,5.395,12.025,8.978,17.773c6.463,10.367,12.507,19.895,13.673,32.228c5.154-0.816,12.815-2.65,17.726-4.723
									C108.845,351.65,107.083,344.075,105.208,336.528z"/>
							</g>
							<path style="fill:#5F45AA;" d="M92.94,360.13l-0.14-0.99c4.942-0.695,10.792-1.984,15.267-3.363l0.295,0.955
								C103.841,358.127,97.931,359.428,92.94,360.13z"/>
						</g>
					</g>
					<g>
						<g>
							<g>
								<path style="fill:#F0CD95;" d="M64.122,356.686c-0.082,0.251-1.903,4.786-1.988,5.036
									c-4.419,12.917-4.136,26.025-9.025,35.807c2.916,0.558,5.226,3.659,8.142,4.216c3.958-16.563,12.083-28.86,15.329-36.976
									c0.312-0.779,1.242-3.745,1.723-4.904C72.941,358.587,69.485,357.837,64.122,356.686z"/>
							</g>
							<g>
								<path style="fill:#189FB1;" d="M53.109,397.529c2.916,0.558,5.226,3.659,8.142,4.216c0.664-2.78,1.453-5.429,2.309-7.969
									c-2.817-0.464-5.551-1.125-8.153-2.178C54.782,393.68,54.04,395.666,53.109,397.529z"/>
							</g>
							<g>
								<g>
									<path style="fill:#F47362;" d="M69.147,410.508c1.382-0.504,1.626-2.461,0.943-3.771c-0.123-0.235-0.308-0.442-0.493-0.631
										c-3.677-3.736-5.657-4.406-6.198-8.04c-2.037-2.429-6.835,0.736-9.634-1.368c-0.243-0.183-0.595-0.118-0.782,0.122
										c-1.536,1.971-1.465,1.765-2.508,4.51C56.555,404.668,62.788,407.732,69.147,410.508z"/>
								</g>
								<g>
									<path style="fill:#14345A;" d="M69.832,410.319c-2.634-0.611-4.892-2.239-7.236-3.587
										c-2.132-1.226-4.379-2.238-6.621-3.247c-1.834-0.826-3.668-1.651-5.502-2.477c-0.334,0.575-0.586,1.198-0.745,1.844
										c7.267,2.847,12.892,6.285,19.311,8.945C69.304,411.304,69.568,410.811,69.832,410.319z"/>
								</g>
							</g>
						</g>
						<g>
							<g>
								<path style="fill:#14345A;" d="M90.614,326.656c1.464-7.689,2.017-13.182,1.547-20.996
									c-6.431-1.614-16.342-1.995-22.962-1.609l-1.36,3.569c-0.504,6.321,1.296,12.936,0.34,19.205
									c-1.491,9.777-4.309,19.892-8.893,29.476c5.362,1.151,13.5,4.75,19.614,4.475C82.096,353.089,88.471,337.91,90.614,326.656z
									"/>
							</g>
							<g>
								<path style="fill:#5F45AA;" d="M79.382,356.964c-5.643-0.82-10.532-2.142-16.875-4.564l0.356-0.934
									c6.269,2.393,11.097,3.699,16.662,4.508L79.382,356.964z"/>
							</g>
							<g>
								<path style="fill:#5F45AA;" d="M79.599,361.315l-0.905-0.424c7.512-16.038,13.28-33.674,13.052-51.381l1.125-0.25
									C93.1,327.119,87.175,345.142,79.599,361.315z"/>
							</g>
						</g>
					</g>
				</g>
				<g>
					<g>
						<path style="fill:#5F45AA;" d="M90.141,259.098c-1.528-4.362-4.325-8.525-8.609-10.973c-4.284-2.448-10.2-2.844-14.343-0.206
							c-4.411,2.809-5.829,8.107-6.211,12.966c-0.459,5.831,0.091,11.685,0.696,17.505c1.132,10.882,4.806,13.082,4.041,31.249
							c7.866,0.628,23.767,0.96,31.989-1.255C95.834,298.114,91.67,263.46,90.141,259.098z"/>
					</g>
					<g>
						<path style="fill:#14345A;" d="M82.488,252.757l-0.763-0.428c-3.274-1.835-7.258-2.448-10.936-1.686l-0.152-0.734
							c3.562-0.741,7.405-0.244,10.678,1.359c-0.395-1.315-0.929-2.655-1.461-3.642l0.66-0.355c0.671,1.246,1.345,3.023,1.758,4.639
							L82.488,252.757z"/>
					</g>
				</g>
				<g>
					<g>
						<rect x="87.969" y="232.293" style="fill:#F0CD95;" width="56.319" height="62.096"/>
					</g>
					<g>
						<rect x="87.969" y="234.293" style="fill:#D3A479;" width="56.319" height="62.096"/>
					</g>
					<path style="fill:#B27C4F;" d="M93.287,273.017v-38.724h-5.319v33.555v28.541h5.319h44.222
						C121.166,291.496,105.732,284.121,93.287,273.017z"/>
					<g>
						<polygon style="fill:#14345A;" points="136.73,283.771 133.154,279.57 129.578,283.771 131.428,283.771 131.428,291.203 
							134.88,291.203 134.88,283.771 						"/>
					</g>
				</g>
				<g>
					<g>
						<path style="fill:#F0CD95;" d="M133.326,295.73c-1.079-0.183-2.158,0.219-3.231,0.438c-3.045,0.622-6.368-0.314-8.639-2.436
							c1.998,1.084,4.15,1.886,6.37,2.373c0.291,0.064,0.633,0.11,0.854-0.089c0.235-0.211,0.206-0.593,0.08-0.883
							c-0.291-0.67-0.959-1.098-1.637-1.373c-0.677-0.274-1.402-0.437-2.044-0.784c-1.007-0.544-1.742-1.503-2.75-2.043
							c-1.001-0.536-2.176-0.614-3.309-0.68c-1.033-0.06-2.066-0.121-3.1-0.181c-0.272-0.016-0.545-0.032-0.817-0.048
							c-12.03-2.303-15.77-5.576-22.731-10.699c-4.566-3.36-7.921-7.917-11.344-12.435c-3.737,1.802-7.177,4.272-10.388,7.074
							c4.827,6.297,9.319,10.381,16.069,14.507c8.564,5.234,17.504,7.186,29.385,7.605c0.33,0.155,0.658,0.314,0.969,0.507
							c0.894,0.556,1.682,1.265,2.553,1.857c0.87,0.592,1.864,1.075,2.916,1.086c1.07,0.012,2.076-0.46,3.11-0.734
							c1.334-0.354,2.729-0.381,4.1-0.543s2.775-0.483,3.868-1.327c0.227-0.175,0.457-0.427,0.402-0.708
							C133.954,295.923,133.62,295.78,133.326,295.73z"/>
					</g>
					<g>
						<path style="fill:#14345A;" d="M74.618,255.625c-1.048-2.285-2.149-4.84-4.436-5.884c-2.4-1.096-5.427,0.027-6.989,2.154
							c-1.562,2.127-1.828,4.997-1.262,7.574c0.566,2.577,1.877,4.923,3.256,7.173c1.677,2.736,3.496,5.398,5.454,7.952
							c3.369-2.939,6.977-5.53,10.898-7.421C78.823,263.588,76.492,259.713,74.618,255.625z"/>
					</g>
					<g>
						<path style="fill:#5F45AA;" d="M70.225,272.046l-0.654-0.756c3.289-2.845,6.985-5.147,10.989-6.842l0.39,0.92
							C77.043,267.022,73.435,269.269,70.225,272.046z"/>
					</g>
				</g>
				<g>
					<g>
						<g>
							<g>
								<g>
									<g>
										<g>
											<path style="fill:#F0CD95;" d="M79.962,249.525c-1.006-5.083-2.407-8.035-3.414-13.118
												c-2.07,0.575-6.426-2.275-8.553-2.584c0,6.446,0,11.375-1.375,15.063C71.888,247.11,74.539,248.302,79.962,249.525z"/>
										</g>
									</g>
								</g>
							</g>
						</g>
						<g>
							<g>
								<g>
									<g>
										<g>
											<path style="fill:#14345A;" d="M69.809,234.387c-0.122,5.612,4.062,9.882,9.146,10.98
												c-0.816-2.909-1.706-5.423-2.406-8.96C74.965,236.847,72.046,235.286,69.809,234.387z"/>
										</g>
									</g>
								</g>
							</g>
						</g>
					</g>
					<g>
						<g>
							<g>
								<g>
									<g>
										<path style="fill:#F0CD95;" d="M85.155,232.956c0.044-0.197-0.083-0.389-0.205-0.55c-0.876-1.163-1.809-2.281-2.781-3.422
											c-0.012-0.438,0.544-0.944,0.595-1.379c0.029-0.248-0.064-0.492-0.155-0.723c-0.37-0.937-0.33-0.821-0.528-1.807
											c-0.251-1.249-0.407-2.626-1.251-3.646c-0.826-0.999-2.159-1.581-3.384-1.902c-1.814-0.474-3.721-0.668-5.573-0.375
											c-1.852,0.293-3.649,1.095-4.978,2.418c-1.421,1.415-2.117,3.165-2.4,5.15c-0.516,3.62,1.609,6.943,4.27,9.399
											c0.12,0.167,0.787,0.073,1.569,1.36c0.955,1.573,2.6,2.367,4.279,2.945c1.634,0.563,3.415,0.922,5.169,0.814
											c1.061-0.065,2.286-0.182,3.258-0.641c0.375-0.177,0.715-0.468,0.863-0.856c0.136-0.358,0.081-0.765-0.114-1.089
											c-0.194-0.323-0.554-0.59-0.424-1.025c0.035-0.117,0.468-0.527,0.248-0.638c-0.036-0.018-0.286-0.322-0.716-0.286
											c-0.058,0.005-0.031-0.309,0-0.358c0.179-0.287,0.43-0.357,0.609-0.644c-0.066-0.44-0.101-0.593-0.215-1.038
											c0.494-0.251,0.895-0.43,1.217-0.824C84.639,233.681,85.11,233.158,85.155,232.956z"/>
									</g>
								</g>
							</g>
							<g>
								<g>
									<g>
										<g>
											<g>
												<g>
													<path style="fill:#14345A;" d="M74.986,225.068c-0.081,1.665,0.118,3.344,0.587,4.944
														c0.074,0.252,0.155,0.509,0.142,0.771c-0.013,0.262-0.143,0.537-0.384,0.642c-0.499-0.878-1.21-1.634-2.057-2.184
														c-0.36-0.234-0.792-0.438-1.207-0.324c-0.535,0.147-0.786,0.7-0.814,1.254c-0.039,0.779,0.212,1.549,0.486,2.267
														c0.162,0.424,0.585,1.324-0.118,1.503c-2.161,0.552-2.023,2.391-3.73,2.601c-0.462-1.044-1.158-1.964-1.82-2.893
														c-0.662-0.93-1.304-1.899-1.633-2.992c-0.329-1.093-0.309-2.341,0.299-3.307c0.609-0.965,1.695-1.51,2.756-1.931
														c2.474-0.982,5.092-1.548,7.712-2.023L74.986,225.068z"/>
												</g>
											</g>
										</g>
									</g>
								</g>
							</g>
							<g>
								<path style="fill:#14345A;" d="M75.253,224.104c-3.964,0.516-7.812,1.958-11.098,4.233
									c-0.321-1.729-0.639-3.541-0.114-5.219c0.662-2.118,2.582-3.647,4.656-4.437c2.074-0.79,4.322-0.961,6.528-1.2
									c2.206-0.238,4.46-0.568,6.409-1.629c-0.24,0.434-0.48,0.868-0.72,1.303c0.524,0.041,1.061-0.147,1.445-0.505
									c0.074,1.739-0.448,3.497-1.459,4.914c0.287-0.265,0.574-0.53,0.861-0.795c-0.31,1.266-1.449,2.186-2.671,2.639
									C77.868,223.86,76.545,223.936,75.253,224.104z"/>
							</g>
						</g>
						<g>
							<g>
								<g>
									<g>
										<g>
											<g>
												<g>
													<path style="fill:#14345A;" d="M78.993,229.113l-0.405-0.375c0.877-0.949,1.981-1.686,3.193-2.132l0.191,0.518
														C80.841,227.54,79.811,228.228,78.993,229.113z"/>
												</g>
											</g>
										</g>
									</g>
								</g>
							</g>
							<g>
								<path style="fill:#14345A;" d="M80.634,229.043c-0.053,0.27-0.049,0.55,0.013,0.818c0.033,0.144,0.112,0.309,0.259,0.321
									c0.119,0.01,0.219-0.088,0.284-0.189c0.197-0.306,0.233-0.709,0.095-1.046c-0.062-0.151-0.191-0.306-0.353-0.289
									C80.758,228.677,80.668,228.872,80.634,229.043z"/>
							</g>
						</g>
					</g>
				</g>
			</g>
		</g>
	</g>
</g>
</svg>
